<ttFont>
        <CharString name=".notdef">
          -133 endchar
        </CharString>
        <CharString name="A">
          67 19 -21 180 73 452 -20 hstem
          5 426 vstem
          252 700 rmoveto
          2 -10 -14 1 -14 hhcurveto
          -17 -11 -4 -10 -2 hvcurveto
          -179 -688 rlineto
          -2 19 21 -1 10 hhcurveto
          32 3 5 11 3 hvcurveto
          39 164 rlineto
          174 hlineto
          42 -178 rlineto
          -2 21 16 0 11 hhcurveto
          32 5 6 11 -2 hvcurveto
          -282 236 rmoveto
          34 144 16 67 14 78 6 48 rlinecurve
          4 -48 15 -78 16 -67 34 -144 rcurveline
          endchar
        </CharString>
        <CharString name="AE">
          245 0 73 105 73 93 74 209 73 hstem
          340 80 vstem
          420 73 rmoveto
          271 136 vlineto
          15 0 13 61 hvcurveto
          -151 209 161 hlineto
          15 0 8 65 hvcurveto
          -240 hlineto
          -19 hlineto
          -12 -10 -4 -10 -4 hvcurveto
          -294 -685 rlineto
          -2 19 21 -1 11 hhcurveto
          27 6 5 11 4 hvcurveto
          69 164 rlineto
          166 -178 236 hlineto
          16 0 5 68 hvcurveto
          -252 178 rmoveto
          -135 hlineto
          59 141 26 64 30 90 20 69 rlinecurve
          endchar
        </CharString>
        <CharString name="Aacute">
          67 19 -21 180 73 452 -20 hstem
          5 426 vstem
          171 760 rmoveto
          34 19 90 64 16 18 rrcurveto
          24 -4 -15 37 -19 hhcurveto
          -7 -81 -65 -52 -46 hvcurveto
          0 13 -45 19 vhcurveto
          81 -60 rmoveto
          2 -10 -14 1 -14 hhcurveto
          -17 -11 -4 -10 -2 hvcurveto
          -179 -688 rlineto
          -2 19 21 -1 10 hhcurveto
          32 3 5 11 3 hvcurveto
          39 164 rlineto
          174 hlineto
          42 -178 rlineto
          -2 21 16 0 11 hhcurveto
          32 5 6 11 -2 hvcurveto
          -282 236 rmoveto
          34 144 16 67 14 78 6 48 rlinecurve
          4 -48 15 -78 16 -67 34 -144 rcurveline
          endchar
        </CharString>
        <CharString name="Abreve">
          67 19 -21 180 73 452 -20 74 77 hstem
          5 426 vstem
          215 757 rmoveto
          73 40 53 59 20 hvcurveto
          -5 27 -35 30 -16 -26 rrcurveto
          -29 -14 -17 -37 -45 hhcurveto
          -47 -25 49 30 -12 hvcurveto
          -31 -11 -12 -12 -22 vvcurveto
          -42 57 -69 69 vhcurveto
          37 -57 rmoveto
          2 -10 -14 1 -14 hhcurveto
          -17 -11 -4 -10 -2 hvcurveto
          -179 -688 rlineto
          -2 19 21 -1 10 hhcurveto
          32 3 5 11 3 hvcurveto
          39 164 rlineto
          174 hlineto
          42 -178 rlineto
          -2 21 16 0 11 hhcurveto
          32 5 6 11 -2 hvcurveto
          -282 236 rmoveto
          34 144 16 67 14 78 6 48 rlinecurve
          4 -48 15 -78 16 -67 34 -144 rcurveline
          endchar
        </CharString>
        <CharString name="Acircumflex">
          67 19 -21 180 73 452 -20 216 12 hstem
          5 426 vstem
          92 785 rmoveto
          -13 11 17 -10 27 hhcurveto
          18 57 76 0 hvcurveto
          13 -24 53 -53 0 vvcurveto
          29 28 9 14 16 -97 99 0 hvcurveto
          8 -7 -10 4 -8 hhcurveto
          -6 -6 -1 -2 -5 hvcurveto
          46 -208 rmoveto
          2 -10 -14 1 -14 hhcurveto
          -17 -11 -4 -10 -2 hvcurveto
          -179 -688 rlineto
          -2 19 21 -1 10 hhcurveto
          32 3 5 11 3 hvcurveto
          39 164 rlineto
          174 hlineto
          42 -178 rlineto
          -2 21 16 0 11 hhcurveto
          32 5 6 11 -2 hvcurveto
          -282 236 rmoveto
          34 144 16 67 14 78 6 48 rlinecurve
          4 -48 15 -78 16 -67 34 -144 rcurveline
          endchar
        </CharString>
        <CharString name="Acy">
          67 19 -21 180 73 452 -20 hstem
          5 426 vstem
          252 700 rmoveto
          2 -10 -14 1 -14 hhcurveto
          -17 -11 -4 -10 -2 hvcurveto
          -179 -688 rlineto
          -2 19 21 -1 10 hhcurveto
          32 3 5 11 3 hvcurveto
          39 164 rlineto
          174 hlineto
          42 -178 rlineto
          -2 21 16 0 11 hhcurveto
          32 5 6 11 -2 hvcurveto
          -282 236 rmoveto
          34 144 16 67 14 78 6 48 rlinecurve
          4 -48 15 -78 16 -67 34 -144 rcurveline
          endchar
        </CharString>
        <CharString name="Adieresis">
          67 19 -21 180 73 452 -20 89 117 hstem
          118 83 36 83 vstem
          252 700 rmoveto
          2 -10 -14 1 -14 hhcurveto
          -17 -11 -4 -10 -2 hvcurveto
          -179 -688 rlineto
          -2 19 21 -1 10 hhcurveto
          32 3 5 11 3 hvcurveto
          39 164 rlineto
          174 hlineto
          42 -178 rlineto
          -2 21 16 0 11 hhcurveto
          32 5 6 11 -2 hvcurveto
          -282 236 rmoveto
          34 144 16 67 14 78 6 48 rlinecurve
          4 -48 15 -78 16 -67 34 -144 rcurveline
          -131 521 rmoveto
          29 15 23 39 40 -9 15 -30 -30 -14 -22 -35 -45 14 -14 25 -1 hvcurveto
          119 hmoveto
          29 14 23 39 1 hvcurveto
          40 -9 15 -30 -30 -14 -22 -35 vhcurveto
          -1 -45 15 -14 25 -1 rrcurveto
          endchar
        </CharString>
        <CharString name="Agrave">
          67 19 -21 180 73 452 -20 hstem
          5 426 vstem
          280 753 rmoveto
          18 13 45 0 hvcurveto
          53 -46 -81 65 -7 hhcurveto
          -19 -15 -37 -24 -4 hvcurveto
          16 -19 90 -64 35 -19 rrcurveto
          -28 -53 rmoveto
          2 -10 -14 1 -14 hhcurveto
          -17 -11 -4 -10 -2 hvcurveto
          -179 -688 rlineto
          -2 19 21 -1 10 hhcurveto
          32 3 5 11 3 hvcurveto
          39 164 rlineto
          174 hlineto
          42 -178 rlineto
          -2 21 16 0 11 hhcurveto
          32 5 6 11 -2 hvcurveto
          -282 236 rmoveto
          34 144 16 67 14 78 6 48 rlinecurve
          4 -48 15 -78 16 -67 34 -144 rcurveline
          endchar
        </CharString>
        <CharString name="Amacron">
          67 19 -21 180 73 452 -20 104 76 hstem
          5 426 vstem
          322 787 rmoveto
          19 11 18 24 11 -1 11 -6 12 hvcurveto
          -227 hlineto
          -21 -12 -16 -23 -12 0 -11 5 -14 hvcurveto
          162 -87 rmoveto
          2 -10 -14 1 -14 hhcurveto
          -17 -11 -4 -10 -2 hvcurveto
          -179 -688 rlineto
          -2 19 21 -1 10 hhcurveto
          32 3 5 11 3 hvcurveto
          39 164 rlineto
          174 hlineto
          42 -178 rlineto
          -2 21 16 0 11 hhcurveto
          32 5 6 11 -2 hvcurveto
          -282 236 rmoveto
          34 144 16 67 14 78 6 48 rlinecurve
          4 -48 15 -78 16 -67 34 -144 rcurveline
          endchar
        </CharString>
        <CharString name="Aogonek">
          67 -195 58 156 -21 180 73 452 -20 hstem
          286 72 vstem
          5 1 rmoveto
          -2 19 21 -1 10 hhcurveto
          32 3 5 11 3 hvcurveto
          39 164 rlineto
          174 hlineto
          41 -173 rlineto
          -31 -26 -30 -42 -47 vvcurveto
          -63 36 -22 46 34 26 9 23 9 -3 14 -6 11 vhcurveto
          -5 -7 -9 -3 -12 hhcurveto
          -24 -9 13 24 38 31 36 31 24 hvcurveto
          7 6 3 4 7 vvcurveto
          3 0 2 -1 4 vhcurveto
          -177 676 rlineto
          2 -10 -14 1 -14 hhcurveto
          -17 -11 -4 -10 -2 hvcurveto
          106 -438 rmoveto
          -142 hlineto
          35 144 16 67 14 78 6 48 rlinecurve
          4 -48 15 -78 16 -67 rrcurveto
          endchar
        </CharString>
        <CharString name="Aring">
          67 19 -21 180 73 452 -20 60 54 84 56 hstem
          122 58 78 57 vstem
          216 743 rmoveto
          64 35 32 65 74 -30 23 -63 -62 -38 -31 -67 -74 34 -22 60 hvcurveto
          7 138 rmoveto
          23 12 -11 -30 -31 -16 -12 -25 -24 -13 15 26 31 15 12 28 hvcurveto
          29 -181 rmoveto
          2 -10 -14 1 -14 hhcurveto
          -17 -11 -4 -10 -2 hvcurveto
          -179 -688 rlineto
          -2 19 21 -1 10 hhcurveto
          32 3 5 11 3 hvcurveto
          39 164 rlineto
          174 hlineto
          42 -178 rlineto
          -2 21 16 0 11 hhcurveto
          32 5 6 11 -2 hvcurveto
          -282 236 rmoveto
          34 144 16 67 14 78 6 48 rlinecurve
          4 -48 15 -78 16 -67 34 -144 rcurveline
          endchar
        </CharString>
        <CharString name="Atilde">
          67 19 -21 180 73 452 -20 80 76 hstem
          5 426 vstem
          111 772 rmoveto
          13 11 39 35 37 -3 -48 54 hhcurveto
          60 43 60 10 5 hvcurveto
          0 -12 45 -17 vhcurveto
          -15 -3 -39 -47 -40 -4 48 -43 hhcurveto
          -36 -43 -19 -56 -34 hvcurveto
          0 17 -40 22 vhcurveto
          141 -72 rmoveto
          2 -10 -14 1 -14 hhcurveto
          -17 -11 -4 -10 -2 hvcurveto
          -179 -688 rlineto
          -2 19 21 -1 10 hhcurveto
          32 3 5 11 3 hvcurveto
          39 164 rlineto
          174 hlineto
          42 -178 rlineto
          -2 21 16 0 11 hhcurveto
          32 5 6 11 -2 hvcurveto
          -282 236 rmoveto
          34 144 16 67 14 78 6 48 rlinecurve
          4 -48 15 -78 16 -67 34 -144 rcurveline
          endchar
        </CharString>
        <CharString name="B">
          7 0 71 274 69 215 71 hstem
          44 81 140 95 vstem
          44 hmoveto
          126 hlineto
          102 88 69 169 121 -73 22 -45 3 hvcurveto
          42 6 53 45 111 vvcurveto
          128 -88 26 -80 vhcurveto
          -99 hlineto
          -21 -5 -7 -12 hvcurveto
          81 -267 rmoveto
          215 50 vlineto
          37 37 -17 -82 -81 -31 -35 -43 hvcurveto
          -50 -343 rmoveto
          274 47 vlineto
          54 39 -10 -104 -114 -43 -46 -51 hvcurveto
          endchar
        </CharString>
        <CharString name="Becy">
          20 0 71 268 76 209 76 hstem
          57 81 128 95 vstem
          73 700 rmoveto
          -16 0 -16 0 hvcurveto
          -684 127 vlineto
          108 69 85 150 123 -47 57 -120 hvcurveto
          -56 209 178 hlineto
          15 0 5 71 hvcurveto
          -193 -361 rmoveto
          51 hlineto
          59 18 -27 -85 -111 -24 -45 -61 -17 -13 0 1 -13 hvcurveto
          endchar
        </CharString>
        <CharString name="C">
          -29 -10 89 552 79 hstem
          30 85 vstem
          227 710 rmoveto
          -89 -108 -47 -342 -292 71 -39 95 74 50 33 39 17 -6 19 -6 13 hvcurveto
          -16 -18 -36 -16 -39 hhcurveto
          -59 -41 42 204 265 64 41 64 31 24 -17 -8 10 hvcurveto
          7 12 6 18 19 vvcurveto
          25 -20 30 -74 vhcurveto
          endchar
        </CharString>
        <CharString name="CR">
          -212 endchar
        </CharString>
        <CharString name="Cacute">
          -29 -10 89 552 79 hstem
          30 85 vstem
          153 760 rmoveto
          34 19 90 64 16 18 rrcurveto
          24 -4 -15 37 -18 hhcurveto
          -8 -81 -65 -52 -45 hvcurveto
          0 12 -45 19 vhcurveto
          74 -50 rmoveto
          -89 -108 -47 -342 -292 71 -39 95 74 50 33 39 17 -6 19 -6 13 hvcurveto
          -16 -18 -36 -16 -39 hhcurveto
          -59 -41 42 204 265 64 41 64 31 24 -17 -8 10 hvcurveto
          7 12 6 18 19 vvcurveto
          25 -20 30 -74 vhcurveto
          endchar
        </CharString>
        <CharString name="Ccaron">
          -29 -10 89 552 79 hstem
          30 85 vstem
          207 757 rmoveto
          16 95 104 19 13 -13 13 -19 11 hvcurveto
          0 -39 -32 -37 -52 vhcurveto
          0 -71 86 -18 -13 -17 -30 -21 -7 vhcurveto
          -20 14 90 -91 19 hhcurveto
          20 -47 rmoveto
          -89 -108 -47 -342 -292 71 -39 95 74 50 33 39 17 -6 19 -6 13 hvcurveto
          -16 -18 -36 -16 -39 hhcurveto
          -59 -41 42 204 265 64 41 64 31 24 -17 -8 10 hvcurveto
          7 12 6 18 19 vvcurveto
          25 -20 30 -74 vhcurveto
          endchar
        </CharString>
        <CharString name="Ccedilla">
          -29 -172 -21 98 37 70 -21 640 79 hstem
          30 85 114 47 vstem
          158 -101 rmoveto
          0 16 6 25 19 11 -9 -25 -21 -10 -13 -21 -22 -16 17 -6 -7 vhcurveto
          -7 -7 -6 -34 0 vvcurveto
          0 25 -13 31 46 34 32 52 46 -25 18 -24 -12 -4 0 -1 -1 vhcurveto
          10 51 rlineto
          60 6 40 30 34 vvcurveto
          17 -6 19 -6 13 vhcurveto
          -16 -18 -36 -16 -39 hhcurveto
          -59 -41 42 204 265 64 41 64 31 24 -17 -8 10 hvcurveto
          7 12 6 18 19 vvcurveto
          25 -20 30 -74 -89 -108 -47 -342 -269 61 -54 84 -7 vhcurveto
          endchar
        </CharString>
        <CharString name="Checy">
          17 21 -21 271 74 355 -20 hstem
          30 79 142 80 vstem
          331 700 rmoveto
          -79 -1 0 -16 hvcurveto
          -324 vlineto
          -10 -25 -25 -5 -23 hhcurveto
          -43 -26 34 85 hvcurveto
          236 vlineto
          -78 -1 0 -16 hvcurveto
          -231 vlineto
          -130 1 42 -52 84 hhcurveto
          29 28 4 10 37 hvcurveto
          -285 vlineto
          79 1 0 16 hvcurveto
          endchar
        </CharString>
        <CharString name="D">
          18 0 77 549 74 hstem
          44 81 148 91 vstem
          71 700 rmoveto
          -21 -6 -7 -12 hvcurveto
          -681 125 vlineto
          123 72 92 294 243 -65 71 -130 hvcurveto
          -44 -623 rmoveto
          549 46 vlineto
          68 34 -47 -185 -278 -50 -39 -52 hvcurveto
          endchar
        </CharString>
        <CharString name="Dcaron">
          18 0 77 549 74 hstem
          44 81 148 91 vstem
          185 757 rmoveto
          16 95 104 19 13 -13 13 -20 11 hvcurveto
          0 -38 -32 -37 -52 vhcurveto
          0 -72 86 -17 -14 -17 -30 -21 -7 vhcurveto
          -20 14 90 -91 20 hhcurveto
          -114 -57 rmoveto
          -21 -6 -7 -12 hvcurveto
          -681 125 vlineto
          123 72 92 294 243 -65 71 -130 hvcurveto
          -44 -623 rmoveto
          549 46 vlineto
          68 34 -47 -185 -278 -50 -39 -52 hvcurveto
          endchar
        </CharString>
        <CharString name="Dcroat">
          18 0 77 549 74 87 76 hstem
          44 81 148 91 vstem
          281 787 rmoveto
          20 11 18 24 11 -2 11 -5 12 hvcurveto
          -228 hlineto
          -20 -12 -16 -23 -12 0 -11 5 -14 hvcurveto
          21 -87 rmoveto
          -21 -6 -7 -12 hvcurveto
          -681 125 vlineto
          123 72 92 294 243 -65 71 -130 hvcurveto
          -44 -623 rmoveto
          549 46 vlineto
          68 34 -47 -185 -278 -50 -39 -52 hvcurveto
          endchar
        </CharString>
        <CharString name="Decy">
          91 0 76 548 76 hstem
          16 72 47 76 100 81 vstem
          442 76 rmoveto
          -50 624 -202 hlineto
          -54 -1 0 -16 hvcurveto
          -560 -29 -22 -48 -51 hhcurveto
          -17 -211 hlineto
          -21 11 -2 38 vhcurveto
          12 57 9 53 2 48 rrcurveto
          281 hlineto
          3 -48 8 -53 13 -57 rrcurveto
          38 11 2 21 hvcurveto
          -131 759 rmoveto
          -548 -175 vlineto
          36 66 17 146 22 336 rrcurveto
          endchar
        </CharString>
        <CharString name="Delta">
          58 0 76 628 -20 hstem
          24 384 vstem
          24 hmoveto
          384 hlineto
          -144 691 rlineto
          7 -8 -13 6 -21 hhcurveto
          -19 -29 -8 -43 -8 hvcurveto
          -51 -577 rmoveto
          101 515 rlineto
          4 hlineto
          100 -515 rlineto
          endchar
        </CharString>
        <CharString name="Djecy">
          120 -8 80 368 71 113 76 hstem
          144 81 135 83 vstem
          365 700 rmoveto
          -340 hlineto
          -12 -5 -5 -11 hvcurveto
          -60 136 -624 vlineto
          79 2 0 16 hvcurveto
          408 vlineto
          11 22 31 5 22 hhcurveto
          49 11 -24 -74 hvcurveto
          -111 vlineto
          -102 -13 -57 -45 -10 -11 2 4 -11 vhcurveto
          -4 -10 -2 -10 -10 vvcurveto
          -30 21 -26 48 85 25 93 134 vhcurveto
          144 vlineto
          110 -46 38 -78 -32 -32 -7 -10 -30 vhcurveto
          130 123 vlineto
          12 5 4 13 hvcurveto
          endchar
        </CharString>
        <CharString name="Dzecy">
          -12 -10 82 566 72 hstem
          26 87 135 87 vstem
          189 306 rmoveto
          45 -52 14 -33 -47 vvcurveto
          -61 -27 -41 -72 -48 -34 16 19 -21 vhcurveto
          -14 -18 -7 -23 -17 vvcurveto
          -27 41 -32 91 135 43 86 102 62 -15 45 -52 62 vhcurveto
          -109 123 rlineto
          -29 36 -17 26 37 vvcurveto
          44 38 25 60 46 39 -13 -11 13 vhcurveto
          14 15 6 17 14 vvcurveto
          28 -36 22 -95 -111 -61 -59 -84 -48 17 -41 46 -55 vhcurveto
          endchar
        </CharString>
        <CharString name="Dzhecy">
          57 0 76 624 -20 hstem
          57 80 43 72 38 80 vstem
          290 76 rmoveto
          -153 624 hlineto
          -79 -1 0 -16 hvcurveto
          -684 123 vlineto
          3 -48 8 -53 12 -57 rrcurveto
          38 11 2 21 hvcurveto
          135 87 vlineto
          28 3 1 15 hvcurveto
          684 vlineto
          -79 -1 0 -16 hvcurveto
          endchar
        </CharString>
        <CharString name="E">
          -50 0 73 271 74 209 73 hstem
          45 80 vstem
          125 73 rmoveto
          271 136 vlineto
          15 0 13 61 hvcurveto
          -151 209 161 hlineto
          15 0 8 65 hvcurveto
          -240 hlineto
          -16 0 -16 0 hvcurveto
          -684 236 vlineto
          16 0 5 68 hvcurveto
          endchar
        </CharString>
        <CharString name="Eacute">
          -50 0 73 271 74 209 73 hstem
          45 80 vstem
          122 760 rmoveto
          34 19 90 64 16 18 rrcurveto
          24 -4 -14 37 -19 hhcurveto
          -8 -81 -65 -52 -45 hvcurveto
          0 12 -45 19 vhcurveto
          3 -687 rmoveto
          271 136 vlineto
          15 0 13 61 hvcurveto
          -151 209 161 hlineto
          15 0 8 65 hvcurveto
          -240 hlineto
          -16 0 -16 0 hvcurveto
          -684 236 vlineto
          16 0 5 68 hvcurveto
          endchar
        </CharString>
        <CharString name="Ecaron">
          -50 0 73 271 74 209 73 hstem
          45 80 vstem
          177 757 rmoveto
          16 94 104 19 13 -12 13 -20 11 hvcurveto
          0 -39 -32 -37 -52 vhcurveto
          0 -71 86 -18 -13 -17 -30 -21 -7 vhcurveto
          -20 14 90 -91 20 hhcurveto
          -52 -684 rmoveto
          271 136 vlineto
          15 0 13 61 hvcurveto
          -151 209 161 hlineto
          15 0 8 65 hvcurveto
          -240 hlineto
          -16 0 -16 0 hvcurveto
          -684 236 vlineto
          16 0 5 68 hvcurveto
          endchar
        </CharString>
        <CharString name="Ecircumflex">
          -50 0 73 271 74 209 73 hstem
          45 80 vstem
          43 785 rmoveto
          -13 11 17 -10 28 hhcurveto
          17 58 76 0 hvcurveto
          13 -24 53 -53 0 vvcurveto
          28 29 9 14 16 -97 99 0 hvcurveto
          8 -8 -9 4 -8 hhcurveto
          -7 -5 -1 -2 -5 hvcurveto
          -33 -835 rmoveto
          271 136 vlineto
          15 0 13 61 hvcurveto
          -151 209 161 hlineto
          15 0 8 65 hvcurveto
          -240 hlineto
          -16 0 -16 0 hvcurveto
          -684 236 vlineto
          16 0 5 68 hvcurveto
          endchar
        </CharString>
        <CharString name="Ecy">
          -22 -10 89 239 73 240 79 hstem
          36 86 vstem
          263 318 rmoveto
          16 0 13 60 hvcurveto
          -157 hlineto
          224 5 57 16 56 hhcurveto
          36 23 -15 -10 11 hvcurveto
          8 12 5 18 19 vvcurveto
          25 -32 30 -76 -87 -92 -42 -309 -321 81 -48 99 65 50 34 33 18 -6 21 -7 16 vhcurveto
          -17 -28 -31 -16 -34 hhcurveto
          -59 -40 58 181 -4 hvcurveto
          endchar
        </CharString>
        <CharString name="Edieresis">
          -50 0 73 271 74 209 73 hstem
          45 80 vstem
          108 772 rmoveto
          30 14 23 39 1 hvcurveto
          40 -10 15 -30 -30 -13 -22 -35 -1 vhcurveto
          -45 15 -14 24 -1 vhcurveto
          119 hmoveto
          29 15 23 39 40 -9 15 -29 -30 -15 -22 -35 -45 14 -14 25 -1 hvcurveto
          -102 -699 rmoveto
          271 136 vlineto
          15 0 13 61 hvcurveto
          -151 209 161 hlineto
          15 0 8 65 hvcurveto
          -240 hlineto
          -16 0 -16 0 hvcurveto
          -684 236 vlineto
          16 0 5 68 hvcurveto
          endchar
        </CharString>
        <CharString name="Edotaccent">
          -50 0 73 271 74 209 73 hstem
          45 80 vstem
          168 770 rmoveto
          30 15 24 40 hvcurveto
          42 1 -10 16 -31 hhcurveto
          -31 -15 -24 -36 -47 15 -15 26 hvcurveto
          -43 -697 rmoveto
          271 136 vlineto
          15 0 13 61 hvcurveto
          -151 209 161 hlineto
          15 0 8 65 hvcurveto
          -240 hlineto
          -16 0 -16 0 hvcurveto
          -684 236 vlineto
          16 0 5 68 hvcurveto
          endchar
        </CharString>
        <CharString name="Efcy">
          193 11 -21 755 -20 hstem
          36 84 122 80 118 87 vstem
          322 745 rmoveto
          -80 -1 0 -37 hvcurveto
          -52 vlineto
          -141 -17 -64 -102 -170 vvcurveto
          -186 59 -100 147 -12 vhcurveto
          -79 vlineto
          81 -1 0 29 hvcurveto
          52 vlineto
          138 16 67 101 181 vvcurveto
          175 -61 98 -144 16 vhcurveto
          -74 vmoveto
          87 -8 31 -79 -130 vvcurveto
          -129 -35 -83 -83 -9 vhcurveto
          -80 -3 rmoveto
          -87 7 -35 80 129 vvcurveto
          131 36 83 86 9 vhcurveto
          endchar
        </CharString>
        <CharString name="Egrave">
          -50 0 73 271 74 209 73 hstem
          45 80 vstem
          231 753 rmoveto
          19 12 45 0 hvcurveto
          53 -45 -81 65 -8 hhcurveto
          -19 -14 -37 -24 -4 hvcurveto
          16 -19 90 -64 34 -19 rrcurveto
          -106 -680 rmoveto
          271 136 vlineto
          15 0 13 61 hvcurveto
          -151 209 161 hlineto
          15 0 8 65 hvcurveto
          -240 hlineto
          -16 0 -16 0 hvcurveto
          -684 236 vlineto
          16 0 5 68 hvcurveto
          endchar
        </CharString>
        <CharString name="Elcy">
          58 21 -21 624 76 hstem
          118 76 97 81 vstem
          372 700 rmoveto
          -183 hlineto
          -67 -3 -3 -21 -1 hvcurveto
          -22 -445 -12 -171 -82 -2 rrcurveto
          -1 -7 -1 -5 -6 vvcurveto
          -35 20 -13 27 95 31 206 426 21 vhcurveto
          97 -624 hlineto
          80 1 0 16 hvcurveto
          endchar
        </CharString>
        <CharString name="Emacron">
          -50 0 73 271 74 209 73 87 76 hstem
          45 80 vstem
          69 863 rmoveto
          -20 -12 -16 -23 -1 hvcurveto
          -12 1 -11 5 -14 vhcurveto
          231 hlineto
          19 12 18 24 11 -2 11 -5 12 hvcurveto
          -172 -236 rmoveto
          161 hlineto
          15 0 8 65 hvcurveto
          -240 hlineto
          -16 0 -16 0 hvcurveto
          -684 236 vlineto
          16 0 5 68 hvcurveto
          -172 271 136 hlineto
          15 0 13 61 hvcurveto
          -151 hlineto
          endchar
        </CharString>
        <CharString name="Emcy">
          145 21 -21 700 -20 hstem
          57 79 241.5 80.5 vstem
          288 393 rmoveto
          -12 -37 -17 -71 0 vvcurveto
          0 -19 71 -13 40 vhcurveto
          -96 304 rlineto
          -58 hlineto
          -9 -7 -1 -15 hvcurveto
          -684 vlineto
          75 4 0 16 hvcurveto
          233 vlineto
          -3 105 -17 186 0 vvcurveto
          1 1 21 -77 36 -128 7 -21 rlinecurve
          52 -162 rlineto
          35 hlineto
          4 5 2 6 2 hvcurveto
          53 154 8 22 36 130 21 76 rlinecurve
          -2 -26 -14 -176 -2 -96 -3 -245 rcurveline
          82 0 0 16 hvcurveto
          684 -65 vlineto
          -11 -2 -7 -9 -4 hvcurveto
          endchar
        </CharString>
        <CharString name="Ency">
          64 21 -21 339 76 285 -20 hstem
          57 80 160 81 vstem
          378 700 rmoveto
          -82 1 0 -16 hvcurveto
          -269 -160 285 vlineto
          -81 1 0 -16 hvcurveto
          -684 vlineto
          81 -1 0 16 hvcurveto
          323 160 -339 vlineto
          82 -1 0 16 hvcurveto
          endchar
        </CharString>
        <CharString name="Endescendercy">
          64 0 76 263 76 285 -20 hstem
          44 81 160 80 vstem
          416 76 rmoveto
          -51 624 hlineto
          -81 1 0 -16 hvcurveto
          -269 -160 285 vlineto
          -82 1 0 -16 hvcurveto
          -684 vlineto
          82 -1 0 16 hvcurveto
          323 160 -339 59 vlineto
          2 -48 9 -53 12 -57 rrcurveto
          38 11 2 21 hvcurveto
          endchar
        </CharString>
        <CharString name="Eogonek">
          -50 -195 58 137 73 271 74 209 73 hstem
          45 80 vstem
          125 73 rmoveto
          271 136 vlineto
          15 0 13 61 hvcurveto
          -151 209 161 hlineto
          15 0 8 65 hvcurveto
          -240 hlineto
          -16 0 -16 0 hvcurveto
          -684 160 vlineto
          -30 -26 -26 -40 -45 vvcurveto
          -62 36 -22 46 34 27 9 23 9 -4 14 -5 11 vhcurveto
          -5 -9 -9 -3 -11 hhcurveto
          -23 -10 12 25 38 34 37 28 21 hvcurveto
          13 11 1 1 65 vvcurveto
          endchar
        </CharString>
        <CharString name="Ercy">
          -9 21 -21 284 75 270 71 hstem
          44 80 130 89 vstem
          60 700 rmoveto
          -13 -3 -5 -11 hvcurveto
          -684 vlineto
          79 1 0 16 hvcurveto
          268 36 vlineto
          99 84 54 165 138 -58 59 -126 hvcurveto
          -35 -341 rmoveto
          270 50 vlineto
          60 20 -46 -71 -112 -29 -41 -57 hvcurveto
          endchar
        </CharString>
        <CharString name="Ereversedcy">
          -17 -10 89 239 73 240 79 hstem
          231 86 vstem
          74 391 rmoveto
          -60 0 -13 15 vhcurveto
          142 hlineto
          -181 -4 -42 -58 -59 hhcurveto
          -36 -31 17 17 -25 hvcurveto
          -8 -20 -6 -18 -21 vvcurveto
          -31 55 -33 60 99 83 48 321 309 -90 42 -87 -77 -32 -30 -25 -19 6 -18 7 -12 vhcurveto
          10 11 26 15 36 hhcurveto
          53 56 -15 -225 5 hvcurveto
          endchar
        </CharString>
        <CharString name="Escy">
          -29 -10 89 552 79 hstem
          30 85 vstem
          227 710 rmoveto
          -89 -108 -47 -342 -292 71 -39 95 74 50 33 39 17 -6 19 -6 13 hvcurveto
          -16 -18 -36 -16 -39 hhcurveto
          -59 -41 42 204 265 64 41 64 31 24 -17 -8 10 hvcurveto
          7 12 6 18 19 vvcurveto
          25 -20 30 -74 vhcurveto
          endchar
        </CharString>
        <CharString name="Eth">
          18 0 77 254 70 225 74 hstem
          44 81 148 91 vstem
          71 700 rmoveto
          -21 -6 -7 -12 hvcurveto
          -280 -23 vlineto
          -16 0 -20 -50 hvcurveto
          39 -331 125 hlineto
          123 72 92 302 235 -65 71 -130 hvcurveto
          -44 -623 rmoveto
          254 63 vlineto
          17 0 20 50 hvcurveto
          -80 225 46 hlineto
          68 34 -47 -185 -278 -50 -39 -52 hvcurveto
          endchar
        </CharString>
        <CharString name="F">
          -57 21 -21 344 74 213 69 hstem
          45 80 vstem
          61 700 rmoveto
          -16 0 -16 0 hvcurveto
          -684 65 vlineto
          14 1 12 4 hvcurveto
          328 136 vlineto
          15 0 13 61 hvcurveto
          -151 213 161 hlineto
          15 0 4 65 hvcurveto
          endchar
        </CharString>
        <CharString name="G">
          16 -10 79 274 67 221 79 hstem
          30 86 164 75 vstem
          355 410 rmoveto
          -131 hlineto
          -12 -7 -5 -11 hvcurveto
          -51 75 -249 vlineto
          -9 -5 -19 -16 -36 hhcurveto
          -65 -39 32 239 224 43 67 102 33 29 -10 -14 18 hvcurveto
          6 15 5 18 19 vvcurveto
          26 -41 25 -66 -132 -83 -63 -313 -281 55 -63 133 70 44 26 19 23 vhcurveto
          endchar
        </CharString>
        <CharString name="Gamma">
          -56 21 -21 631 69 hstem
          57 80 vstem
          57 hmoveto
          65 hlineto
          15 0 16 0 hvcurveto
          615 149 vlineto
          15 0 4 65 hvcurveto
          -228 hlineto
          -16 0 -16 0 hvcurveto
          endchar
        </CharString>
        <CharString name="Gbreve">
          16 -10 79 274 67 221 79 47 77 hstem
          30 86 164 75 vstem
          135 913 rmoveto
          -31 -11 -13 -12 -22 vvcurveto
          -42 58 -69 68 74 39 53 59 20 vhcurveto
          -5 27 -35 30 -15 -26 rrcurveto
          -29 -14 -18 -37 -45 hhcurveto
          -46 -26 49 30 -11 hvcurveto
          220 -503 rmoveto
          -131 hlineto
          -12 -7 -5 -11 hvcurveto
          -51 75 -249 vlineto
          -9 -5 -19 -16 -36 hhcurveto
          -65 -39 32 239 224 43 67 102 33 29 -10 -14 18 hvcurveto
          6 15 5 18 19 vvcurveto
          26 -41 25 -66 -132 -83 -63 -313 -281 55 -63 133 70 44 26 19 23 vhcurveto
          endchar
        </CharString>
        <CharString name="Gcommaaccent">
          16 -10 79 274 67 221 79 hstem
          30 86 164 75 vstem
          355 410 rmoveto
          -131 hlineto
          -12 -7 -5 -11 hvcurveto
          -51 75 -249 vlineto
          -9 -5 -19 -16 -36 hhcurveto
          -65 -39 32 239 224 43 67 102 33 29 -10 -14 18 hvcurveto
          6 15 5 18 19 vvcurveto
          26 -41 25 -66 -132 -83 -63 -313 -281 55 -63 133 70 44 26 19 23 vhcurveto
          -194 -133 rmoveto
          -22 6 -16 17 -11 vhcurveto
          -2 -28 -3 -19 -23 -38 rrcurveto
          -17 4 13 -6 15 hhcurveto
          18 60 77 73 41 -20 18 -35 -29 -21 -23 -29 hvcurveto
          endchar
        </CharString>
        <CharString name="Gecy">
          -56 21 -21 631 69 hstem
          57 80 vstem
          57 hmoveto
          65 hlineto
          15 0 16 0 hvcurveto
          615 149 vlineto
          15 0 4 65 hvcurveto
          -228 hlineto
          -16 0 -16 0 hvcurveto
          endchar
        </CharString>
        <CharString name="Gheupturncy">
          -63 21 -21 631 69 hstem
          57 80 97 67 vstem
          73 700 rmoveto
          -16 0 -16 0 hvcurveto
          -684 65 vlineto
          15 0 16 0 hvcurveto
          615 149 vlineto
          15 0 4 65 hvcurveto
          91 vlineto
          20 -10 3 -34 vhcurveto
          -11 -39 -8 -38 -4 -37 rrcurveto
          endchar
        </CharString>
        <CharString name="Gjecy">
          -56 21 -21 631 69 hstem
          57 80 vstem
          157 760 rmoveto
          34 19 90 64 16 18 rrcurveto
          24 -4 -14 37 -19 hhcurveto
          -8 -81 -65 -52 -45 hvcurveto
          0 12 -45 19 vhcurveto
          -100 -760 rmoveto
          65 hlineto
          15 0 16 0 hvcurveto
          615 149 vlineto
          15 0 4 65 hvcurveto
          -228 hlineto
          -16 0 -16 0 hvcurveto
          endchar
        </CharString>
        <CharString name="H">
          40 21 -21 339 76 285 -20 hstem
          44 81 160 80 vstem
          365 700 rmoveto
          -81 1 0 -16 hvcurveto
          -269 -160 285 vlineto
          -82 1 0 -16 hvcurveto
          -684 vlineto
          82 -1 0 16 hvcurveto
          323 160 -339 vlineto
          81 -1 0 16 hvcurveto
          endchar
        </CharString>
        <CharString name="Hacy">
          54 21 -21 700 -20 hstem
          9 405 vstem
          268 368 rmoveto
          129 332 rlineto
          -84 1 0 -13 -4 hvcurveto
          -39 -101 -21 -56 -19 -61 -10 -33 rlinecurve
          -10 33 -18 61 -21 56 -41 114 rcurveline
          -95 -5 0 -14 5 hvcurveto
          126 -324 -153 -362 rlineto
          70 hlineto
          9 4 2 8 5 hvcurveto
          54 125 23 54 21 59 12 36 rlinecurve
          12 -36 21 -59 21 -54 54 -135 rcurveline
          88 hlineto
          10 3 5 8 -4 hvcurveto
          endchar
        </CharString>
        <CharString name="Hardsigncy">
          85 0 71 268 76 209 76 hstem
          132 81 128 94 vstem
          213 415 rmoveto
          285 -175 vlineto
          -15 -5 -8 -15 hvcurveto
          -53 114 -624 126 vlineto
          108 69 85 150 123 -46 57 -120 hvcurveto
          -56 -76 rmoveto
          51 hlineto
          59 18 -27 -85 -111 -24 -45 -61 -17 -13 1 1 -13 hvcurveto
          endchar
        </CharString>
        <CharString name="I">
          -201 21 -21 700 -20 hstem
          44 82 vstem
          44 hmoveto
          80 2 0 16 hvcurveto
          684 vlineto
          -81 -1 0 -37 hvcurveto
          endchar
        </CharString>
        <CharString name="IJ">
          99 -9 72 637 -20 hstem
          44 82 218 81 vstem
          344 183 rmoveto
          -78 -7 -42 -59 -33 -30 15 18 -19 vhcurveto
          -6 -11 -7 -14 -21 vvcurveto
          -29 25 -30 81 109 27 75 99 vhcurveto
          535 vlineto
          -81 0 0 -37 hvcurveto
          -300 -663 rmoveto
          80 2 0 16 hvcurveto
          684 vlineto
          -81 -1 0 -37 hvcurveto
          endchar
        </CharString>
        <CharString name="Iacute">
          -201 21 -21 700 -20 hstem
          44 82 vstem
          37 760 rmoveto
          34 19 90 64 16 18 rrcurveto
          24 -4 -15 37 -18 hhcurveto
          -8 -81 -65 -52 -45 hvcurveto
          0 12 -45 19 vhcurveto
          7 -760 rmoveto
          80 2 0 16 hvcurveto
          684 vlineto
          -81 -1 0 -37 hvcurveto
          endchar
        </CharString>
        <CharString name="Iacy">
          20 21 -21 292 75 262 71 hstem
          37 89 127 80 vstem
          217 700 rmoveto
          -117 -63 -57 -139 -95 44 -69 61 -26 hvcurveto
          -43 -22 -22 -28 -9 -43 -45 -221 rcurveline
          -1 17 23 -1 13 hhcurveto
          33 1 5 15 3 hvcurveto
          38 197 rlineto
          51 10 30 26 37 hhcurveto
          25 -276 hlineto
          -16 -1 0 81 vhcurveto
          684 vlineto
          0 0 16 -16 vhcurveto
          -64 -330 rmoveto
          -2 -14 -13 -1 -15 hhcurveto
          -51 -34 53 93 72 25 44 52 17 16 0 -2 17 hvcurveto
          endchar
        </CharString>
        <CharString name="Icircumflex">
          -201 21 -21 700 -20 219 12 hstem
          44 82 vstem
          -42 785 rmoveto
          -13 11 17 -10 28 hhcurveto
          17 57 76 0 hvcurveto
          13 -24 53 -53 0 vvcurveto
          29 29 9 14 16 -98 99 0 hvcurveto
          8 -7 -10 4 -8 hhcurveto
          -6 -6 -1 -2 -4 hvcurveto
          -29 -908 rmoveto
          80 2 0 16 hvcurveto
          684 vlineto
          -81 -1 0 -37 hvcurveto
          endchar
        </CharString>
        <CharString name="Icy">
          -201 21 -21 700 -20 hstem
          44 82 vstem
          44 hmoveto
          80 2 0 16 hvcurveto
          684 vlineto
          -81 -1 0 -37 hvcurveto
          endchar
        </CharString>
        <CharString name="Idieresis">
          -201 21 -21 700 -20 92 117 hstem
          44 82 vstem
          28 889 rmoveto
          -30 -13 -22 -35 -1 hvcurveto
          -45 14 -14 25 -1 vhcurveto
          29 15 23 39 hvcurveto
          40 1 -10 15 -30 hhcurveto
          119 hmoveto
          -30 -14 -22 -35 hvcurveto
          -1 -45 15 -14 25 -1 rrcurveto
          29 15 23 39 40 -9 15 -30 hvcurveto
          -103 -889 rmoveto
          80 2 0 16 hvcurveto
          684 vlineto
          -81 -1 0 -37 hvcurveto
          endchar
        </CharString>
        <CharString name="Idotaccent">
          -201 21 -21 700 -20 90 122 hstem
          44 82 vstem
          42 832 rmoveto
          -47 -1 16 -15 25 hhcurveto
          30 16 24 40 42 -9 16 -31 -32 -14 -24 -36 hvcurveto
          2 -832 rmoveto
          80 2 0 16 hvcurveto
          684 vlineto
          -81 -1 0 -37 hvcurveto
          endchar
        </CharString>
        <CharString name="Iecy">
          -50 0 73 271 74 209 73 hstem
          45 80 vstem
          125 73 rmoveto
          271 136 vlineto
          15 0 13 61 hvcurveto
          -151 209 161 hlineto
          15 0 8 65 hvcurveto
          -240 hlineto
          -16 0 -16 0 hvcurveto
          -684 236 vlineto
          16 0 5 68 hvcurveto
          endchar
        </CharString>
        <CharString name="Iegravecy">
          -50 0 73 271 74 209 73 hstem
          45 80 vstem
          231 753 rmoveto
          19 12 45 0 hvcurveto
          53 -45 -81 65 -8 hhcurveto
          -19 -14 -37 -24 -4 hvcurveto
          16 -19 90 -64 34 -19 rrcurveto
          -106 -680 rmoveto
          271 136 vlineto
          15 0 13 61 hvcurveto
          -151 209 161 hlineto
          15 0 8 65 hvcurveto
          -240 hlineto
          -16 0 -16 0 hvcurveto
          -684 236 vlineto
          16 0 5 68 hvcurveto
          endchar
        </CharString>
        <CharString name="Igrave">
          -201 21 -21 700 -20 hstem
          44 82 vstem
          43 916 rmoveto
          -19 -15 -37 -24 -3 hvcurveto
          16 -19 89 -64 35 -19 rrcurveto
          18 13 45 0 hvcurveto
          53 -46 -80 65 -8 hhcurveto
          1 -916 rmoveto
          80 2 0 16 hvcurveto
          684 vlineto
          -81 -1 0 -37 hvcurveto
          endchar
        </CharString>
        <CharString name="Igravecy">
          78 21 -21 700 -20 hstem
          57 75 183 76 vstem
          187 916 rmoveto
          -19 -15 -37 -24 -4 hvcurveto
          16 -19 90 -64 35 -19 rrcurveto
          18 13 45 0 hvcurveto
          53 -46 -81 65 -7 hhcurveto
          45 -645 rmoveto
          44 112 31 84 20 78 rrcurveto
          -7 -84 -5 -100 -110 vvcurveto
          -251 vlineto
          72 4 0 16 hvcurveto
          684 vlineto
          -58 -7 1 -21 -8 hvcurveto
          -96 -264 -44 -112 -34 -82 -21 -72 rlinecurve
          7 85 2 51 72 vvcurveto
          342 vlineto
          -77 2 0 -16 hvcurveto
          -684 vlineto
          63 6 -1 21 7 hvcurveto
          endchar
        </CharString>
        <CharString name="Iicy">
          78 21 -21 700 -20 hstem
          57 75 183 76 vstem
          232 271 rmoveto
          44 112 31 84 20 78 rrcurveto
          -7 -84 -5 -100 -110 vvcurveto
          -251 vlineto
          72 4 0 16 hvcurveto
          684 vlineto
          -58 -7 1 -21 -8 hvcurveto
          -96 -264 -9 -23 -9 -22 -8 -21 rlinecurve
          -31 -79 -25 -63 -17 -58 rrcurveto
          7 85 2 51 72 vvcurveto
          342 vlineto
          -77 2 0 -16 hvcurveto
          -684 vlineto
          63 6 -1 21 7 hvcurveto
          endchar
        </CharString>
        <CharString name="Imacron">
          -201 21 -21 700 -20 107 76 hstem
          44 82 vstem
          188 787 rmoveto
          19 11 18 24 1 hvcurveto
          11 -2 11 -6 12 vhcurveto
          -227 hlineto
          -21 -12 -16 -23 -12 1 -11 5 -14 hvcurveto
          87 -787 rmoveto
          80 2 0 16 hvcurveto
          684 vlineto
          -81 -1 0 -37 hvcurveto
          endchar
        </CharString>
        <CharString name="Iocy">
          -50 0 73 271 74 209 73 hstem
          45 80 vstem
          108 772 rmoveto
          30 14 23 39 1 hvcurveto
          40 -10 15 -30 -30 -13 -22 -35 -1 vhcurveto
          -45 15 -14 24 -1 vhcurveto
          119 hmoveto
          29 15 23 39 40 -9 15 -29 -30 -15 -22 -35 -45 14 -14 25 -1 hvcurveto
          -102 -699 rmoveto
          271 136 vlineto
          15 0 13 61 hvcurveto
          -151 209 161 hlineto
          15 0 8 65 hvcurveto
          -240 hlineto
          -16 0 -16 0 hvcurveto
          -684 236 vlineto
          16 0 5 68 hvcurveto
          endchar
        </CharString>
        <CharString name="Iogonek">
          -201 -195 59 836 -20 hstem
          44 81 vstem
          125 700 rmoveto
          -80 -1 0 -37 hvcurveto
          -659 vlineto
          -28 -31 -27 -36 -51 vvcurveto
          -59 36 -22 49 32 26 10 23 8 -4 15 -6 10 vhcurveto
          -5 -8 -8 -2 -11 hhcurveto
          -24 -10 12 22 40 31 38 22 20 hvcurveto
          8 7 3 5 8 vvcurveto
          endchar
        </CharString>
        <CharString name="Iucy">
          237 -10 83 244 75 236 82 hstem
          57 77 76 89 183 89 vstem
          134 392 rmoveto
          308 vlineto
          -77 0 0 -16 hvcurveto
          -684 vlineto
          77 0 0 16 hvcurveto
          301 76 vlineto
          -260 4 51 -67 120 hhcurveto
          129 57 92 275 270 -50 83 -128 -118 -59 -82 -236 -5 hvcurveto
          88 -58 rmoveto
          217 27 77 66 70 20 -72 -201 -204 -24 -78 -71 -67 -21 74 187 vhcurveto
          endchar
        </CharString>
        <CharString name="J">
          -70 -9 72 637 -20 hstem
          174 82 vstem
          174 183 rmoveto
          -78 -6 -42 -59 -33 -31 15 18 -19 vhcurveto
          -5 -11 -7 -14 -21 vvcurveto
          -29 24 -30 81 110 27 75 99 vhcurveto
          535 vlineto
          -82 0 0 -37 hvcurveto
          endchar
        </CharString>
        <CharString name="Jecy">
          -70 -9 72 637 -20 hstem
          174 82 vstem
          174 183 rmoveto
          -78 -6 -42 -59 -33 -31 15 18 -19 vhcurveto
          -5 -11 -7 -14 -21 vvcurveto
          -29 24 -30 81 110 27 75 99 vhcurveto
          535 vlineto
          -82 0 0 -37 hvcurveto
          endchar
        </CharString>
        <CharString name="K">
          19 21 -21 701 -20 hstem
          42 82 vstem
          124 399 rmoveto
          301 vlineto
          -82 0 0 -16 hvcurveto
          -684 vlineto
          82 0 0 16 hvcurveto
          329 vlineto
          14 -6 15 -8 11 -13 57 -60 28 -100 29 -157 rrcurveto
          -2 20 19 -1 17 hhcurveto
          28 6 5 15 -1 hvcurveto
          -27 192 -55 128 -79 60 162 279 rcurveline
          2 4 1 3 2 vvcurveto
          10 -12 5 -24 -14 -18 -2 -4 -19 vhcurveto
          endchar
        </CharString>
        <CharString name="Kacy">
          37 21 -21 326 77 298 -20 hstem
          57 81 vstem
          239 480 rmoveto
          -52 -11 -27 -25 -26 hhcurveto
          -37 297 hlineto
          -81 0 0 -16 hvcurveto
          -684 vlineto
          81 0 0 16 hvcurveto
          310 32 vlineto
          38 34 -28 -102 12 hvcurveto
          30 -195 rlineto
          -2 19 18 -1 18 hhcurveto
          28 7 4 16 -2 hvcurveto
          -30 191 -11 79 -28 59 -46 26 rlinecurve
          26 15 23 31 12 48 53 210 rcurveline
          1 4 0 3 2 vvcurveto
          12 -8 3 -24 -14 -19 -2 -4 -19 vhcurveto
          endchar
        </CharString>
        <CharString name="Kadescendercy">
          56 -2 78 261 77 287 -20 hstem
          57 81 214 72 vstem
          239 491 rmoveto
          -52 -12 -26 -25 -26 hhcurveto
          -37 286 hlineto
          -81 0 0 -16 hvcurveto
          -684 vlineto
          81 0 0 16 hvcurveto
          321 32 vlineto
          38 36 -29 -102 11 hvcurveto
          29 -205 68 -3 2 -47 8 -53 13 -56 rlinecurve
          38 11 2 21 hvcurveto
          211 -56 vlineto
          -26 143 -10 80 -29 59 -46 25 rlinecurve
          26 15 22 32 13 47 53 200 rcurveline
          1 4 0 3 2 vvcurveto
          12 -8 3 -24 -14 -19 -2 -4 -19 vhcurveto
          endchar
        </CharString>
        <CharString name="Kcommaaccent">
          19 21 -21 701 -20 hstem
          42 82 43 81 vstem
          124 399 rmoveto
          301 vlineto
          -82 0 0 -16 hvcurveto
          -684 vlineto
          82 0 0 16 hvcurveto
          329 vlineto
          14 -6 15 -8 11 -13 57 -60 28 -100 29 -157 rrcurveto
          -2 20 19 -1 17 hhcurveto
          28 6 5 15 -1 hvcurveto
          -27 192 -55 128 -79 60 162 279 rcurveline
          16 8 -11 8 -30 hhcurveto
          -14 -18 -2 -4 -19 hvcurveto
          -90 -741 rmoveto
          -30 -20 -23 -29 -22 6 -16 17 -11 hvcurveto
          -2 -28 -4 -19 -23 -38 rrcurveto
          -17 5 12 -6 15 hhcurveto
          19 59 77 73 41 -19 18 -35 hvcurveto
          endchar
        </CharString>
        <CharString name="Kjecy">
          37 21 -21 326 77 298 -20 hstem
          57 81 vstem
          168 760 rmoveto
          35 19 90 64 16 18 rrcurveto
          24 -4 -15 37 -19 hhcurveto
          -7 -81 -65 -52 -46 hvcurveto
          0 13 -45 18 vhcurveto
          71 -280 rmoveto
          -52 -11 -27 -25 -26 hhcurveto
          -37 297 hlineto
          -81 0 0 -16 hvcurveto
          -684 vlineto
          81 0 0 16 hvcurveto
          310 32 vlineto
          38 34 -28 -102 12 hvcurveto
          30 -195 rlineto
          -2 19 18 -1 18 hhcurveto
          28 7 4 16 -2 hvcurveto
          -30 191 -11 79 -28 59 -46 26 rlinecurve
          26 15 23 31 12 48 53 210 rcurveline
          19 4 -5 5 -30 hhcurveto
          -14 -19 -2 -4 -19 hvcurveto
          endchar
        </CharString>
        <CharString name="L">
          -56 0 76 624 -20 hstem
          44 81 vstem
          125 76 rmoveto
          624 vlineto
          -80 -1 0 -23 hvcurveto
          -677 237 vlineto
          10 6 3 13 hvcurveto
          60 vlineto
          endchar
        </CharString>
        <CharString name="Lacute">
          -56 0 76 624 -20 hstem
          44 81 vstem
          71 760 rmoveto
          34 19 90 64 16 18 rrcurveto
          24 -4 -15 37 -18 hhcurveto
          -8 -81 -65 -52 -45 hvcurveto
          0 12 -45 19 vhcurveto
          54 -684 rmoveto
          624 vlineto
          -80 -1 0 -23 hvcurveto
          -677 237 vlineto
          10 6 3 13 hvcurveto
          60 vlineto
          endchar
        </CharString>
        <CharString name="Lcaron">
          -39 0 76 624 -20 hstem
          44 81 108 81 vstem
          125 76 rmoveto
          624 vlineto
          -80 -1 0 -23 hvcurveto
          -677 237 vlineto
          10 6 3 13 hvcurveto
          60 vlineto
          -88 546 rmoveto
          -22 7 -17 17 -10 vhcurveto
          -3 -28 -2 -30 -20 -38 rrcurveto
          -17 4 13 -6 14 hhcurveto
          19 56 88 73 40 -19 19 -35 -30 -21 -23 -29 hvcurveto
          endchar
        </CharString>
        <CharString name="Lcommaaccent">
          -56 0 76 624 -20 hstem
          44 81 vstem
          125 76 rmoveto
          624 vlineto
          -80 -1 0 -23 hvcurveto
          -677 237 vlineto
          10 6 3 13 hvcurveto
          60 vlineto
          -191 -174 rmoveto
          -22 7 -16 16 -11 vhcurveto
          -2 -28 -3 -19 -23 -38 rrcurveto
          -17 4 13 -6 15 hhcurveto
          18 60 77 73 41 -20 18 -35 -29 -21 -23 -29 hvcurveto
          endchar
        </CharString>
        <CharString name="Ldot">
          -35 0 76 192 114 318 -20 hstem
          44 81 vstem
          125 76 rmoveto
          624 vlineto
          -80 -1 0 -23 hvcurveto
          -677 237 vlineto
          10 6 3 13 hvcurveto
          60 vlineto
          -121 249 rmoveto
          -35 14 -22 41 35 21 25 32 34 -15 23 -41 -35 -20 -26 -31 vhcurveto
          endchar
        </CharString>
        <CharString name="Ljecy">
          240 0 71 268 76 209 76 hstem
          115 76 103 80 129 93 vstem
          374 415 rmoveto
          285 -188 vlineto
          -67 -3 -3 -21 -1 hvcurveto
          -22 -445 -12 -168 -83 -2 rrcurveto
          -1 -6 0 -6 -6 vvcurveto
          -34 20 -14 26 96 31 203 426 21 vhcurveto
          103 -624 125 hlineto
          108 69 85 150 123 -46 57 -120 hvcurveto
          -56 -76 rmoveto
          51 hlineto
          59 19 -27 -85 -111 -25 -45 -61 -16 -11 0 2 -16 hvcurveto
          endchar
        </CharString>
        <CharString name="Lslash">
          -43 0 76 624 -20 hstem
          56 82 vstem
          138 76 rmoveto
          261 vlineto
          90 25 rlineto
          7 1 3 6 0 9 0 12 -4 18 -6 26 50 flex
          -90 -24 rlineto
          290 vlineto
          -80 -2 0 -23 hvcurveto
          -289 vlineto
          -42 -12 rlineto
          -7 -2 -3 -6 0 -10 0 -11 4 -18 6 -26 50 flex
          42 12 rlineto
          -315 238 vlineto
          16 0 16 0 hvcurveto
          60 vlineto
          endchar
        </CharString>
        <CharString name="M">
          119 21 -21 700 -20 hstem
          44 79 241.5 80.5 vstem
          275 393 rmoveto
          -11 -37 -18 -71 0 vvcurveto
          0 -19 71 -13 40 vhcurveto
          -96 304 rlineto
          -58 hlineto
          -9 -7 -1 -15 hvcurveto
          -684 vlineto
          75 4 0 16 hvcurveto
          233 vlineto
          -3 105 -17 186 0 vvcurveto
          1 1 21 -77 36 -128 7 -21 rlinecurve
          52 -162 rlineto
          35 hlineto
          4 5 2 6 2 hvcurveto
          53 154 8 22 37 130 20 76 rlinecurve
          -2 -26 -14 -176 -2 -96 -3 -245 rcurveline
          82 0 0 16 hvcurveto
          684 -65 vlineto
          -11 -2 -7 -9 -3 hvcurveto
          endchar
        </CharString>
        <CharString name="N">
          74 21 -21 700 -20 hstem
          44 80 196 81 vstem
          320 448 rmoveto
          -46 3 -194 7 -59 vhcurveto
          -2 vlineto
          -25 75 -51 157 -20 51 -113 270 rcurveline
          -61 hlineto
          -11 -5 -5 -11 hvcurveto
          -684 vlineto
          79 1 0 16 hvcurveto
          243 vlineto
          42 -4 193 -6 65 vhcurveto
          25 -78 53 -161 17 -45 115 -275 rcurveline
          60 hlineto
          11 6 6 10 hvcurveto
          684 vlineto
          -79 -2 0 -16 hvcurveto
          endchar
        </CharString>
        <CharString name="Nacute">
          74 21 -21 700 -20 hstem
          44 80 196 81 vstem
          174 760 rmoveto
          34 19 90 64 16 18 rrcurveto
          24 -4 -14 37 -19 hhcurveto
          -8 -81 -65 -52 -45 hvcurveto
          0 13 -45 18 vhcurveto
          146 -312 rmoveto
          -46 3 -194 7 -59 vhcurveto
          -2 vlineto
          -25 75 -51 157 -20 51 -113 270 rcurveline
          -61 hlineto
          -11 -5 -5 -11 hvcurveto
          -684 vlineto
          79 1 0 16 hvcurveto
          243 vlineto
          42 -4 193 -6 65 vhcurveto
          25 -78 53 -161 17 -45 115 -275 rcurveline
          60 hlineto
          11 6 6 10 hvcurveto
          684 vlineto
          -79 -2 0 -16 hvcurveto
          endchar
        </CharString>
        <CharString name="Ncaron">
          74 21 -21 700 -20 hstem
          44 80 196 81 vstem
          229 757 rmoveto
          16 94 104 19 13 -12 13 -20 11 hvcurveto
          0 -39 -32 -37 -52 vhcurveto
          0 -71 86 -18 -13 -17 -30 -21 -7 vhcurveto
          -20 14 90 -91 20 hhcurveto
          91 -309 rmoveto
          -46 3 -194 7 -59 vhcurveto
          -2 vlineto
          -25 75 -51 157 -20 51 -113 270 rcurveline
          -61 hlineto
          -11 -5 -5 -11 hvcurveto
          -684 vlineto
          79 1 0 16 hvcurveto
          243 vlineto
          42 -4 193 -6 65 vhcurveto
          25 -78 53 -161 17 -45 115 -275 rcurveline
          60 hlineto
          11 6 6 10 hvcurveto
          684 vlineto
          -79 -2 0 -16 hvcurveto
          endchar
        </CharString>
        <CharString name="Ncommaaccent">
          74 21 -21 700 -20 hstem
          44 80 196 81 vstem
          320 448 rmoveto
          -46 3 -194 7 -59 vhcurveto
          -2 vlineto
          -25 75 -51 157 -20 51 -113 270 rcurveline
          -61 hlineto
          -11 -5 -5 -11 hvcurveto
          -684 vlineto
          79 1 0 16 hvcurveto
          243 vlineto
          42 -4 193 -6 65 vhcurveto
          25 -78 53 -161 17 -45 115 -275 rcurveline
          60 hlineto
          11 6 6 10 hvcurveto
          684 vlineto
          -79 -2 0 -16 hvcurveto
          -99 -730 rmoveto
          -29 -21 -23 -29 -22 6 -16 17 -11 hvcurveto
          -2 -28 -3 -19 -23 -38 rrcurveto
          -17 4 13 -6 15 hhcurveto
          18 60 77 73 41 -20 18 -35 hvcurveto
          endchar
        </CharString>
        <CharString name="Njecy">
          244 0 71 268 76 285 -20 hstem
          57 80 160 81 128 94 vstem
          378 415 rmoveto
          285 vlineto
          -81 0 0 -16 hvcurveto
          -269 -160 285 vlineto
          -81 1 0 -16 hvcurveto
          -684 vlineto
          81 -1 0 16 hvcurveto
          323 160 -339 126 vlineto
          108 69 85 150 123 -46 57 -120 hvcurveto
          -56 -76 rmoveto
          51 hlineto
          59 18 -27 -85 -111 -24 -45 -61 -17 -13 1 1 -13 hvcurveto
          endchar
        </CharString>
        <CharString name="Ntilde">
          74 21 -21 700 -20 83 76 hstem
          44 80 196 81 vstem
          115 772 rmoveto
          13 11 39 35 37 -4 -48 54 hhcurveto
          61 42 60 10 5 hvcurveto
          0 -12 45 -16 vhcurveto
          -16 -2 -39 -48 -40 -3 48 -44 hhcurveto
          -35 -44 -19 -56 -34 hvcurveto
          0 18 -40 22 vhcurveto
          205 -324 rmoveto
          -46 3 -194 7 -59 vhcurveto
          -2 vlineto
          -25 75 -51 157 -20 51 -113 270 rcurveline
          -61 hlineto
          -11 -5 -5 -11 hvcurveto
          -684 vlineto
          79 1 0 16 hvcurveto
          243 vlineto
          42 -4 193 -6 65 vhcurveto
          25 -78 53 -161 17 -45 115 -275 rcurveline
          60 hlineto
          11 6 6 10 hvcurveto
          684 vlineto
          -79 -2 0 -16 hvcurveto
          endchar
        </CharString>
        <CharString name="O">
          59 -10 83 554 83 hstem
          30 91 191 87 vstem
          30 354 rmoveto
          -288 51 -76 130 131 57 92 275 270 -48 83 -129 -130 -62 -90 -266 vhcurveto
          91 -20 rmoveto
          217 28 76 71 72 20 -71 -201 -204 -25 -78 -73 -72 -21 74 187 vhcurveto
          endchar
        </CharString>
        <CharString name="OE">
          222 0 73 271 74 209 73 hstem
          27 90 188 91 vstem
          396 73 rmoveto
          271 137 vlineto
          15 0 13 61 hvcurveto
          -152 209 161 hlineto
          15 0 8 65 hvcurveto
          -227 hlineto
          -15 -1 -16 0 hvcurveto
          -16 vlineto
          29 -27 -37 12 -49 hhcurveto
          -129 -60 -94 -262 -284 51 -78 130 52 40 15 35 29 hvcurveto
          -41 224 vlineto
          15 0 5 68 hvcurveto
          -357 -3 rmoveto
          -72 -22 77 187 217 29 82 70 73 16 -77 -201 -204 -21 -81 -73 hvcurveto
          endchar
        </CharString>
        <CharString name="Oacute">
          59 -10 83 554 83 hstem
          30 91 191 87 vstem
          167 760 rmoveto
          34 19 90 64 16 18 rrcurveto
          24 -4 -14 37 -19 hhcurveto
          -8 -81 -65 -52 -45 hvcurveto
          0 12 -45 19 vhcurveto
          -137 -406 rmoveto
          -288 51 -76 130 131 57 92 275 270 -48 83 -129 -130 -62 -90 -266 vhcurveto
          91 -20 rmoveto
          217 28 76 71 72 20 -71 -201 -204 -25 -78 -73 -72 -21 74 187 vhcurveto
          endchar
        </CharString>
        <CharString name="Ocircumflex">
          59 -10 83 554 83 hstem
          30 91 191 87 vstem
          88 785 rmoveto
          -13 11 17 -10 28 hhcurveto
          17 58 76 0 hvcurveto
          13 -24 53 -53 0 vvcurveto
          28 29 9 14 16 -97 99 0 hvcurveto
          8 -8 -9 4 -8 hhcurveto
          -7 -5 -1 -2 -5 hvcurveto
          -173 -554 rmoveto
          -288 51 -76 130 131 57 92 275 270 -48 83 -129 -130 -62 -90 -266 vhcurveto
          91 -20 rmoveto
          217 28 76 71 72 20 -71 -201 -204 -25 -78 -73 -72 -21 74 187 vhcurveto
          endchar
        </CharString>
        <CharString name="Ocy">
          72 -10 83 554 83 hstem
          36 91 191 88 vstem
          36 354 rmoveto
          -288 52 -76 129 132 57 92 275 270 -48 83 -130 -129 -63 -90 -266 vhcurveto
          91 -20 rmoveto
          217 29 76 71 71 20 -71 -201 -204 -25 -78 -72 -72 -22 74 187 vhcurveto
          endchar
        </CharString>
        <CharString name="Odieresis">
          59 -10 83 554 83 hstem
          30 91 191 87 vstem
          30 354 rmoveto
          -288 51 -76 130 131 57 92 275 270 -48 83 -129 -130 -62 -90 -266 vhcurveto
          91 -20 rmoveto
          217 28 76 71 72 20 -71 -201 -204 -25 -78 -73 -72 -21 74 187 vhcurveto
          37 555 rmoveto
          -30 -13 -22 -35 -1 hvcurveto
          -45 15 -14 24 -1 vhcurveto
          30 14 23 39 1 hvcurveto
          40 -10 15 -30 vhcurveto
          120 hmoveto
          -30 -15 -22 -35 -45 14 -14 25 -1 hvcurveto
          29 15 23 39 40 -9 15 -29 hvcurveto
          endchar
        </CharString>
        <CharString name="Ograve">
          59 -10 83 554 83 hstem
          30 91 191 87 vstem
          173 916 rmoveto
          -19 -14 -37 -24 -4 hvcurveto
          16 -19 90 -64 34 -19 rrcurveto
          19 12 45 0 hvcurveto
          53 -45 -81 65 -8 hhcurveto
          -143 -562 rmoveto
          -288 51 -76 130 131 57 92 275 270 -48 83 -129 -130 -62 -90 -266 vhcurveto
          91 -20 rmoveto
          217 28 76 71 72 20 -71 -201 -204 -25 -78 -73 -72 -21 74 187 vhcurveto
          endchar
        </CharString>
        <CharString name="Ohm">
          66 0 76 549 85 hstem
          39 82 195 82 vstem
          372 hmoveto
          20 8 21 18 14 -4 13 -4 10 hvcurveto
          -70 hlineto
          31 39 45 106 167 vvcurveto
          228 -42 94 -125 -135 -57 -99 -226 -158 43 -105 31 -46 vhcurveto
          -51 hlineto
          -21 -5 -24 -16 -13 3 -15 3 -8 hvcurveto
          150 hlineto
          -35 78 -36 141 153 vvcurveto
          202 35 51 65 65 30 -72 -204 -150 -39 -118 -34 -81 vhcurveto
          endchar
        </CharString>
        <CharString name="Ohungarumlaut">
          59 -10 83 554 83 hstem
          30 91 191 87 vstem
          30 354 rmoveto
          -288 51 -76 130 131 57 92 275 270 -48 83 -129 -130 -62 -90 -266 vhcurveto
          91 -20 rmoveto
          217 28 76 71 72 20 -71 -201 -204 -25 -78 -73 -72 -21 74 187 vhcurveto
          69 586 rmoveto
          -7 -3 -56 -75 -28 -55 rrcurveto
          0 25 -39 18 5 vhcurveto
          26 24 64 75 10 20 -10 21 -23 32 -19 -5 rrcurveto
          126 hmoveto
          -8 -3 -55 -75 -28 -55 rrcurveto
          0 24 -39 19 5 vhcurveto
          26 24 64 75 10 20 -11 21 -23 32 -18 -5 rrcurveto
          endchar
        </CharString>
        <CharString name="Omacron">
          59 -10 83 554 83 77 76 hstem
          30 91 191 87 vstem
          318 787 rmoveto
          19 12 18 24 11 -2 11 -6 12 hvcurveto
          -227 hlineto
          -20 -12 -16 -23 -1 hvcurveto
          -12 1 -11 5 -14 vhcurveto
          -57 -433 rmoveto
          -288 51 -76 130 131 57 92 275 270 -48 83 -129 -130 -62 -90 -266 vhcurveto
          91 -20 rmoveto
          217 28 76 71 72 20 -71 -201 -204 -25 -78 -73 -72 -21 74 187 vhcurveto
          endchar
        </CharString>
        <CharString name="Omega">
          66 0 76 549 85 hstem
          39 82 195 82 vstem
          372 hmoveto
          20 8 21 18 14 -4 13 -4 10 hvcurveto
          -70 hlineto
          31 39 45 106 167 vvcurveto
          228 -42 94 -125 -135 -57 -99 -226 -158 43 -105 31 -46 vhcurveto
          -51 hlineto
          -21 -5 -24 -16 -13 3 -15 3 -8 hvcurveto
          150 hlineto
          -35 78 -36 141 153 vvcurveto
          202 35 51 65 65 30 -72 -204 -150 -39 -118 -34 -81 vhcurveto
          endchar
        </CharString>
        <CharString name="Oslash">
          66 -10 83 555 82 hstem
          33 91 191 88 vstem
          414 694 rmoveto
          -4 21 -47 4 0 vvcurveto
          -3 -6 -9 -23 -10 -26 rrcurveto
          33 -28 -39 13 -52 hhcurveto
          -129 -60 -90 -266 -114 8 -81 18 -56 hvcurveto
          -13 -31 -23 -58 1 -5 rrcurveto
          -17 3 31 -8 15 hhcurveto
          2 5 10 22 9 24 rrcurveto
          -33 29 39 -12 52 hhcurveto
          131 58 92 275 99 -7 74 -15 54 hvcurveto
          13 38 22 64 -2 8 rrcurveto
          -283 -518 rmoveto
          -5 40 -2 52 66 vvcurveto
          217 28 77 70 26 19 -9 -20 14 vhcurveto
          -70 -526 rmoveto
          -23 -18 8 17 -13 hvcurveto
          29 79 77 213 44 127 rrcurveto
          6 -40 2 -54 -68 vvcurveto
          -239 -38 -43 -66 vhcurveto
          endchar
        </CharString>
        <CharString name="Otilde">
          59 -10 83 554 83 53 76 hstem
          30 91 191 87 vstem
          68 812 rmoveto
          0 17 -40 23 vhcurveto
          13 11 39 35 36 -3 -48 54 hhcurveto
          61 42 60 10 5 hvcurveto
          0 -12 45 -16 vhcurveto
          -16 -2 -39 -48 -40 -3 48 -44 hhcurveto
          -35 -44 -19 -56 -34 hvcurveto
          -38 -458 rmoveto
          -288 51 -76 130 131 57 92 275 270 -48 83 -129 -130 -62 -90 -266 vhcurveto
          91 -20 rmoveto
          217 28 76 71 72 20 -71 -201 -204 -25 -78 -73 -72 -21 74 187 vhcurveto
          endchar
        </CharString>
        <CharString name="P">
          -9 21 -21 284 75 270 71 hstem
          44 80 130 89 vstem
          60 700 rmoveto
          -13 -3 -5 -11 hvcurveto
          -684 vlineto
          79 1 0 16 hvcurveto
          268 36 vlineto
          99 84 54 165 138 -58 59 -126 hvcurveto
          -35 -341 rmoveto
          270 50 vlineto
          60 20 -46 -71 -112 -29 -41 -57 hvcurveto
          endchar
        </CharString>
        <CharString name="Pecy">
          54 21 -21 624 76 hstem
          57 80 150 81 vstem
          137 624 rmoveto
          150 -624 hlineto
          80 1 0 16 hvcurveto
          684 -231 vlineto
          -79 -1 0 -16 hvcurveto
          -684 vlineto
          79 1 0 16 hvcurveto
          endchar
        </CharString>
        <CharString name="Pi">
          54 21 -21 624 76 hstem
          57 80 150 81 vstem
          137 624 rmoveto
          150 -624 hlineto
          80 1 0 16 hvcurveto
          684 -231 vlineto
          -79 -1 0 -16 hvcurveto
          -684 vlineto
          79 1 0 16 hvcurveto
          endchar
        </CharString>
        <CharString name="Q">
          59 -137 67 697 83 hstem
          30 91 191 87 vstem
          398 -53 rmoveto
          -13 -20 -22 -4 -21 hhcurveto
          -30 -14 19 53 -9 hvcurveto
          81 33 36 103 219 vvcurveto
          270 -48 83 -129 -130 -62 -90 -266 -272 46 -83 114 -8 vhcurveto
          -90 23 39 -38 68 hhcurveto
          34 56 8 32 12 -4 20 -8 12 hvcurveto
          -277 387 rmoveto
          217 28 76 71 72 20 -71 -201 -204 -25 -78 -73 -72 -21 74 187 vhcurveto
          endchar
        </CharString>
        <CharString name="R">
          2 21 -21 284 75 270 71 hstem
          44 80 130 89 vstem
          60 700 rmoveto
          -16 0 -16 0 hvcurveto
          -684 vlineto
          79 1 0 16 hvcurveto
          268 36 vlineto
          19 1 25 -32 47 -84 11 -169 rlinecurve
          -1 18 16 -1 13 hhcurveto
          38 3 5 15 hvcurveto
          -10 154 -52 92 -32 43 rrcurveto
          52 29 35 60 107 vvcurveto
          138 -58 59 -126 vhcurveto
          -35 -341 rmoveto
          270 50 vlineto
          60 20 -46 -77 -106 -29 -41 -57 hvcurveto
          endchar
        </CharString>
        <CharString name="Racute">
          2 21 -21 284 75 270 71 hstem
          44 80 130 89 vstem
          119 760 rmoveto
          34 19 90 64 16 18 rrcurveto
          24 -4 -15 37 -19 hhcurveto
          -7 -81 -65 -52 -46 hvcurveto
          0 13 -45 19 vhcurveto
          -59 -60 rmoveto
          -16 0 -16 0 hvcurveto
          -684 vlineto
          79 1 0 16 hvcurveto
          268 36 vlineto
          19 1 25 -32 47 -84 11 -169 rlinecurve
          -1 18 16 -1 13 hhcurveto
          38 3 5 15 hvcurveto
          -10 154 -52 92 -32 43 rrcurveto
          52 29 35 60 107 vvcurveto
          138 -58 59 -126 vhcurveto
          -35 -341 rmoveto
          270 50 vlineto
          60 20 -46 -77 -106 -29 -41 -57 hvcurveto
          endchar
        </CharString>
        <CharString name="Rcaron">
          2 21 -21 284 75 270 71 hstem
          44 80 130 89 vstem
          173 757 rmoveto
          16 95 104 19 13 -13 13 -20 11 hvcurveto
          0 -38 -32 -37 -52 vhcurveto
          0 -72 86 -17 -14 -17 -30 -21 -7 vhcurveto
          -20 14 91 -91 19 hhcurveto
          -113 -57 rmoveto
          -16 0 -16 0 hvcurveto
          -684 vlineto
          79 1 0 16 hvcurveto
          268 36 vlineto
          19 1 25 -32 47 -84 11 -169 rlinecurve
          -1 18 16 -1 13 hhcurveto
          38 3 5 15 hvcurveto
          -10 154 -52 92 -32 43 rrcurveto
          52 29 35 60 107 vvcurveto
          138 -58 59 -126 vhcurveto
          -35 -341 rmoveto
          270 50 vlineto
          60 20 -46 -77 -106 -29 -41 -57 hvcurveto
          endchar
        </CharString>
        <CharString name="Rcommaaccent">
          2 21 -21 284 75 270 71 hstem
          44 80 35 81 vstem
          60 700 rmoveto
          -16 0 -16 0 hvcurveto
          -684 vlineto
          79 1 0 16 hvcurveto
          268 36 vlineto
          19 1 25 -32 47 -84 11 -169 rlinecurve
          -1 18 16 -1 13 hhcurveto
          38 3 5 15 hvcurveto
          -10 154 -52 92 -32 43 rrcurveto
          52 29 35 60 107 vvcurveto
          138 -58 59 -126 vhcurveto
          -35 -341 rmoveto
          270 50 vlineto
          60 20 -46 -77 -106 -29 -41 -57 hvcurveto
          18 -405 rmoveto
          -30 -21 -23 -29 -22 7 -16 17 -11 hvcurveto
          -2 -28 -4 -19 -23 -38 rrcurveto
          -17 5 12 -6 15 hhcurveto
          18 60 77 73 41 -19 18 -35 hvcurveto
          endchar
        </CharString>
        <CharString name="S">
          -12 -10 82 566 72 hstem
          26 87 135 87 vstem
          189 306 rmoveto
          45 -52 14 -33 -47 vvcurveto
          -61 -27 -41 -72 -48 -34 16 19 -21 vhcurveto
          -14 -18 -7 -23 -17 vvcurveto
          -27 41 -32 91 135 43 86 102 62 -15 45 -52 62 vhcurveto
          -109 123 rlineto
          -29 36 -17 26 37 vvcurveto
          44 38 25 60 46 39 -13 -11 13 vhcurveto
          14 15 6 17 14 vvcurveto
          28 -36 22 -95 -111 -61 -59 -84 -48 17 -41 46 -55 vhcurveto
          endchar
        </CharString>
        <CharString name="Sacute">
          -12 -10 82 566 72 hstem
          26 87 135 87 vstem
          131 760 rmoveto
          34 19 90 64 16 18 rrcurveto
          24 -4 -14 37 -19 hhcurveto
          -8 -81 -65 -52 -45 hvcurveto
          0 13 -45 18 vhcurveto
          58 -454 rmoveto
          45 -52 14 -33 -47 vvcurveto
          -61 -27 -41 -72 -48 -34 16 19 -21 vhcurveto
          -14 -18 -7 -23 -17 vvcurveto
          -27 41 -32 91 135 43 86 102 62 -15 45 -52 62 vhcurveto
          -109 123 rlineto
          -29 36 -17 26 37 vvcurveto
          44 38 25 60 46 39 -13 -11 13 vhcurveto
          14 15 6 17 14 vvcurveto
          28 -36 22 -95 -111 -61 -59 -84 -48 17 -41 46 -55 vhcurveto
          endchar
        </CharString>
        <CharString name="Scaron">
          -12 -10 82 566 72 hstem
          26 87 135 87 vstem
          186 757 rmoveto
          16 94 104 19 13 -12 13 -20 11 hvcurveto
          0 -39 -32 -37 -52 vhcurveto
          0 -71 86 -18 -13 -17 -30 -21 -7 vhcurveto
          -20 14 90 -91 20 hhcurveto
          3 -451 rmoveto
          45 -52 14 -33 -47 vvcurveto
          -61 -27 -41 -72 -48 -34 16 19 -21 vhcurveto
          -14 -18 -7 -23 -17 vvcurveto
          -27 41 -32 91 135 43 86 102 62 -15 45 -52 62 vhcurveto
          -109 123 rlineto
          -29 36 -17 26 37 vvcurveto
          44 38 25 60 46 39 -13 -11 13 vhcurveto
          14 15 6 17 14 vvcurveto
          28 -36 22 -95 -111 -61 -59 -84 -48 17 -41 46 -55 vhcurveto
          endchar
        </CharString>
        <CharString name="Scedilla">
          -12 -172 -21 98 37 48 82 566 72 hstem
          26 87 135 87 vstem
          159 470 rmoveto
          -29 36 -17 26 37 vvcurveto
          44 38 25 60 46 39 -13 -11 13 vhcurveto
          14 15 6 17 14 vvcurveto
          28 -36 22 -95 -111 -61 -59 -84 -48 17 -41 46 -55 vhcurveto
          100 -117 rlineto
          45 -52 14 -33 -47 vvcurveto
          -61 -27 -41 -72 -48 -34 16 19 -21 vhcurveto
          -14 -18 -7 -23 -17 vvcurveto
          -26 38 -31 86 -2 vhcurveto
          -17 -91 rlineto
          0 16 6 25 19 11 -9 -25 -21 -10 -13 -21 -22 -16 17 -6 -7 vhcurveto
          -6 -7 -7 -34 0 vvcurveto
          0 25 -13 31 46 34 32 52 46 -25 18 -24 -12 -4 0 -1 -1 vhcurveto
          10 51 rlineto
          106 15 35 79 92 vvcurveto
          62 -15 45 -52 62 vhcurveto
          endchar
        </CharString>
        <CharString name="Scommaaccent">
          -12 -10 82 566 72 hstem
          26 87 135 87 vstem
          189 306 rmoveto
          45 -52 14 -33 -47 vvcurveto
          -61 -27 -41 -72 -48 -34 16 19 -21 vhcurveto
          -14 -18 -7 -23 -17 vvcurveto
          -27 41 -32 91 135 43 86 102 62 -15 45 -52 62 vhcurveto
          -109 123 rlineto
          -29 36 -17 26 37 vvcurveto
          44 38 25 60 46 39 -13 -11 13 vhcurveto
          14 15 6 17 14 vvcurveto
          28 -36 22 -95 -111 -61 -59 -84 -48 17 -41 46 -55 vhcurveto
          39 -521 rmoveto
          -22 6 -16 17 -11 vhcurveto
          -2 -28 -4 -19 -22 -38 rrcurveto
          -17 4 13 -6 14 hhcurveto
          19 60 77 73 41 -20 18 -35 -29 -21 -23 -29 hvcurveto
          endchar
        </CharString>
        <CharString name="Shacy">
          223 0 76 624 -20 hstem
          57 80 119 81 119 80 vstem
          57 hmoveto
          389 hlineto
          86 4 0 39 hvcurveto
          661 vlineto
          -81 1 0 -16 hvcurveto
          -608 -119 624 vlineto
          -82 1 0 -16 hvcurveto
          -608 -119 624 vlineto
          -81 1 0 -16 hvcurveto
          endchar
        </CharString>
        <CharString name="Shchacy">
          236 0 76 624 -20 hstem
          57 80 119 81 119 80 vstem
          587 76 rmoveto
          -51 624 hlineto
          -81 1 0 -16 hvcurveto
          -608 -119 624 vlineto
          -82 1 0 -16 hvcurveto
          -608 -119 624 vlineto
          -81 1 0 -16 hvcurveto
          -684 458 vlineto
          2 -48 9 -53 12 -57 rrcurveto
          38 11 2 21 hvcurveto
          endchar
        </CharString>
        <CharString name="ShortIcy">
          78 21 -21 700 -20 89 55 hstem
          57 75 183 76 vstem
          142 913 rmoveto
          -34 -9 -17 -13 -21 vvcurveto
          -48 5 44 -53 81 hhcurveto
          83 31 41 63 25 hvcurveto
          -6 24 -48 25 -6 -21 rrcurveto
          -49 -14 -14 -28 -48 hhcurveto
          -52 -18 36 53 -12 hvcurveto
          90 -642 rmoveto
          44 112 31 84 20 78 rrcurveto
          -7 -84 -5 -100 -110 vvcurveto
          -251 vlineto
          72 4 0 16 hvcurveto
          684 vlineto
          -58 -7 1 -21 -8 hvcurveto
          -96 -264 -44 -112 -34 -82 -21 -72 rlinecurve
          7 85 2 51 72 vvcurveto
          342 vlineto
          -77 2 0 -16 hvcurveto
          -684 vlineto
          63 6 -1 21 7 hvcurveto
          endchar
        </CharString>
        <CharString name="Softsigncy">
          9 0 71 268 76 285 -20 hstem
          57 80 129 93 vstem
          137 415 rmoveto
          285 vlineto
          -80 0 0 -18 hvcurveto
          -682 125 vlineto
          108 69 85 150 123 -46 57 -120 hvcurveto
          -56 -76 rmoveto
          51 hlineto
          59 19 -27 -85 -111 -25 -45 -61 -12 -24 1 1 -7 hvcurveto
          endchar
        </CharString>
        <CharString name="T">
          3 21 -21 624 76 hstem
          144 81 vstem
          25 700 rmoveto
          -12 -5 -5 -11 hvcurveto
          -60 136 -624 vlineto
          79 2 0 16 hvcurveto
          608 123 vlineto
          12 5 4 13 hvcurveto
          59 vlineto
          endchar
        </CharString>
        <CharString name="Tcaron">
          3 21 -21 624 76 hstem
          144 81 vstem
          193 757 rmoveto
          16 95 104 19 13 -13 13 -20 11 hvcurveto
          0 -38 -32 -37 -52 vhcurveto
          0 -72 86 -17 -14 -17 -30 -21 -7 vhcurveto
          -20 14 90 -91 20 hhcurveto
          -168 -57 rmoveto
          -12 -5 -5 -11 hvcurveto
          -60 136 -624 vlineto
          79 2 0 16 hvcurveto
          608 123 vlineto
          12 5 4 13 hvcurveto
          59 vlineto
          endchar
        </CharString>
        <CharString name="Tcedilla">
          3 -172 -21 98 37 79 -21 624 76 hstem
          144 81 vstem
          25 700 rmoveto
          -12 -5 -5 -11 hvcurveto
          -60 136 -624 13 vlineto
          -19 -101 rlineto
          0 16 6 26 19 11 -9 -25 -21 -10 -13 -22 -21 -17 17 -6 -6 vhcurveto
          -7 -7 -6 -34 0 vvcurveto
          0 25 -13 31 46 34 32 52 46 -25 18 -25 -12 -4 0 -1 -1 vhcurveto
          12 60 rlineto
          22 1 1 4 10 vvcurveto
          608 123 vlineto
          12 5 4 13 hvcurveto
          59 vlineto
          endchar
        </CharString>
        <CharString name="Tcommaaccent">
          3 21 -21 624 76 hstem
          144 81 vstem
          25 700 rmoveto
          -12 -5 -5 -11 hvcurveto
          -60 136 -624 vlineto
          79 2 0 16 hvcurveto
          608 123 vlineto
          12 5 4 13 hvcurveto
          59 vlineto
          -180 -746 rmoveto
          -30 -21 -23 -29 -22 7 -16 17 -11 hvcurveto
          -3 -28 -3 -19 -23 -38 rrcurveto
          -17 4 13 -6 15 hhcurveto
          18 60 77 73 41 -20 18 -34 hvcurveto
          endchar
        </CharString>
        <CharString name="Tecy">
          3 21 -21 624 76 hstem
          144 81 vstem
          25 700 rmoveto
          -12 -5 -5 -11 hvcurveto
          -60 136 -624 vlineto
          79 2 0 16 hvcurveto
          608 123 vlineto
          12 5 4 13 hvcurveto
          59 vlineto
          endchar
        </CharString>
        <CharString name="Thorn">
          -9 21 -21 150 75 270 71 134 -20 hstem
          44 80 130 89 vstem
          124 566 rmoveto
          134 -26 vlineto
          -43 -11 -2 -18 hvcurveto
          -680 vlineto
          76 4 0 16 hvcurveto
          134 36 vlineto
          99 84 54 165 138 -58 59 -126 hvcurveto
          -35 -72 rmoveto
          6 16 1 28 hhcurveto
          60 20 -46 -71 -112 -29 -41 -57 hvcurveto
          -7 -29 2 -8 hhcurveto
          endchar
        </CharString>
        <CharString name="Tsecy">
          70 0 76 624 -20 hstem
          57 80 153 80 vstem
          421 76 rmoveto
          -51 624 hlineto
          -79 -1 0 -16 hvcurveto
          -608 -153 624 vlineto
          -79 -1 0 -16 hvcurveto
          -684 292 vlineto
          2 -48 9 -53 12 -57 rrcurveto
          38 11 2 21 hvcurveto
          endchar
        </CharString>
        <CharString name="Tshecy">
          109 21 -21 440 70 114 76 hstem
          141 80 136 83 vstem
          221 624 rmoveto
          124 hlineto
          12 4 4 13 hvcurveto
          59 -336 vlineto
          -12 -5 -5 -11 hvcurveto
          -60 133 -624 vlineto
          79 1 0 16 hvcurveto
          406 vlineto
          12 22 32 6 22 hhcurveto
          50 10 -24 -64 hvcurveto
          -352 vlineto
          81 2 0 16 hvcurveto
          360 vlineto
          97 -35 37 -105 -27 -26 -4 -8 -26 vhcurveto
          endchar
        </CharString>
        <CharString name="U">
          67 -10 75 635 -20 hstem
          44 83 185 82 vstem
          127 700 rmoveto
          -83 0 0 -17 hvcurveto
          -478 vlineto
          -116 19 -99 161 78 67 20 16 25 vhcurveto
          674 vlineto
          -81 -1 0 -17 hvcurveto
          -601 vlineto
          -9 -17 -36 -8 -35 hhcurveto
          -85 -12 56 81 hvcurveto
          endchar
        </CharString>
        <CharString name="Uacute">
          67 -10 75 635 -20 hstem
          44 83 185 82 vstem
          171 760 rmoveto
          34 19 90 64 16 18 rrcurveto
          24 -4 -14 37 -19 hhcurveto
          -8 -81 -65 -52 -45 hvcurveto
          0 12 -45 19 vhcurveto
          -44 -60 rmoveto
          -83 0 0 -17 hvcurveto
          -478 vlineto
          -116 19 -99 161 78 67 20 16 25 vhcurveto
          674 vlineto
          -81 -1 0 -17 hvcurveto
          -601 vlineto
          -9 -17 -36 -8 -35 hhcurveto
          -85 -12 56 81 hvcurveto
          endchar
        </CharString>
        <CharString name="Ucircumflex">
          67 -10 75 635 -20 219 12 hstem
          44 83 185 82 vstem
          92 785 rmoveto
          -13 11 17 -10 28 hhcurveto
          17 58 76 0 hvcurveto
          12 -24 54 -53 0 vvcurveto
          28 29 9 14 16 -98 99 0 hvcurveto
          8 -7 -10 4 -7 hhcurveto
          -7 -6 -1 -2 -4 hvcurveto
          -80 -208 rmoveto
          -83 0 0 -17 hvcurveto
          -478 vlineto
          -116 19 -99 161 78 67 20 16 25 vhcurveto
          674 vlineto
          -81 -1 0 -17 hvcurveto
          -601 vlineto
          -9 -17 -36 -8 -35 hhcurveto
          -85 -12 56 81 hvcurveto
          endchar
        </CharString>
        <CharString name="Ucy">
          6 -4 72 632 -20 hstem
          13 356 vstem
          369 700 rmoveto
          -57 hlineto
          -20 -4 -9 -19 -4 hvcurveto
          -50 -218 -20 -91 -13 -73 -6 -59 rlinecurve
          -9 59 -10 74 -23 94 -62 242 rcurveline
          -57 hlineto
          -15 -6 -2 -10 -6 2 -8 4 -16 hvcurveto
          35 -140 81 -306 27 -79 rrcurveto
          -43 -9 -8 -22 -24 hhcurveto
          -16 -21 8 11 -18 hvcurveto
          -9 -19 -4 -16 -10 vvcurveto
          -30 32 -16 41 79 13 56 86 20 vhcurveto
          endchar
        </CharString>
        <CharString name="Udieresis">
          67 -10 75 635 -20 92 117 hstem
          44 83 185 82 vstem
          162 889 rmoveto
          -30 -13 -22 -35 -1 hvcurveto
          -45 15 -14 24 -1 vhcurveto
          29 15 23 39 hvcurveto
          40 1 -10 15 -30 hhcurveto
          119 hmoveto
          -29 -15 -22 -35 hvcurveto
          -1 -45 15 -14 25 -1 rrcurveto
          29 15 23 39 40 -9 15 -30 hvcurveto
          -154 -189 rmoveto
          -83 0 0 -17 hvcurveto
          -478 vlineto
          -116 19 -99 161 78 67 20 16 25 vhcurveto
          674 vlineto
          -81 -1 0 -17 hvcurveto
          -601 vlineto
          -9 -17 -36 -8 -35 hhcurveto
          -85 -12 56 81 hvcurveto
          endchar
        </CharString>
        <CharString name="Ugrave">
          67 -10 75 635 -20 hstem
          44 83 185 82 vstem
          177 916 rmoveto
          -19 -14 -37 -24 -4 hvcurveto
          16 -19 89 -64 35 -19 rrcurveto
          18 13 45 0 hvcurveto
          53 -46 -80 65 -8 hhcurveto
          -50 -216 rmoveto
          -83 0 0 -17 hvcurveto
          -478 vlineto
          -116 19 -99 161 78 67 20 16 25 vhcurveto
          674 vlineto
          -81 -1 0 -17 hvcurveto
          -601 vlineto
          -9 -17 -36 -8 -35 hhcurveto
          -85 -12 56 81 hvcurveto
          endchar
        </CharString>
        <CharString name="Uhungarumlaut">
          67 -10 75 635 -20 hstem
          44 83 185 82 vstem
          194 920 rmoveto
          -7 -3 -56 -75 -28 -55 rrcurveto
          0 24 -39 19 5 vhcurveto
          26 24 64 75 10 20 -10 21 -24 32 -18 -5 rrcurveto
          126 hmoveto
          -8 -3 -55 -75 -28 -55 rrcurveto
          0 24 -39 19 5 vhcurveto
          26 24 64 75 9 20 -10 21 -23 32 -18 -5 rrcurveto
          -193 -220 rmoveto
          -83 0 0 -17 hvcurveto
          -478 vlineto
          -116 19 -99 161 78 67 20 16 25 vhcurveto
          674 vlineto
          -81 -1 0 -17 hvcurveto
          -601 vlineto
          -9 -17 -36 -8 -35 hhcurveto
          -85 -12 56 81 hvcurveto
          endchar
        </CharString>
        <CharString name="Umacron">
          67 -10 75 635 -20 107 76 hstem
          44 83 185 82 vstem
          322 787 rmoveto
          19 11 18 24 1 hvcurveto
          11 -2 11 -6 12 vhcurveto
          -227 hlineto
          -21 -12 -16 -23 -12 1 -11 5 -14 hvcurveto
          36 -87 rmoveto
          -83 0 0 -17 hvcurveto
          -478 vlineto
          -116 19 -99 161 78 67 20 16 25 vhcurveto
          674 vlineto
          -81 -1 0 -17 hvcurveto
          -601 vlineto
          -9 -17 -36 -8 -35 hhcurveto
          -85 -12 56 81 hvcurveto
          endchar
        </CharString>
        <CharString name="Uogonek">
          67 -195 58 127 75 635 -20 hstem
          44 83 185 82 vstem
          394 700 rmoveto
          -81 -1 0 -17 hvcurveto
          -601 vlineto
          -9 -17 -36 -8 -35 hhcurveto
          -85 -12 56 81 hvcurveto
          498 vlineto
          -83 0 0 -17 hvcurveto
          -478 vlineto
          -116 19 -99 161 23 24 2 4 19 vhcurveto
          -24 -31 -19 -41 -34 vvcurveto
          -63 35 -22 47 34 26 9 23 9 -4 14 -5 11 vhcurveto
          -5 -8 -9 -3 -11 hhcurveto
          -24 -9 13 24 38 34 56 41 32 hvcurveto
          endchar
        </CharString>
        <CharString name="Uring">
          67 -10 75 635 -20 63 54 84 56 hstem
          44 83 185 82 vstem
          123 839 rmoveto
          -74 33 -22 60 64 35 32 65 74 -29 23 -63 -63 -37 -31 -67 vhcurveto
          57 -1 rmoveto
          31 16 12 27 23 13 -11 -30 -31 -17 -12 -24 -25 -13 15 26 vhcurveto
          -53 -138 rmoveto
          -83 0 0 -17 hvcurveto
          -478 vlineto
          -116 19 -99 161 78 67 20 16 25 vhcurveto
          674 vlineto
          -81 -1 0 -17 hvcurveto
          -601 vlineto
          -9 -17 -36 -8 -35 hhcurveto
          -85 -12 56 81 hvcurveto
          endchar
        </CharString>
        <CharString name="Ushortcy">
          6 -4 72 632 -20 89 55 hstem
          13 356 vstem
          110 913 rmoveto
          -35 -9 -17 -13 1 -21 rrcurveto
          -48 5 44 -53 80 hhcurveto
          83 31 41 63 26 hvcurveto
          -7 24 -48 25 -6 -21 rrcurveto
          -49 -14 -14 -28 -48 hhcurveto
          -52 -18 36 53 -11 hvcurveto
          259 -213 rmoveto
          -57 hlineto
          -20 -4 -9 -19 -4 hvcurveto
          -50 -218 -20 -91 -13 -73 -6 -59 rlinecurve
          -9 59 -10 74 -23 94 -62 242 rcurveline
          -57 hlineto
          -15 -6 -2 -10 -6 2 -8 4 -16 hvcurveto
          35 -140 81 -306 27 -79 rrcurveto
          -43 -9 -8 -22 -24 hhcurveto
          -16 -21 8 11 -18 hvcurveto
          -10 -20 -4 -18 1 -9 2 -30 32 -15 41 1 77 2 13 55 20 85 rrcurveto
          endchar
        </CharString>
        <CharString name="Ustraitstrokecy">
          -6 21 -21 199 76 425 -20 hstem
          144 81 vstem
          225 275 rmoveto
          16 vlineto
          135 409 rlineto
          -82 -1 0 -15 -4 hvcurveto
          -35 -122 -20 -64 -28 -117 -3 -29 rlinecurve
          -3 29 -27 116 -20 65 -40 137 rcurveline
          -93 -2 0 -13 4 hvcurveto
          138 -400 rlineto
          -12 -61 vlineto
          -20 -12 -16 -23 -1 hvcurveto
          -12 1 -11 5 -14 vhcurveto
          88 -199 hlineto
          82 -1 0 16 hvcurveto
          183 62 vlineto
          19 12 17 24 12 -2 11 -5 12 hvcurveto
          endchar
        </CharString>
        <CharString name="V">
          50 14 -21 683 24 hstem
          5 411 vstem
          416 700 rmoveto
          -70 hlineto
          -15 -3 -8 -16 -3 hvcurveto
          -75 -364 -16 -89 -12 -91 -8 -63 rlinecurve
          -2 11 -2 13 -2 13 -9 59 -11 74 -14 73 -84 388 rcurveline
          -66 hlineto
          -15 -4 -3 -8 -3 1 -5 1 -5 hvcurveto
          0 100 -462 39 -163 vhcurveto
          -34 9 13 -24 26 hhcurveto
          31 15 1 3 22 hvcurveto
          endchar
        </CharString>
        <CharString name="Vecy">
          32 0 71 274 69 215 71 hstem
          57 81 140 94 vstem
          57 hmoveto
          125 hlineto
          103 87 69 169 121 -72 22 -46 3 hvcurveto
          43 6 53 45 111 vvcurveto
          128 -88 26 -80 vhcurveto
          -99 hlineto
          -21 -5 -7 -12 hvcurveto
          81 -267 rmoveto
          215 49 vlineto
          38 37 -17 -82 -81 -32 -35 -42 hvcurveto
          -50 -343 rmoveto
          274 47 vlineto
          54 39 -10 -104 -114 -44 -46 -50 hvcurveto
          endchar
        </CharString>
        <CharString name="W">
          284 14 -21 683 24 hstem
          5 645 vstem
          581 700 rmoveto
          -15 -3 -8 -16 -2 hvcurveto
          -65 -365 -12 -75 -8 -85 -5 -63 rlinecurve
          -6 hlineto
          -1 13 -2 13 -1 12 -6 54 -6 59 -14 72 -71 355 rcurveline
          -22 hlineto
          -35 hlineto
          -16 -2 -8 -16 -3 hvcurveto
          -62 -331 -12 -71 -10 -73 -4 -79 rlinecurve
          -5 hlineto
          -7 63 -8 71 -15 89 -73 389 rcurveline
          -66 hlineto
          -14 -5 -4 -9 -3 1 -4 1 -4 hvcurveto
          0 85 -455 34 -167 vhcurveto
          -36 8 12 -25 21 hhcurveto
          34 15 1 3 25 hvcurveto
          55 280 8 53 13 107 8 68 rlinecurve
          8 -69 13 -107 10 -53 52 -227 rcurveline
          -35 7 13 -22 23 hhcurveto
          31 8 2 3 28 hvcurveto
          132 703 rlineto
          endchar
        </CharString>
        <CharString name="Wacute">
          284 14 -21 683 24 hstem
          6 644 vstem
          279 760 rmoveto
          34 19 90 64 16 18 rrcurveto
          24 -4 -14 37 -19 hhcurveto
          -8 -81 -65 -52 -45 hvcurveto
          0 13 -45 18 vhcurveto
          302 -60 rmoveto
          -15 -3 -8 -16 -2 hvcurveto
          -65 -365 -12 -75 -8 -85 -5 -63 rlinecurve
          -6 hlineto
          -7 64 -6 70 -17 89 -71 355 rcurveline
          -22 hlineto
          -35 hlineto
          -16 -2 -8 -16 -3 hvcurveto
          -62 -331 -12 -71 -10 -73 -4 -79 rlinecurve
          -5 hlineto
          -7 63 -8 71 -15 89 -73 389 rcurveline
          -66 hlineto
          -19 -1 -8 -16 3 hvcurveto
          0 85 -455 34 -167 vhcurveto
          -36 8 12 -25 21 hhcurveto
          34 15 1 3 25 hvcurveto
          55 280 8 53 13 107 8 68 rlinecurve
          8 -69 13 -107 10 -53 52 -227 rcurveline
          -35 7 13 -22 23 hhcurveto
          31 8 2 3 28 hvcurveto
          132 703 rlineto
          endchar
        </CharString>
        <CharString name="Wcircumflex">
          284 14 -21 683 24 199 12 hstem
          6 644 vstem
          200 785 rmoveto
          -13 11 17 -10 28 hhcurveto
          17 58 76 0 hvcurveto
          13 -24 53 -53 0 vvcurveto
          28 29 9 14 16 -97 99 0 hvcurveto
          8 -8 -9 4 -8 hhcurveto
          -7 -5 -1 -2 -5 hvcurveto
          266 -208 rmoveto
          -15 -3 -8 -16 -2 hvcurveto
          -65 -365 -12 -75 -8 -85 -5 -63 rlinecurve
          -6 hlineto
          -7 64 -6 70 -17 89 -71 355 rcurveline
          -22 hlineto
          -35 hlineto
          -16 -2 -8 -16 -3 hvcurveto
          -62 -331 -12 -71 -10 -73 -4 -79 rlinecurve
          -5 hlineto
          -7 63 -8 71 -15 89 -73 389 rcurveline
          -66 hlineto
          -19 -1 -8 -16 3 hvcurveto
          0 85 -455 34 -167 vhcurveto
          -36 8 12 -25 21 hhcurveto
          34 15 1 3 25 hvcurveto
          55 280 8 53 13 107 8 68 rlinecurve
          8 -69 13 -107 10 -53 52 -227 rcurveline
          -35 7 13 -22 23 hhcurveto
          31 8 2 3 28 hvcurveto
          132 703 rlineto
          endchar
        </CharString>
        <CharString name="Wdieresis">
          284 14 -21 683 24 72 117 hstem
          227 83 35 83 vstem
          265 772 rmoveto
          30 14 23 39 1 hvcurveto
          40 -10 15 -30 -29 -14 -22 -35 vhcurveto
          -1 -45 15 -14 24 -1 rrcurveto
          119 hmoveto
          29 15 23 39 hvcurveto
          40 1 -10 15 -29 hhcurveto
          -30 -15 -22 -35 -45 14 -14 25 -1 hvcurveto
          197 -72 rmoveto
          -15 -3 -8 -16 -2 hvcurveto
          -65 -365 -12 -75 -8 -85 -5 -63 rlinecurve
          -6 hlineto
          -7 64 -6 70 -17 89 -71 355 rcurveline
          -22 hlineto
          -35 hlineto
          -16 -2 -8 -16 -3 hvcurveto
          -62 -331 -12 -71 -10 -73 -4 -79 rlinecurve
          -5 hlineto
          -7 63 -8 71 -15 89 -73 389 rcurveline
          -66 hlineto
          -19 -1 -8 -16 3 hvcurveto
          0 85 -455 34 -167 vhcurveto
          -36 8 12 -25 21 hhcurveto
          34 15 1 3 25 hvcurveto
          55 280 8 53 13 107 8 68 rlinecurve
          8 -69 13 -107 10 -53 52 -227 rcurveline
          -35 7 13 -22 23 hhcurveto
          31 8 2 3 28 hvcurveto
          132 703 rlineto
          endchar
        </CharString>
        <CharString name="Wgrave">
          284 14 -21 683 24 hstem
          6 644 vstem
          388 753 rmoveto
          19 12 45 0 hvcurveto
          53 -45 -81 65 -8 hhcurveto
          -19 -14 -37 -24 -4 hvcurveto
          16 -19 90 -64 34 -19 rrcurveto
          193 -53 rmoveto
          -15 -3 -8 -16 -2 hvcurveto
          -65 -365 -12 -75 -8 -85 -5 -63 rlinecurve
          -6 hlineto
          -7 64 -6 70 -17 89 -71 355 rcurveline
          -22 hlineto
          -35 hlineto
          -16 -2 -8 -16 -3 hvcurveto
          -62 -331 -12 -71 -10 -73 -4 -79 rlinecurve
          -5 hlineto
          -7 63 -8 71 -15 89 -73 389 rcurveline
          -66 hlineto
          -19 -1 -8 -16 3 hvcurveto
          0 85 -455 34 -167 vhcurveto
          -36 8 12 -25 21 hhcurveto
          34 15 1 3 25 hvcurveto
          55 280 8 53 13 107 8 68 rlinecurve
          8 -69 13 -107 10 -53 52 -227 rcurveline
          -35 7 13 -22 23 hhcurveto
          31 8 2 3 28 hvcurveto
          132 703 rlineto
          endchar
        </CharString>
        <CharString name="X">
          54 21 -21 700 -20 hstem
          9 404 vstem
          268 368 rmoveto
          129 332 rlineto
          -84 1 0 -13 -4 hvcurveto
          -39 -101 -21 -56 -19 -61 -10 -33 rlinecurve
          -10 33 -18 61 -21 56 -41 114 rcurveline
          -95 -5 0 -14 5 hvcurveto
          126 -324 -153 -362 rlineto
          70 hlineto
          9 4 2 8 5 hvcurveto
          54 125 23 54 21 59 12 36 rlinecurve
          12 -36 21 -59 21 -54 54 -135 rcurveline
          88 hlineto
          7 3 2 5 2 0 2 -1 2 hvcurveto
          endchar
        </CharString>
        <CharString name="Y">
          -6 21 -21 700 -20 hstem
          144 81 vstem
          225 288 rmoveto
          135 412 rlineto
          -82 -1 0 -15 -4 hvcurveto
          -35 -122 -20 -64 -28 -117 -3 -29 rlinecurve
          -3 29 -27 116 -20 65 -40 137 rcurveline
          -93 -2 0 -13 4 hvcurveto
          138 -403 rlineto
          -284 vlineto
          82 -1 0 16 hvcurveto
          endchar
        </CharString>
        <CharString name="Yacute">
          -6 21 -21 700 -20 hstem
          144 81 vstem
          134 760 rmoveto
          35 19 89 64 16 18 rrcurveto
          24 -4 -14 37 -19 hhcurveto
          -8 -80 -65 -52 -46 hvcurveto
          0 13 -45 18 vhcurveto
          91 -472 rmoveto
          135 412 rlineto
          -82 -1 0 -15 -4 hvcurveto
          -35 -122 -20 -64 -28 -117 -3 -29 rlinecurve
          -3 29 -27 116 -20 65 -40 137 rcurveline
          -93 -2 0 -13 4 hvcurveto
          138 -403 rlineto
          -284 vlineto
          82 -1 0 16 hvcurveto
          endchar
        </CharString>
        <CharString name="Ycircumflex">
          -6 21 -21 700 -20 219 12 hstem
          144 81 vstem
          55 785 rmoveto
          -13 11 17 -10 28 hhcurveto
          17 58 76 0 hvcurveto
          13 -24 53 -53 0 vvcurveto
          28 29 9 14 16 -97 99 0 hvcurveto
          8 -8 -9 4 -8 hhcurveto
          -7 -5 -1 -2 -5 hvcurveto
          55 -620 rmoveto
          135 412 rlineto
          -82 -1 0 -15 -4 hvcurveto
          -35 -122 -20 -64 -28 -117 -3 -29 rlinecurve
          -3 29 -27 116 -20 65 -40 137 rcurveline
          -93 -2 0 -13 4 hvcurveto
          138 -403 rlineto
          -284 vlineto
          82 -1 0 16 hvcurveto
          endchar
        </CharString>
        <CharString name="Ydieresis">
          -6 21 -21 700 -20 92 117 hstem
          144 81 vstem
          120 772 rmoveto
          30 14 23 39 1 hvcurveto
          40 -10 15 -29 -30 -14 -22 -35 vhcurveto
          -1 -45 15 -14 24 -1 rrcurveto
          120 hmoveto
          28 15 23 39 hvcurveto
          40 1 -10 15 -29 hhcurveto
          -30 -15 -22 -35 -45 14 -14 26 -1 hvcurveto
          -15 -484 rmoveto
          135 412 rlineto
          -82 -1 0 -15 -4 hvcurveto
          -35 -122 -20 -64 -28 -117 -3 -29 rlinecurve
          -3 29 -27 116 -20 65 -40 137 rcurveline
          -93 -2 0 -13 4 hvcurveto
          138 -403 rlineto
          -284 vlineto
          82 -1 0 16 hvcurveto
          endchar
        </CharString>
        <CharString name="Yerucy">
          179 0 71 268 76 285 -20 hstem
          57 80 129 93 64 82 vstem
          423 hmoveto
          81 1 0 16 hvcurveto
          684 vlineto
          -80 -2 0 -37 hvcurveto
          -286 37 rmoveto
          -80 0 0 -18 hvcurveto
          -682 125 vlineto
          108 69 85 150 123 -46 57 -120 hvcurveto
          -56 hlineto
          51 -76 rmoveto
          59 19 -27 -85 -111 -25 -45 -61 -12 -24 1 1 -7 hvcurveto
          266 vlineto
          endchar
        </CharString>
        <CharString name="Ygrave">
          -6 21 -21 700 -20 hstem
          144 81 vstem
          243 753 rmoveto
          19 12 45 0 hvcurveto
          53 -45 -81 65 -8 hhcurveto
          -19 -14 -37 -24 -4 hvcurveto
          16 -19 90 -64 34 -19 rrcurveto
          -18 -465 rmoveto
          135 412 rlineto
          -82 -1 0 -15 -4 hvcurveto
          -35 -122 -20 -64 -28 -117 -3 -29 rlinecurve
          -3 29 -27 116 -20 65 -40 137 rcurveline
          -93 -2 0 -13 4 hvcurveto
          138 -403 rlineto
          -284 vlineto
          82 -1 0 16 hvcurveto
          endchar
        </CharString>
        <CharString name="Yicy">
          -201 21 -21 700 -20 92 117 hstem
          44 82 vstem
          28 889 rmoveto
          -30 -13 -22 -35 -1 hvcurveto
          -45 14 -14 25 -1 vhcurveto
          29 15 23 39 hvcurveto
          40 1 -10 15 -30 hhcurveto
          119 hmoveto
          -30 -14 -22 -35 hvcurveto
          -1 -45 15 -14 25 -1 rrcurveto
          29 15 23 39 40 -9 15 -30 hvcurveto
          -103 -889 rmoveto
          80 2 0 16 hvcurveto
          684 vlineto
          -81 -1 0 -37 hvcurveto
          endchar
        </CharString>
        <CharString name="Z">
          15 0 72 556 72 hstem
          19 342 vstem
          37 625 rmoveto
          2 8 18 1 17 hhcurveto
          187 hlineto
          -240 -561 rlineto
          -6 -13 -2 -11 -12 vvcurveto
          -14 6 -11 7 -6 vhcurveto
          313 hlineto
          13 3 7 9 hvcurveto
          64 vlineto
          -7 -16 -21 -1 -22 hhcurveto
          -194 hlineto
          244 565 rlineto
          5 12 3 13 0 12 0 12 -3 7 -5 7 50 flex
          -298 hlineto
          -11 -6 -7 -10 hvcurveto
          endchar
        </CharString>
        <CharString name="Zacute">
          15 0 72 556 72 hstem
          19 342 vstem
          145 760 rmoveto
          34 19 90 64 16 18 rrcurveto
          24 -4 -15 37 -19 hhcurveto
          -7 -81 -65 -52 -46 hvcurveto
          0 13 -45 19 vhcurveto
          -108 -135 rmoveto
          2 8 18 1 17 hhcurveto
          187 hlineto
          -240 -561 rlineto
          -6 -13 -2 -11 -12 vvcurveto
          -14 6 -11 7 -6 vhcurveto
          313 hlineto
          13 3 7 9 hvcurveto
          64 vlineto
          -7 -16 -21 -1 -22 hhcurveto
          -194 hlineto
          244 565 rlineto
          5 12 3 13 0 12 0 12 -3 7 -5 7 50 flex
          -298 hlineto
          -11 -6 -7 -10 hvcurveto
          endchar
        </CharString>
        <CharString name="Zcaron">
          15 0 72 556 72 hstem
          19 342 vstem
          199 757 rmoveto
          16 95 104 19 13 -13 13 -20 11 hvcurveto
          0 -38 -32 -37 -52 vhcurveto
          0 -71 86 -18 -14 -17 -30 -21 -7 vhcurveto
          -20 15 90 -91 19 hhcurveto
          -162 -132 rmoveto
          2 8 18 1 17 hhcurveto
          187 hlineto
          -240 -561 rlineto
          -6 -13 -2 -11 -12 vvcurveto
          -14 6 -11 7 -6 vhcurveto
          313 hlineto
          13 3 7 9 hvcurveto
          64 vlineto
          -7 -16 -21 -1 -22 hhcurveto
          -194 hlineto
          244 565 rlineto
          5 12 3 13 0 12 0 12 -3 7 -5 7 50 flex
          -298 hlineto
          -11 -6 -7 -10 hvcurveto
          endchar
        </CharString>
        <CharString name="Zdotaccent">
          15 0 72 556 72 hstem
          150 86 vstem
          150 832 rmoveto
          -47 -1 15 -15 26 hhcurveto
          30 15 24 40 1 hvcurveto
          42 -10 16 -31 -31 -14 -24 -36 vhcurveto
          -113 -207 rmoveto
          2 8 18 1 17 hhcurveto
          187 hlineto
          -240 -561 rlineto
          -6 -13 -2 -11 -12 vvcurveto
          -14 6 -11 7 -6 vhcurveto
          313 hlineto
          13 3 7 9 hvcurveto
          64 vlineto
          -7 -16 -21 -1 -22 hhcurveto
          -194 hlineto
          244 565 rlineto
          5 12 3 13 0 12 0 12 -3 7 -5 7 50 flex
          -298 hlineto
          -11 -6 -7 -10 hvcurveto
          endchar
        </CharString>
        <CharString name="Zecy">
          -6 -9 78 257 76 229 78 hstem
          257 87 vstem
          96 402 rmoveto
          -48 vlineto
          -18 8 -10 15 vhcurveto
          48 hlineto
          52 38 -36 -79 -111 -43 -31 -51 -55 -41 16 34 -30 hvcurveto
          -12 -17 -4 -17 -16 vvcurveto
          -40 58 -38 91 103 71 66 159 85 -32 55 -53 28 vhcurveto
          34 38 29 66 66 vvcurveto
          95 -51 60 -96 -97 -31 -48 -29 -15 10 -15 12 -17 vhcurveto
          24 23 34 22 37 hhcurveto
          45 26 -36 -65 -46 -10 -44 -29 -38 hvcurveto
          endchar
        </CharString>
        <CharString name="Zhecy">
          242 21 -21 330 73 298 -20 hstem
          267 78 vstem
          449 482 rmoveto
          -53 -11 -26 -26 -26 hhcurveto
          -41 297 hlineto
          -78 0 0 -16 hvcurveto
          -281 -41 vlineto
          -27 -26 26 53 -11 hvcurveto
          -45 213 rlineto
          4 -18 -17 2 -14 hhcurveto
          -23 -7 -3 -11 -2 0 -4 1 -3 hvcurveto
          48 -209 12 -48 23 -32 25 -15 rlinecurve
          -44 -25 -29 -58 -9 -79 -28 -195 rcurveline
          -14 -2 7 -5 27 hhcurveto
          16 17 1 2 18 hvcurveto
          28 199 rlineto
          99 11 34 31 37 hhcurveto
          37 -330 hlineto
          78 0 0 16 hvcurveto
          314 37 vlineto
          37 33 -31 -99 12 hvcurveto
          27 -199 rlineto
          -2 19 17 -1 16 hhcurveto
          27 7 5 14 -2 hvcurveto
          -28 195 -10 79 -28 58 -44 25 rlinecurve
          25 15 23 32 11 48 49 209 rcurveline
          1 3 0 4 2 vvcurveto
          11 -7 3 -24 -13 -18 -2 -4 -17 vhcurveto
          endchar
        </CharString>
        <CharString name="a">
          -16 -10 68 188 60 126 78 hstem
          29 84 123 81 vstem
          317 388 rmoveto
          90 -38 32 -85 -76 -60 -16 -11 -17 vhcurveto
          -8 -5 -3 -12 0 -10 0 -12 2 -18 9 -17 50 flex
          12 29 53 11 51 hhcurveto
          40 22 -12 -48 hvcurveto
          -79 vlineto
          10 -20 -31 3 -22 hhcurveto
          -68 -66 -25 -139 -135 67 -17 71 68 48 17 17 28 hvcurveto
          5 76 1 120 115 vvcurveto
          -81 -99 rmoveto
          -54 0 -74 -3 -34 vhcurveto
          -8 -9 -22 -8 -22 hhcurveto
          -40 -27 12 74 88 35 14 41 14 20 -3 -7 13 hvcurveto
          endchar
        </CharString>
        <CharString name="aacute">
          -16 -10 68 188 60 126 78 hstem
          29 84 123 81 vstem
          127 560 rmoveto
          34 19 90 64 16 18 rrcurveto
          24 -4 -15 37 -19 hhcurveto
          -7 -81 -65 -52 -45 hvcurveto
          0 12 -45 19 vhcurveto
          190 -172 rmoveto
          90 -38 32 -85 -76 -60 -16 -11 -17 vhcurveto
          -8 -5 -3 -12 0 -10 0 -12 2 -18 9 -17 50 flex
          12 29 53 11 51 hhcurveto
          40 22 -12 -48 hvcurveto
          -79 vlineto
          10 -20 -31 3 -22 hhcurveto
          -68 -66 -25 -139 -138 70 -15 73 1 hvcurveto
          65 47 18 16 27 hvcurveto
          5 76 1 120 115 vvcurveto
          -81 -99 rmoveto
          -54 0 -74 -3 -34 vhcurveto
          -8 -9 -22 -8 -22 hhcurveto
          -40 -27 12 74 88 35 14 41 14 20 -3 -7 13 hvcurveto
          endchar
        </CharString>
        <CharString name="abreve">
          -16 -10 68 188 60 126 78 47 77 76 -20 hstem
          29 84 123 81 vstem
          89 713 rmoveto
          -32 -11 -12 -12 -22 vvcurveto
          -42 57 -69 69 73 40 53 59 20 vhcurveto
          -5 27 -35 30 -15 -26 rrcurveto
          -29 -14 -18 -37 -45 hhcurveto
          -46 -26 49 30 -11 hvcurveto
          228 -325 rmoveto
          90 -38 32 -85 -76 -60 -16 -11 -17 vhcurveto
          -8 -5 -3 -12 0 -10 0 -12 2 -18 9 -17 50 flex
          12 29 53 11 51 hhcurveto
          40 22 -12 -48 hvcurveto
          -79 vlineto
          10 -20 -31 3 -22 hhcurveto
          -68 -66 -25 -139 -138 70 -15 73 1 hvcurveto
          65 47 18 16 27 hvcurveto
          5 76 1 120 115 vvcurveto
          -81 -99 rmoveto
          -54 0 -74 -3 -34 vhcurveto
          -8 -9 -22 -8 -22 hhcurveto
          -40 -27 12 74 88 35 14 41 14 20 -3 -7 13 hvcurveto
          endchar
        </CharString>
        <CharString name="acircumflex">
          -16 -10 68 188 60 126 78 hstem
          29 84 123 81 vstem
          48 585 rmoveto
          -13 11 17 -10 27 hhcurveto
          18 57 76 0 hvcurveto
          13 -24 53 -53 0 vvcurveto
          29 29 9 14 16 -98 99 0 hvcurveto
          8 -7 -10 4 -8 hhcurveto
          -6 -6 -1 -2 -5 hvcurveto
          155 -320 rmoveto
          90 -38 32 -85 -76 -60 -16 -11 -17 vhcurveto
          -8 -5 -3 -12 0 -10 0 -12 2 -18 9 -17 50 flex
          12 29 53 11 51 hhcurveto
          40 22 -12 -48 hvcurveto
          -79 vlineto
          10 -20 -31 3 -22 hhcurveto
          -68 -66 -25 -139 -138 70 -15 73 1 hvcurveto
          65 47 18 16 27 hvcurveto
          5 76 1 120 115 vvcurveto
          -81 -99 rmoveto
          -54 0 -74 -3 -34 vhcurveto
          -8 -9 -22 -8 -22 hhcurveto
          -40 -27 12 74 88 35 14 41 14 20 -3 -7 13 hvcurveto
          endchar
        </CharString>
        <CharString name="acute">
          -101 560 162 hstem
          49 171 vstem
          80 560 rmoveto
          35 19 89 64 16 18 rrcurveto
          24 -4 -14 37 -19 hhcurveto
          -8 -80 -65 -52 -46 hvcurveto
          0 13 -45 18 vhcurveto
          endchar
        </CharString>
        <CharString name="acy">
          -16 -10 68 188 60 126 78 hstem
          29 84 123 81 vstem
          317 388 rmoveto
          90 -38 32 -85 -76 -60 -16 -11 -17 vhcurveto
          -8 -5 -3 -12 0 -10 0 -12 2 -18 9 -17 50 flex
          12 29 53 11 51 hhcurveto
          40 22 -12 -48 hvcurveto
          -79 vlineto
          10 -20 -31 3 -22 hhcurveto
          -68 -66 -25 -139 -138 70 -15 73 1 hvcurveto
          65 47 18 16 27 hvcurveto
          5 76 1 120 115 vvcurveto
          -81 -99 rmoveto
          -54 0 -74 -3 -34 vhcurveto
          -8 -9 -22 -8 -22 hhcurveto
          -40 -27 12 74 88 35 14 41 14 20 -3 -7 13 hvcurveto
          endchar
        </CharString>
        <CharString name="adieresis">
          -16 -10 68 188 60 126 78 62 117 hstem
          29 84 123 81 vstem
          317 388 rmoveto
          90 -38 32 -85 -76 -60 -16 -11 -17 vhcurveto
          -8 -5 -3 -12 0 -10 0 -12 2 -18 9 -17 50 flex
          12 29 53 11 51 hhcurveto
          40 22 -12 -48 hvcurveto
          -79 vlineto
          10 -20 -31 3 -22 hhcurveto
          -68 -66 -25 -139 -138 70 -15 73 1 hvcurveto
          65 47 18 16 27 hvcurveto
          5 76 1 120 115 vvcurveto
          -81 -99 rmoveto
          -54 0 -74 -3 -34 vhcurveto
          -8 -9 -22 -8 -22 hhcurveto
          -40 -27 12 74 88 35 14 41 14 20 -3 -7 13 hvcurveto
          -118 453 rmoveto
          -30 -14 -22 -35 -45 14 -14 25 -1 hvcurveto
          29 15 23 39 hvcurveto
          40 1 -10 15 -30 hhcurveto
          119 hmoveto
          -30 -14 -22 -35 hvcurveto
          -1 -45 15 -14 25 -1 rrcurveto
          29 14 23 39 1 hvcurveto
          40 -9 15 -30 vhcurveto
          endchar
        </CharString>
        <CharString name="ae">
          213 -9 78 189 61 120 71 hstem
          29 84 123 88 143 78 vstem
          410 69 rmoveto
          -57 -29 15 141 hvcurveto
          -5 28 43 -6 52 hhcurveto
          27 29 2 4 31 hvcurveto
          8 36 3 51 44 vvcurveto
          107 -43 52 -84 -48 -44 -8 -49 -30 vhcurveto
          41 -14 -31 16 -54 hhcurveto
          -86 -51 -15 -12 -18 hvcurveto
          -4 -4 -6 -10 0 -10 0 -7 1 -25 9 -16 50 flex
          17 32 43 10 51 hhcurveto
          39 29 -12 -48 hvcurveto
          -72 vlineto
          10 -20 -31 3 -25 hhcurveto
          -65 -66 -31 -140 -144 66 -13 71 68 40 12 17 28 hvcurveto
          -23 25 33 -6 41 hhcurveto
          75 63 24 13 23 -2 34 -5 15 hvcurveto
          -19 -33 -40 -12 -49 hhcurveto
          -1 370 rmoveto
          44 13 -24 -73 1 hvcurveto
          -19 -1 -25 -4 -18 vhcurveto
          -2 -11 -12 -1 -12 hhcurveto
          -37 -38 7 6 -26 hvcurveto
          119 9 35 30 39 hhcurveto
          -173 -365 rmoveto
          -10 -8 -29 -6 -21 hhcurveto
          -39 -26 9 82 89 35 20 41 14 19 -2 -6 14 hvcurveto
          endchar
        </CharString>
        <CharString name="agrave">
          -16 -10 68 188 60 126 78 hstem
          29 84 123 81 vstem
          133 716 rmoveto
          -19 -15 -37 -24 -3 hvcurveto
          16 -19 89 -64 35 -19 rrcurveto
          18 13 45 0 hvcurveto
          53 -46 -80 65 -8 hhcurveto
          184 -328 rmoveto
          90 -38 32 -85 -76 -60 -16 -11 -17 vhcurveto
          -8 -5 -3 -12 0 -10 0 -12 2 -18 9 -17 50 flex
          12 29 53 11 51 hhcurveto
          40 22 -12 -48 hvcurveto
          -79 vlineto
          10 -20 -31 3 -22 hhcurveto
          -68 -66 -25 -139 -138 70 -15 73 1 hvcurveto
          65 47 18 16 27 hvcurveto
          5 76 1 120 115 vvcurveto
          -81 -99 rmoveto
          -54 0 -74 -3 -34 vhcurveto
          -8 -9 -22 -8 -22 hhcurveto
          -40 -27 12 74 88 35 14 41 14 20 -3 -7 13 hvcurveto
          endchar
        </CharString>
        <CharString name="amacron">
          -16 -10 68 188 60 126 78 77 76 hstem
          29 84 123 81 vstem
          278 587 rmoveto
          19 11 18 24 1 hvcurveto
          11 -2 11 -6 12 vhcurveto
          -227 hlineto
          -21 -12 -16 -23 -12 1 -11 4 -14 hvcurveto
          271 -199 rmoveto
          90 -38 32 -85 -76 -60 -16 -11 -17 vhcurveto
          -8 -5 -3 -12 0 -10 0 -12 2 -18 9 -17 50 flex
          12 29 53 11 51 hhcurveto
          40 22 -12 -48 hvcurveto
          -79 vlineto
          10 -20 -31 3 -22 hhcurveto
          -68 -66 -25 -139 -138 70 -15 73 1 hvcurveto
          65 47 18 16 27 hvcurveto
          5 76 1 120 115 vvcurveto
          -81 -99 rmoveto
          -54 0 -74 -3 -34 vhcurveto
          -8 -9 -22 -8 -22 hhcurveto
          -40 -27 12 74 88 35 14 41 14 20 -3 -7 13 hvcurveto
          endchar
        </CharString>
        <CharString name="ampersand">
          132 -10 76 370 68 131 71 hstem
          27 83 241 78 vstem
          443 436 rmoveto
          38 -1 4 16 21 vvcurveto
          13 -2 14 2 vvcurveto
          2 -24 -24 1 -30 hhcurveto
          -23 -55 -1 -7 -36 hvcurveto
          33 -40 27 -60 -105 vvcurveto
          -22 -1 -34 -7 -34 vhcurveto
          -96 122 -101 163 72 vvcurveto
          67 41 10 50 45 38 -9 -26 37 vhcurveto
          12 14 8 26 19 vvcurveto
          24 -60 23 -89 -106 -61 -47 -91 -54 32 -76 46 -80 vhcurveto
          -59 -37 -53 -66 -85 vvcurveto
          -93 38 -87 147 70 47 26 38 33 vhcurveto
          -39 36 27 -25 10 hhcurveto
          19 30 32 33 4 hvcurveto
          -20 9 -30 27 -34 37 rrcurveto
          21 56 4 59 38 vvcurveto
          95 -21 34 -14 26 vhcurveto
          -187 -370 rmoveto
          -74 -23 51 51 63 25 41 39 28 hvcurveto
          43 -66 48 -66 44 -53 rrcurveto
          -29 -21 -32 -20 -49 hhcurveto
          endchar
        </CharString>
        <CharString name="ampersand.ss03">
          66 57 82 431 189 hstem
          53 83 71 74 vstem
          282 413 rmoveto
          -2 -11 -29 -3 -21 hhcurveto
          -54 1 -31 22 49 vvcurveto
          55 45 35 70 61 41 -26 -42 30 vhcurveto
          15 18 13 30 18 vvcurveto
          18 -43 48 -87 11 vhcurveto
          114 vlineto
          -49 -25 -4 -27 hvcurveto
          -82 vlineto
          -92 -11 -62 -60 -91 vvcurveto
          -87 52 -24 40 -7 vhcurveto
          -57 -20 -49 -47 -84 vvcurveto
          -93 47 -57 112 -8 vhcurveto
          -110 vlineto
          50 23 5 27 hvcurveto
          80 vlineto
          103 13 41 58 19 vvcurveto
          19 -18 31 -16 17 vhcurveto
          -35 -24 -50 -42 -69 hhcurveto
          -72 -38 31 53 60 50 50 94 4 hvcurveto
          endchar
        </CharString>
        <CharString name="ampersand.ss04">
          272 -9 67 101 72 147 61 182 65 hstem
          34 83 144 75 91 81 vstem
          427 144 rmoveto
          -127 27 -26 69 73 24 17 17 22 -4 21 0 vhcurveto
          0 -26 -10 -41 -33 -8 22 68 vhcurveto
          255 vlineto
          21 2 45 6 0 vvcurveto
          31 4 7 15 60 vvcurveto
          0 -51 -9 -53 -6 vhcurveto
          134 vlineto
          -54 -27 -10 -66 hvcurveto
          -67 vlineto
          0 -98 -15 -27 -3 vhcurveto
          23 9 11 47 43 vvcurveto
          105 -64 34 -61 -132 -45 -103 -184 -188 55 -52 103 94 55 54 25 30 -20 28 0 vhcurveto
          -28 -18 -45 -37 -57 hhcurveto
          -46 -38 7 140 hvcurveto
          111 199 17 0 hvcurveto
          -166 140 rmoveto
          -18 -3 -60 -36 -9 vhcurveto
          0 -65 -9 -40 vhcurveto
          118 6 37 64 49 hhcurveto
          35 17 -29 -57 hvcurveto
          endchar
        </CharString>
        <CharString name="aogonek">
          -16 -195 59 126 68 188 60 126 78 hstem
          29 84 123 81 vstem
          236 293 rmoveto
          10 -20 -31 3 -22 hhcurveto
          -68 -66 -25 -139 -135 67 -17 71 15 13 1 2 12 hvcurveto
          -22 -27 -17 -35 -38 vvcurveto
          -65 35 -23 48 29 21 6 15 7 vhcurveto
          1 3 1 4 5 vvcurveto
          3 vlineto
          7 -3 12 -5 11 vhcurveto
          -6 -10 -8 -1 -11 hhcurveto
          -23 -10 13 27 43 34 47 37 30 hvcurveto
          5 76 1 120 115 vvcurveto
          53 vlineto
          90 -38 32 -85 -76 -60 -16 -11 -17 vhcurveto
          -8 -5 -3 -12 0 -10 0 -12 2 -18 9 -17 50 flex
          12 29 53 11 51 hhcurveto
          40 22 -12 -48 hvcurveto
          -47 -126 rmoveto
          14 20 -3 -7 13 hvcurveto
          -54 0 -74 -3 -34 vhcurveto
          -8 -9 -22 -8 -22 hhcurveto
          -40 -27 12 74 88 35 14 41 hvcurveto
          endchar
        </CharString>
        <CharString name="apple">
          431 -10 134 205 39 206 135 hstem
          41 213 40 55 121 88 38 164 vstem
          400 709 rmoveto
          -218 -141 -141 -219 -218 141 -141 218 219 141 141 218 219 -141 141 -219 hvcurveto
          -106 -294 rmoveto
          -12 4 0 2 vhcurveto
          5 4 1 5 hhcurveto
          10 7 -7 -9 -10 -6 -10 -15 hvcurveto
          -17 -4 5 -13 -15 -2 -21 hflex
          -14 -7 10 10 9 8 7 10 hvcurveto
          6 3 -1 5 hhcurveto
          1 4 0 12 hvcurveto
          112 vlineto
          12 -4 0 -1 vhcurveto
          -4 -5 -1 -5 hhcurveto
          -10 -8 9 9 10 7 8 16 hvcurveto
          12 8 -3 15 14 8 13 hflex
          15 6 -8 -10 -11 -9 -7 -8 hvcurveto
          -5 -3 1 -6 hhcurveto
          -2 -4 0 -12 hvcurveto
          116 51 rmoveto
          28 23 -16 -28 15 hvcurveto
          28 15 24 16 28 hhcurveto
          34 28 -22 -41 -44 -30 -25 -36 -29 hvcurveto
          -21 -17 -22 -19 -20 -25 -19 25 -22 18 -21 18 rrcurveto
          -35 29 -30 25 44 vvcurveto
          41 26 22 35 vhcurveto
          193 -284 rmoveto
          -7 0 -10 -2 hvcurveto
          -118 vlineto
          -23 -5 -21 -22 -15 -8 8 16 -8 vhcurveto
          -68 123 rlineto
          -97 vlineto
          -13 4 0 2 vhcurveto
          3 6 2 4 hhcurveto
          11 7 -7 -12 -8 -6 -8 -16 hvcurveto
          -10 -8 3 -15 -13 -13 -10 hflex
          -16 -5 8 9 11 8 7 10 hvcurveto
          4 6 -2 3 hhcurveto
          2 4 0 12 hvcurveto
          113 vlineto
          12 -4 1 -2 vhcurveto
          -3 -3 -1 -7 hhcurveto
          -7 0 -6 5 -3 4 -2 -4 -5 -5 -9 0 50 flex
          -6 0 1 -7 hhcurveto
          -1 -1 0 -3 -2 hvcurveto
          -57 -91 rlineto
          -36 vlineto
          -5 2 -3 4 vhcurveto
          3 4 3 8 hhcurveto
          11 5 -8 -11 -9 -5 -8 -17 hvcurveto
          -14 -9 3 -14 -13 -7 -14 hflex
          -15 -6 8 8 12 7 8 11 hvcurveto
          6 1 -3 6 hhcurveto
          2 3 3 5 hvcurveto
          34 vlineto
          -57 94 rlineto
          -1 1 -3 0 -1 -4 -2 -1 -5 hflex1
          -15 -5 8 9 12 7 7 12 hvcurveto
          13 11 -4 12 12 6 13 hflex
          14 5 -10 -9 -7 -4 -9 -17 hvcurveto
          -2 hlineto
          33 -56 4 7 5 10 5 9 rlinecurve
          7 11 6 12 4 7 rrcurveto
          -3 -1 -2 0 0 vvcurveto
          -15 0 -5 8 0 9 0 12 7 7 13 0 50 flex
          8 12 -3 12 10 15 10 hflex
          8 0 6 -5 3 -6 2 6 7 5 9 0 50 flex
          5 9 -2 12 10 7 8 hflex
          15 3 -7 -5 1 hvcurveto
          2 -6 70 -127 rlineto
          98 vlineto
          3 0 9 -11 vhcurveto
          -8 hlineto
          -10 -7 8 8 8 6 11 15 hvcurveto
          11 8 -3 13 11 10 12 hflex
          15 4 -10 -9 -8 -4 -8 -14 hvcurveto
          endchar
        </CharString>
        <CharString name="approxequal">
          30 132 75 65 74 hstem
          15 371 vstem
          16 326 rmoveto
          2 -29 11 -17 15 1 5 2 7 4 8 4 rrcurveto
          10 17 24 13 30 hhcurveto
          25 15 -9 -10 16 hvcurveto
          -11 18 19 -12 35 hhcurveto
          55 45 33 26 18 hvcurveto
          2 16 -4 15 -6 11 rrcurveto
          8 -6 -8 5 -9 hhcurveto
          -5 -5 -2 -4 -5 hvcurveto
          -18 -16 -25 -16 -29 hhcurveto
          -27 -14 10 10 -16 hvcurveto
          11 -16 -18 12 -34 hhcurveto
          -60 -41 -36 -27 -23 hvcurveto
          -1 -135 rmoveto
          -29 1 18 -24 19 hhcurveto
          4 4 1 3 4 hvcurveto
          13 15 25 21 32 hhcurveto
          23 12 -9 -10 14 hvcurveto
          -12 16 18 -13 39 hhcurveto
          64 45 38 27 18 hvcurveto
          -3 27 -12 16 -16 -1 -7 -2 -8 -4 -9 -5 rrcurveto
          -9 -18 -23 -12 -25 hhcurveto
          -27 -15 10 10 -17 hvcurveto
          11 -18 -19 11 -35 hhcurveto
          -56 -43 -34 -24 -20 hvcurveto
          endchar
        </CharString>
        <CharString name="aring">
          -16 -10 68 188 60 126 78 33 54 84 56 hstem
          29 84 123 81 vstem
          78 639 rmoveto
          -74 34 -22 60 64 35 32 65 74 -30 23 -63 -62 -38 -31 -67 vhcurveto
          58 -1 rmoveto
          31 16 12 27 23 12 -11 -30 -31 -16 -12 -25 -24 -13 15 26 vhcurveto
          181 -250 rmoveto
          90 -38 32 -85 -76 -60 -16 -11 -17 vhcurveto
          -8 -5 -3 -12 0 -10 0 -12 2 -18 9 -17 50 flex
          12 29 53 11 51 hhcurveto
          40 22 -12 -48 hvcurveto
          -79 vlineto
          10 -20 -31 3 -22 hhcurveto
          -68 -66 -25 -139 -138 70 -15 73 1 hvcurveto
          65 47 18 16 27 hvcurveto
          5 76 1 120 115 vvcurveto
          -81 -99 rmoveto
          -54 0 -74 -3 -34 vhcurveto
          -8 -9 -22 -8 -22 hhcurveto
          -40 -27 12 74 88 35 14 41 14 20 -3 -7 13 hvcurveto
          endchar
        </CharString>
        <CharString name="asciicircum">
          60 206 192 hstem
          48 332 vstem
          212 294 rmoveto
          129 -88 rlineto
          22 3 17 16 19 vvcurveto
          9 -4 9 -10 8 vhcurveto
          -146 128 -172 -149 rlineto
          -20 1 13 -21 23 hhcurveto
          6 6 2 8 13 hvcurveto
          endchar
        </CharString>
        <CharString name="asciitilde">
          30 212 74 hstem
          11 380 vstem
          11 266 rmoveto
          2 -31 15 -18 18 1 8 2 9 6 10 7 rrcurveto
          10 16 19 13 24 hhcurveto
          23 15 -9 -10 15 hvcurveto
          -12 19 21 -13 38 hhcurveto
          65 44 38 27 19 hvcurveto
          28 -2 -15 21 -18 hhcurveto
          -5 -5 -2 -4 -5 hvcurveto
          -18 -17 -25 -16 -29 hhcurveto
          -27 -15 9 11 -16 hvcurveto
          11 -18 -19 12 -35 hhcurveto
          -62 -50 -36 -27 -17 hvcurveto
          endchar
        </CharString>
        <CharString name="asterisk">
          100 245 443 hstem
          16 438 vstem
          278 677 rmoveto
          7 -14 -19 4 -16 hhcurveto
          -18 -14 -5 -16 2 hvcurveto
          22 -163 rlineto
          -2 7 6 -1 5 hhcurveto
          13 4 7 11 2 hvcurveto
          24 -24 rmoveto
          -8 -4 -5 -5 -7 vvcurveto
          -6 3 -8 8 -10 vhcurveto
          159 39 rlineto
          11 3 4 11 13 vvcurveto
          19 -9 23 -14 12 vhcurveto
          -362 -7 rmoveto
          2 -3 -3 0 -3 hhcurveto
          -19 -26 -25 -42 1 hvcurveto
          159 -44 rlineto
          -1 3 3 0 2 hhcurveto
          11 7 9 20 -2 hvcurveto
          128 -242 rmoveto
          26 4 38 19 20 vvcurveto
          3 -2 4 -3 4 vhcurveto
          -115 135 rlineto
          -19 -7 -6 -6 -7 vvcurveto
          -3 1 -3 2 -4 vhcurveto
          -183 -104 rmoveto
          -21 11 24 -29 19 hhcurveto
          6 5 3 6 5 hvcurveto
          88 156 rlineto
          11 -8 -7 5 -7 hhcurveto
          -5 -5 -3 -5 -5 hvcurveto
          endchar
        </CharString>
        <CharString name="at">
          368 -190 78 113 61 199 57 108 68 117 72 hstem
          47 82 108 77 107 77.5 111.5 83 vstem
          501 378 rmoveto
          89 2 -39 27 -73 hhcurveto
          -69 -39 -14 -12 -18 hvcurveto
          -5 -5 -4 -6 -9 vvcurveto
          -8 1 -23 7 -15 vhcurveto
          17 31 28 7 41 hhcurveto
          38 23 -11 -43 -26 -2 -39 0 hvcurveto
          9 -17 -23 2 -19 hhcurveto
          -68 -59 -36 -131 -130 53 -20 69 58 38 12 12 16 hvcurveto
          -13 15 20 -10 27 hhcurveto
          55 105 30 327 239 -104 85 -195 -208 -139 -122 -297 -409 144 -45 184 154 94 35 29 19 -9 21 -12 18 hvcurveto
          -25 -60 -68 -19 -105 hhcurveto
          -156 -84 63 302 274 92 84 172 165 52 -71 -202 -201 -49 -65 -37 -11 -11 2 4 -11 hvcurveto
          3 24 1 33 1 42 rrcurveto
          -77 -63 rmoveto
          -40 -1 -24 -12 -26 hhcurveto
          -35 -19 16 70 90 30 23 44 14 14 -2 -1 7 hvcurveto
          endchar
        </CharString>
        <CharString name="atilde">
          -16 -10 68 188 60 126 78 53 76 hstem
          29 84 123 81 vstem
          28 612 rmoveto
          0 17 -40 22 vhcurveto
          13 12 39 35 36 -3 -48 54 hhcurveto
          60 43 60 10 5 hvcurveto
          0 -12 45 -17 vhcurveto
          -15 -2 -39 -48 -40 -4 48 -43 hhcurveto
          -36 -43 -19 -56 -34 hvcurveto
          289 -224 rmoveto
          90 -38 32 -85 -76 -60 -16 -11 -17 vhcurveto
          -8 -5 -3 -12 0 -10 0 -12 2 -18 9 -17 50 flex
          12 29 53 11 51 hhcurveto
          40 22 -12 -48 hvcurveto
          -79 vlineto
          10 -20 -31 3 -22 hhcurveto
          -68 -66 -25 -139 -138 70 -15 73 1 hvcurveto
          65 47 18 16 27 hvcurveto
          5 76 1 120 115 vvcurveto
          -81 -99 rmoveto
          -54 0 -74 -3 -34 vhcurveto
          -8 -9 -22 -8 -22 hhcurveto
          -40 -27 12 74 88 35 14 41 14 20 -3 -7 13 hvcurveto
          endchar
        </CharString>
        <CharString name="b">
          15 -10 71 376 73 225 -20 hstem
          48 80 140 90 vstem
          48 20 rmoveto
          -19 23 40 -11 53 hhcurveto
          83 111 34 289 147 -43 50 -80 -47 -33 -14 -21 -27 hvcurveto
          260 vlineto
          -66 -14 0 -37 hvcurveto
          80 -289 rmoveto
          20 20 25 8 25 hhcurveto
          47 23 -34 -107 -205 -57 -30 -36 -24 -15 7 7 -8 hvcurveto
          endchar
        </CharString>
        <CharString name="backslash">
          -41 -30 795 hstem
          10 309 vstem
          91 765 rmoveto
          -66 -15 -1 -12 -2 1 -4 1 -3 hvcurveto
          225 -773 rlineto
          66 16 0 12 2 -1 3 -1 3 hvcurveto
          endchar
        </CharString>
        <CharString name="bar">
          -46 -179 -21 hstem
          122 81 vstem
          203 815 rmoveto
          -80 -1 -1 -21 hvcurveto
          -993 vlineto
          78 3 0 20 hvcurveto
          endchar
        </CharString>
        <CharString name="becy">
          15 -10 68 384 68 228 -20 hstem
          37 86 147 88 vstem
          319 649 rmoveto
          27 9 8 11 12 vvcurveto
          11 -5 16 -11 30 vhcurveto
          -176 -67 rlineto
          -97 -37 -28 -73 -191 vvcurveto
          -98 vlineto
          -220 35 -62 121 106 59 76 198 183 -46 63 -91 -67 -31 -33 -76 -26 vhcurveto
          1 127 21 51 79 27 rrcurveto
          2 -164 rmoveto
          49 21 -43 -145 -155 -30 -41 -46 -48 -23 34 160 144 27 46 50 hvcurveto
          endchar
        </CharString>
        <CharString name="braceleft">
          -93 744 -20 hstem
          103 79 vstem
          244 744 rmoveto
          -90 -1 -65 -33 -84 vvcurveto
          -28 3 -30 4 -32 vhcurveto
          3 -35 4 -37 -37 vvcurveto
          -66 -20 -12 -25 -16 vhcurveto
          -10 -7 -7 -14 -19 vvcurveto
          -9 2 -13 5 -11 vhcurveto
          36 -7 19 -18 -53 vvcurveto
          -38 -3 -32 -4 -32 vhcurveto
          -3 -31 -4 -30 -34 vvcurveto
          -89 38 -46 100 18 10 17 27 8 -1 9 -1 13 vhcurveto
          -54 7 -28 14 77 vvcurveto
          24 3 26 2 28 vhcurveto
          3 32 3 35 38 vvcurveto
          60 -21 22 -33 13 vhcurveto
          32 14 22 23 66 vvcurveto
          38 -3 37 -3 33 vhcurveto
          -2 27 -3 25 22 vvcurveto
          53 26 24 48 4 vhcurveto
          9 2 6 11 15 vvcurveto
          16 -5 19 -11 15 vhcurveto
          endchar
        </CharString>
        <CharString name="braceright">
          -93 744 -20 hstem
          96 78 vstem
          33 -150 rmoveto
          90 65 34 84 28 -4 30 -3 32 hvcurveto
          -4 35 -3 36 38 vvcurveto
          66 19 11 25 17 vhcurveto
          11 7 7 14 19 vvcurveto
          9 -2 12 -5 12 vhcurveto
          -36 7 -19 18 53 vvcurveto
          38 3 32 4 32 vhcurveto
          3 31 4 30 34 vvcurveto
          88 -38 47 -100 -18 -11 -18 -25 -9 1 -10 3 -12 vhcurveto
          53 -7 28 -14 -76 vvcurveto
          -25 -2 -26 -3 -28 vhcurveto
          -2 -32 -3 -35 -38 vvcurveto
          -60 20 -22 33 -13 vhcurveto
          -32 -14 -21 -23 -66 vvcurveto
          -39 3 -36 3 -33 vhcurveto
          2 -27 2 -25 -23 vvcurveto
          -52 -26 -24 -47 -4 vhcurveto
          -10 -2 -5 -11 0 -15 0 -16 5 -19 10 -15 50 flex
          endchar
        </CharString>
        <CharString name="bracketleft">
          16 -199 76 870 74 hstem
          122 81 vstem
          184 821 rmoveto
          -61 -1 -4 -21 hvcurveto
          -995 227 vlineto
          23 4 1 75 hvcurveto
          -173 870 147 hlineto
          26 1 9 65 hvcurveto
          endchar
        </CharString>
        <CharString name="bracketright">
          16 -200 74 872 76 hstem
          183 81 vstem
          202 -200 rmoveto
          61 1 4 21 hvcurveto
          997 -227 vlineto
          -23 -4 -1 -75 hvcurveto
          173 -872 -147 hlineto
          -26 -1 -9 -65 hvcurveto
          endchar
        </CharString>
        <CharString name="breve">
          -101 557 77 76 -20 hstem
          5 259 vstem
          49 713 rmoveto
          -32 -11 -12 -12 -22 vvcurveto
          -42 57 -69 69 73 40 53 59 20 vhcurveto
          20 -3 -20 21 -17 hhcurveto
          -6 -5 -3 -7 -4 hvcurveto
          -29 -14 -18 -37 -45 hhcurveto
          -46 -26 49 30 -11 hvcurveto
          endchar
        </CharString>
        <CharString name="breve.cyr">
          -84 569 55 85 -20 hstem
          6 269 vstem
          57 713 rmoveto
          -35 -9 -17 -13 1 -21 rrcurveto
          -48 5 44 -53 81 hhcurveto
          82 31 41 63 26 hvcurveto
          18 -5 -27 18 -17 hhcurveto
          -6 -4 -2 -6 -1 hvcurveto
          -49 -15 -14 -28 -48 hhcurveto
          -52 -18 36 53 -11 hvcurveto
          endchar
        </CharString>
        <CharString name="brokenbar">
          -143 -172 -21 936 -20 hstem
          73 80 vstem
          153 737 rmoveto
          4 -12 -14 2 -12 hhcurveto
          -32 -10 -8 -24 hvcurveto
          -381 vlineto
          -3 13 18 -1 8 hhcurveto
          35 6 5 23 hvcurveto
          -135 vmoveto
          4 -12 -14 2 -12 hhcurveto
          -32 -10 -9 -24 hvcurveto
          -385 vlineto
          -4 13 18 -1 8 hhcurveto
          35 6 5 24 hvcurveto
          endchar
        </CharString>
        <CharString name="bullet">
          -147 208 153 hstem
          41 148 vstem
          41 284 rmoveto
          -47 19 -29 54 47 28 34 42 45 -21 32 -54 -46 -27 -36 -41 vhcurveto
          endchar
        </CharString>
        <CharString name="bulletoperator">
          -147 208 153 hstem
          41 148 vstem
          41 284 rmoveto
          -47 19 -29 54 47 28 34 42 45 -21 32 -54 -46 -27 -36 -41 vhcurveto
          endchar
        </CharString>
        <CharString name="c">
          -57 -10 72 377 71 hstem
          31 83 vstem
          294 465 rmoveto
          26 -37 19 -47 -82 -97 -31 -240 -211 53 -38 96 66 46 24 27 13 -3 13 -5 18 vhcurveto
          -12 -17 -30 -11 -33 hhcurveto
          -61 -29 35 141 179 54 22 46 28 27 -10 -9 16 hvcurveto
          7 17 2 17 11 vvcurveto
          endchar
        </CharString>
        <CharString name="cacute">
          -57 -10 72 377 71 hstem
          31 83 vstem
          118 560 rmoveto
          35 19 89 64 17 18 rrcurveto
          24 -4 -15 37 -19 hhcurveto
          -8 -80 -65 -52 -46 hvcurveto
          0 13 -45 18 vhcurveto
          176 -95 rmoveto
          26 -37 19 -47 -82 -97 -31 -240 -211 53 -38 96 66 46 24 27 13 -3 13 -5 18 vhcurveto
          -12 -17 -30 -11 -33 hhcurveto
          -61 -29 35 141 179 54 22 46 28 27 -10 -9 16 hvcurveto
          7 17 2 17 11 vvcurveto
          endchar
        </CharString>
        <CharString name="caron">
          -101 557 162 hstem
          18 234 vstem
          141 557 rmoveto
          16 95 104 19 13 -13 13 -19 11 hvcurveto
          0 -39 -32 -37 -52 vhcurveto
          0 -71 86 -18 -13 -17 -30 -21 -7 vhcurveto
          -20 14 90 -91 19 hhcurveto
          endchar
        </CharString>
        <CharString name="ccaron">
          -57 -10 72 377 71 hstem
          31 83 vstem
          173 557 rmoveto
          16 95 104 19 13 -13 13 -20 11 hvcurveto
          0 -38 -32 -37 -52 vhcurveto
          0 -72 86 -17 -14 -17 -30 -21 -7 vhcurveto
          -20 14 90 -91 20 hhcurveto
          121 -92 rmoveto
          26 -37 19 -47 -82 -97 -31 -240 -211 53 -38 96 66 46 24 27 13 -3 13 -5 18 vhcurveto
          -12 -17 -30 -11 -33 hhcurveto
          -61 -29 35 141 179 54 22 46 28 27 -10 -9 16 hvcurveto
          7 17 2 17 11 vvcurveto
          endchar
        </CharString>
        <CharString name="ccedilla">
          -57 -172 -21 98 37 48 72 377 71 hstem
          31 83 80 47 vstem
          122 -101 rmoveto
          0 16 6 26 18 12 -9 -25 -21 -10 -13 -22 -22 -16 17 -6 -7 vhcurveto
          -6 -7 -6 -34 0 vvcurveto
          0 25 -13 31 46 34 32 52 46 -25 18 -25 -12 -4 0 -1 -1 vhcurveto
          10 49 rlineto
          63 1 45 23 27 vvcurveto
          13 -3 13 -5 18 vhcurveto
          -12 -17 -30 -11 -33 hhcurveto
          -61 -29 35 141 179 54 22 46 28 27 -10 -9 16 hvcurveto
          7 17 2 17 11 vvcurveto
          26 -37 19 -47 -82 -97 -31 -240 -179 38 -55 70 -12 vhcurveto
          endchar
        </CharString>
        <CharString name="cedilla">
          -101 -172 -21 98 37 hstem
          159 47 vstem
          152 2 rmoveto
          -45 hlineto
          -19 -103 rlineto
          0 16 6 25 19 11 -9 -25 -21 -10 -13 -21 -22 -16 17 -6 -7 vhcurveto
          -6 -7 -7 -34 0 vvcurveto
          0 25 -13 31 46 34 32 52 46 -25 18 -24 -12 -4 0 -1 -1 vhcurveto
          endchar
        </CharString>
        <CharString name="cent">
          48 -9 73 444 -20 hstem
          83 81 49 73 vstem
          286 626 rmoveto
          -48 -25 -7 -27 hvcurveto
          -88 vlineto
          -67 -17 -63 -63 -196 vvcurveto
          -180 40 -44 67 -11 vhcurveto
          -126 vlineto
          49 24 4 27 hvcurveto
          93 vlineto
          43 4 37 24 18 vvcurveto
          12 -2 24 -6 15 vhcurveto
          -13 -18 -33 -11 -27 hhcurveto
          -63 -30 12 155 184 55 20 50 28 22 -8 -10 18 hvcurveto
          8 20 0 34 4 vvcurveto
          12 -27 15 -32 6 vhcurveto
          endchar
        </CharString>
        <CharString name="checy">
          0 21 -21 178 70 252 -20 hstem
          35 80 123 81 vstem
          319 500 rmoveto
          -81 0 0 -16 hvcurveto
          -226 vlineto
          -6 -17 -23 -4 -22 hhcurveto
          -45 -16 20 58 hvcurveto
          174 vlineto
          -80 0 0 -16 hvcurveto
          -168 vlineto
          -105 39 -33 85 27 29 4 5 23 vhcurveto
          -187 vlineto
          82 -1 0 16 hvcurveto
          endchar
        </CharString>
        <CharString name="circumflex">
          -101 561 150 hstem
          8 253 vstem
          8 585 rmoveto
          -13 11 17 -10 27 hhcurveto
          18 57 76 0 hvcurveto
          13 -24 53 -53 0 vvcurveto
          29 28 9 14 16 -97 99 0 hvcurveto
          8 -7 -10 4 -8 hhcurveto
          -6 -6 -1 -2 -5 hvcurveto
          endchar
        </CharString>
        <CharString name="colon">
          -187 -6 114 221 114 hstem
          38 111 vstem
          38 386 rmoveto
          -36 14 -21 41 35 21 25 32 34 -15 23 -41 -35 -20 -27 -30 vhcurveto
          -335 vmoveto
          -36 14 -21 41 35 21 25 32 34 -15 23 -41 -35 -20 -27 -30 vhcurveto
          endchar
        </CharString>
        <CharString name="comma">
          -187 -103 209 hstem
          67 81 vstem
          43 54 rmoveto
          -22 7 -16 17 -11 vhcurveto
          -2 -28 -4 -19 -23 -38 rrcurveto
          -17 4 13 -6 15 hhcurveto
          18 60 77 73 41 -19 18 -35 -30 -21 -22 -30 hvcurveto
          endchar
        </CharString>
        <CharString name="commaaccent">
          -370 -255 209 hstem
          84 105 vstem
          84 -98 rmoveto
          -22 6 -16 17 -11 vhcurveto
          -2 -28 -3 -19 -23 -38 rrcurveto
          -17 4 13 -6 14 hhcurveto
          19 60 77 73 41 -20 18 -35 -29 -21 -23 -29 hvcurveto
          endchar
        </CharString>
        <CharString name="copyright">
          101 320 58 38 41 171 40 37 55 hstem
          36 60 61 47 171 61 vstem
          36 541 rmoveto
          -163 67 -58 131 131 71 80 143 161 -63 56 -131 -130 -76 -68 -151 vhcurveto
          60 hmoveto
          122 59 42 86 89 45 -48 -113 -120 -64 -46 -79 -87 -49 39 124 vhcurveto
          198 111 rmoveto
          7 -25 9 -20 -41 -51 -15 -122 -102 28 -13 58 24 26 12 9 5 -3 16 -4 9 vhcurveto
          -5 -10 -16 -5 -13 hhcurveto
          -29 -14 6 66 90 26 9 24 13 11 -4 -4 10 hvcurveto
          2 8 4 18 6 vvcurveto
          endchar
        </CharString>
        <CharString name="currency">
          201 52 69 318 67 hstem
          87 80 240 77 vstem
          460 148 rmoveto
          16 36 8 46 56 vvcurveto
          47 -6 39 -12 31 vhcurveto
          82 82 rlineto
          3 2 1 3 3 vvcurveto
          11 -15 15 -27 27 vhcurveto
          -84 -83 rlineto
          29 -31 -45 14 -59 hhcurveto
          -63 -47 -15 -30 -34 hvcurveto
          -74 74 rlineto
          3 -2 -3 1 -3 hhcurveto
          -11 -15 -15 -28 -27 hvcurveto
          95 -95 rlineto
          -13 -33 -7 -42 -50 vvcurveto
          -53 8 -43 15 -33 vhcurveto
          -86 -87 rlineto
          -3 -2 -2 -3 -3 vvcurveto
          -11 15 -15 28 -28 vhcurveto
          91 92 rlineto
          -25 32 44 -13 57 hhcurveto
          56 44 13 26 31 hvcurveto
          81 -81 rlineto
          -2 3 2 -2 4 hhcurveto
          10 15 15 28 28 hvcurveto
          -272 72 rmoveto
          -82 -39 48 102 114 41 54 87 75 37 -48 -103 -114 -39 -53 -80 hvcurveto
          endchar
        </CharString>
        <CharString name="d">
          11 -10 72 378 70 225 -20 hstem
          31 89 136 81 vstem
          256 490 rmoveto
          13 -17 -23 7 -32 hhcurveto
          -85 -68 -80 -198 -217 75 -25 87 62 48 14 16 34 hvcurveto
          715 vlineto
          -66 -15 0 -37 hvcurveto
          -621 vmoveto
          -11 -16 -21 -4 -23 hhcurveto
          -47 -29 28 151 164 45 35 45 20 13 -3 -10 13 hvcurveto
          endchar
        </CharString>
        <CharString name="dagger">
          60 15 -21 523 -20 210 -20 hstem
          183 65 vstem
          196 502 rmoveto
          -4 6 8 -3 7 hhcurveto
          9 9 5 13 3 hvcurveto
          22 176 rlineto
          12 -9 -16 6 -16 hhcurveto
          -25 -26 -13 -25 5 hvcurveto
          78 -177 rmoveto
          -4 -6 -2 -8 -7 vvcurveto
          -9 5 -9 11 -4 vhcurveto
          121 -21 rlineto
          11 9 6 18 16 vvcurveto
          24 -9 22 -18 -3 -4 0 -2 -4 vhcurveto
          -180 -64 rmoveto
          4 6 3 7 8 vvcurveto
          9 -5 8 -13 5 vhcurveto
          -121 23 rlineto
          -13 -11 -6 -17 -17 vvcurveto
          -23 15 -24 24 5 vhcurveto
          168 7 rmoveto
          4 -6 -8 4 -8 hhcurveto
          -10 -9 -6 -14 -2 hvcurveto
          -22 -413 rlineto
          -12 9 18 -6 16 hhcurveto
          24 23 13 26 -3 hvcurveto
          endchar
        </CharString>
        <CharString name="daggerdbl">
          60 18 -21 520 -20 210 -20 hstem
          189 53 vstem
          196 502 rmoveto
          -4 6 8 -3 7 hhcurveto
          9 9 5 13 3 hvcurveto
          22 176 rlineto
          12 -9 -16 6 -16 hhcurveto
          -25 -26 -13 -25 5 hvcurveto
          78 -177 rmoveto
          -4 -6 -2 -8 -7 vvcurveto
          -9 5 -9 11 -4 vhcurveto
          121 -21 rlineto
          11 9 6 18 16 vvcurveto
          24 -9 22 -18 -3 -4 0 -2 -4 vhcurveto
          -180 -64 rmoveto
          4 6 3 7 8 vvcurveto
          9 -5 8 -13 5 vhcurveto
          -121 23 rlineto
          -13 -11 -6 -17 -17 vvcurveto
          -23 15 -24 24 5 vhcurveto
          120 -176 rmoveto
          -4 10 9 -2 8 hhcurveto
          15 11 8 14 hvcurveto
          169 vlineto
          5 -9 -9 2 -8 hhcurveto
          -16 -11 -8 -16 hvcurveto
          -10 -221 rmoveto
          3 7 3 8 6 vvcurveto
          10 -5 9 -12 3 vhcurveto
          -120 22 rlineto
          -12 -9 -6 -18 -16 vvcurveto
          -24 10 -23 18 3 3 1 2 4 vhcurveto
          180 63 rmoveto
          -4 -6 -3 -7 -7 vvcurveto
          -10 5 -8 14 -5 vhcurveto
          121 -23 rlineto
          12 11 6 17 16 vvcurveto
          24 -14 24 -24 -5 vhcurveto
          -127 -71 rmoveto
          4 -6 -7 3 -7 hhcurveto
          -10 -9 -5 -13 -3 hvcurveto
          -22 -166 rlineto
          -12 9 16 -6 16 hhcurveto
          26 25 12 26 -5 hvcurveto
          endchar
        </CharString>
        <CharString name="dcaron">
          109 -10 72 378 70 225 -20 hstem
          31 89 136 81 vstem
          256 490 rmoveto
          13 -17 -23 7 -32 hhcurveto
          -85 -68 -80 -198 -217 75 -25 87 62 48 14 16 34 hvcurveto
          715 vlineto
          -66 -15 0 -37 hvcurveto
          125 -52 rmoveto
          -22 6 -16 17 -10 vhcurveto
          -2 -29 -2 -29 -20 -39 rrcurveto
          -17 4 12 -5 15 hhcurveto
          19 56 87 73 41 -20 18 -35 -29 -21 -22 -30 hvcurveto
          -125 -569 rmoveto
          -11 -16 -21 -4 -23 hhcurveto
          -47 -29 28 151 164 45 35 45 20 13 -3 -10 13 hvcurveto
          endchar
        </CharString>
        <CharString name="dcroat">
          34 -10 72 378 70 67 158 hstem
          31 89 136 81 vstem
          337 653 rmoveto
          82 vlineto
          -66 -15 0 -37 hvcurveto
          -45 -73 vlineto
          -20 -12 -16 -23 -1 hvcurveto
          -12 1 -11 5 -14 vhcurveto
          100 -87 hlineto
          13 -17 -23 7 -32 hhcurveto
          -85 -68 -80 -198 -217 75 -25 87 62 48 14 16 34 hvcurveto
          557 50 vlineto
          19 12 18 24 11 -2 11 -5 12 hvcurveto
          -155 -576 rmoveto
          -11 -16 -21 -4 -23 hhcurveto
          -47 -29 28 151 164 45 35 45 20 13 -3 -10 13 hvcurveto
          endchar
        </CharString>
        <CharString name="decy">
          65 0 76 356 68 hstem
          29 72 187 80 vstem
          419 76 rmoveto
          -51 424 -195 hlineto
          -41 -3 -2 -22 -1 hvcurveto
          -15 -284 -23 -86 -30 -30 rrcurveto
          -31 -211 hlineto
          -21 11 -2 37 vhcurveto
          13 57 8 53 3 48 rrcurveto
          245 hlineto
          3 -48 8 -53 13 -57 rrcurveto
          38 11 2 21 hvcurveto
          -131 567 rmoveto
          -356 -144 vlineto
          26 46 17 81 13 229 rrcurveto
          endchar
        </CharString>
        <CharString name="degree">
          -12 553 51 90 52 hstem
          84 54 85 53 vstem
          84 649 rmoveto
          -77 33 -19 60 64 35 32 65 74 -29 22 -63 -63 -37 -30 -67 vhcurveto
          54 -1 rmoveto
          34 17 12 29 26 13 -12 -32 -34 -18 -12 -26 -27 -14 13 31 vhcurveto
          endchar
        </CharString>
        <CharString name="dieresis">
          -101 572 117 hstem
          34 83 36 83 vstem
          78 689 rmoveto
          -30 -14 -22 -35 -45 14 -15 25 30 14 24 40 38 -10 15 -29 hvcurveto
          119 hmoveto
          -30 -14 -23 -36 -43 14 -15 26 28 15 24 40 38 -10 15 -29 hvcurveto
          endchar
        </CharString>
        <CharString name="divide">
          48 247 70 hstem
          159 99 vstem
          159 427 rmoveto
          -32 12 -19 37 31 19 23 28 30 -14 21 -36 -32 -17 -24 -27 vhcurveto
          209 -180 rmoveto
          16 0 20 50 hvcurveto
          -333 hlineto
          -17 0 -20 -50 hvcurveto
          125 -115 rmoveto
          -32 12 -19 37 31 19 23 28 30 -14 21 -36 -32 -17 -24 -27 vhcurveto
          endchar
        </CharString>
        <CharString name="divisionslash">
          -175 11 -21 720 -20 hstem
          -94 419 vstem
          325 682 rmoveto
          19 -17 -21 9 -17 hhcurveto
          -17 -7 -9 -10 -4 hvcurveto
          -336 -672 rlineto
          -18 16 24 -11 16 hhcurveto
          14 7 8 7 3 hvcurveto
          endchar
        </CharString>
        <CharString name="djecy">
          25 -179 76 124 -21 435 75 71 154 hstem
          49 80 136 83 vstem
          129 581 rmoveto
          116 hlineto
          19 12 15 21 10 -2 10 -6 10 hvcurveto
          -139 88 hlineto
          -66 -14 0 -37 hvcurveto
          -51 -37 vlineto
          -20 -13 -14 -21 1 hvcurveto
          -9 1 -10 5 -12 vhcurveto
          63 -581 hlineto
          80 0 0 16 hvcurveto
          392 vlineto
          21 25 30 6 22 hhcurveto
          47 12 -24 -73 hvcurveto
          -189 vlineto
          -190 -17 -62 -78 -21 -23 4 6 -21 vhcurveto
          -5 -10 -4 -12 -13 vvcurveto
          -26 35 -25 50 128 37 97 231 2 vhcurveto
          212 vlineto
          111 -1 -25 38 -81 hhcurveto
          -37 -44 -12 -27 -31 hvcurveto
          endchar
        </CharString>
        <CharString name="dollar">
          48 18 -21 549 70 121 -20 hstem
          181 73 vstem
          185 409 rmoveto
          -29 31 -14 21 28 vvcurveto
          42 38 15 59 46 39 -12 -9 13 vhcurveto
          15 17 5 27 12 vvcurveto
          9 -27 21 -76 5 vhcurveto
          121 vlineto
          -48 -25 -5 -28 hvcurveto
          -89 vlineto
          -81 -10 -47 -46 -71 vvcurveto
          -36 17 -36 37 -39 vhcurveto
          112 -113 rlineto
          41 -44 14 -24 -38 vvcurveto
          -55 -30 -31 -63 -52 -35 14 16 -20 vhcurveto
          -12 -16 -9 -40 -9 vvcurveto
          -14 34 -26 77 -4 vhcurveto
          -115 vlineto
          49 24 4 27 hvcurveto
          88 vlineto
          96 17 30 67 76 vvcurveto
          52 -17 39 -40 40 vhcurveto
          endchar
        </CharString>
        <CharString name="dotaccent">
          -101 570 122 hstem
          92 86 vstem
          92 630 rmoveto
          -45 15 -15 25 31 15 24 42 40 -10 16 -30 -32 -14 -25 -37 vhcurveto
          endchar
        </CharString>
        <CharString name="dotlessi">
          -195 21 -21 500 -20 hstem
          47 81 vstem
          128 500 rmoveto
          -65 -16 0 -37 hvcurveto
          -463 vlineto
          81 0 0 16 hvcurveto
          endchar
        </CharString>
        <CharString name="dotlessj">
          -186 -196 74 622 -20 hstem
          54 80 vstem
          134 500 rmoveto
          -65 -15 0 -37 hvcurveto
          -487 vlineto
          -69 -8 -29 -52 -35 -27 8 12 -23 vhcurveto
          -9 -11 -3 -16 -14 vvcurveto
          -32 33 -21 74 107 23 72 88 vhcurveto
          endchar
        </CharString>
        <CharString name="dzecy">
          -24 -10 73 377 70 hstem
          31 94 101 92 vstem
          186 203 rmoveto
          31 -27 9 -24 -28 vvcurveto
          -40 -30 -21 -52 -39 -31 7 17 -29 vhcurveto
          -11 -17 -4 -17 -13 vvcurveto
          -33 51 -17 71 102 64 50 89 50 -16 33 -44 42 vhcurveto
          -93 75 rlineto
          -34 28 -6 16 18 vvcurveto
          31 31 18 48 38 30 -8 -19 31 vhcurveto
          10 12 7 17 12 vvcurveto
          20 -23 36 -102 -112 -52 -48 -70 -33 12 -36 46 -37 vhcurveto
          endchar
        </CharString>
        <CharString name="dzhecy">
          24 0 76 424 -20 hstem
          51 81 32 59.5 38.5 81 vstem
          343 500 rmoveto
          -81 0 0 -16 hvcurveto
          -408 -130 424 vlineto
          -81 0 0 -16 hvcurveto
          -484 104 vlineto
          9 -150 rlineto
          -3 10 -3 12 15 18 5 16 1 vhcurveto
          7 135 rlineto
          80 hlineto
          34 2 3 16 hvcurveto
          endchar
        </CharString>
        <CharString name="e">
          -9 -10 78 136 65 170 71 hstem
          30 83 143 78 vstem
          207 68 rmoveto
          -61 -29 28 108 -4 hvcurveto
          50 94 3 13 66 hvcurveto
          8 36 3 49 45 vvcurveto
          107 -43 53 -84 -88 -89 -36 -250 -196 67 -38 93 75 63 24 31 16 -2 23 -5 16 vhcurveto
          -20 -34 -40 -12 -40 hhcurveto
          -9 371 rmoveto
          44 13 -26 -73 1 hvcurveto
          -19 -1 -23 -4 -18 vhcurveto
          -35 -10 -64 -2 -39 1 rrcurveto
          136 7 36 34 42 hhcurveto
          endchar
        </CharString>
        <CharString name="eacute">
          -9 -10 78 136 65 170 71 hstem
          30 83 143 78 vstem
          132 560 rmoveto
          35 19 89 64 16 18 rrcurveto
          24 -4 -14 37 -19 hhcurveto
          -8 -80 -65 -52 -46 hvcurveto
          0 13 -45 18 vhcurveto
          75 -492 rmoveto
          -61 -29 28 108 -4 hvcurveto
          50 94 3 13 66 hvcurveto
          8 36 3 49 45 vvcurveto
          107 -43 53 -84 -88 -89 -36 -250 -196 67 -38 93 75 63 24 31 16 -2 23 -5 16 vhcurveto
          -20 -34 -40 -12 -40 hhcurveto
          -9 371 rmoveto
          44 13 -26 -73 1 hvcurveto
          -19 -1 -23 -4 -18 vhcurveto
          -35 -10 -64 -2 -39 1 rrcurveto
          136 7 36 34 42 hhcurveto
          endchar
        </CharString>
        <CharString name="ecaron">
          -9 -10 78 136 65 170 71 hstem
          30 83 143 78 vstem
          187 557 rmoveto
          16 95 104 19 13 -13 13 -20 11 hvcurveto
          0 -39 -32 -36 -52 vhcurveto
          0 -72 86 -17 -14 -17 -30 -21 -7 vhcurveto
          -20 14 90 -91 20 hhcurveto
          20 -489 rmoveto
          -61 -29 28 108 -4 hvcurveto
          50 94 3 13 66 hvcurveto
          8 36 3 49 45 vvcurveto
          107 -43 53 -84 -88 -89 -36 -250 -196 67 -38 93 75 63 24 31 16 -2 23 -5 16 vhcurveto
          -20 -34 -40 -12 -40 hhcurveto
          -9 371 rmoveto
          44 13 -26 -73 1 hvcurveto
          -19 -1 -23 -4 -18 vhcurveto
          -35 -10 -64 -2 -39 1 rrcurveto
          136 7 36 34 42 hhcurveto
          endchar
        </CharString>
        <CharString name="ecircumflex">
          -9 -10 78 136 65 170 71 hstem
          30 83 143 78 vstem
          53 585 rmoveto
          -13 11 18 -10 27 hhcurveto
          17 58 76 0 hvcurveto
          13 -24 53 -53 0 vvcurveto
          29 28 9 14 16 -97 99 0 hvcurveto
          8 -8 -9 4 -8 hhcurveto
          -7 -5 -1 -2 -5 hvcurveto
          39 -640 rmoveto
          -61 -29 28 108 -4 hvcurveto
          50 94 3 13 66 hvcurveto
          8 36 3 49 45 vvcurveto
          107 -43 53 -84 -88 -89 -36 -250 -196 67 -38 93 75 63 24 31 16 -2 23 -5 16 vhcurveto
          -20 -34 -40 -12 -40 hhcurveto
          -9 371 rmoveto
          44 13 -26 -73 1 hvcurveto
          -19 -1 -23 -4 -18 vhcurveto
          -35 -10 -64 -2 -39 1 rrcurveto
          136 7 36 34 42 hhcurveto
          endchar
        </CharString>
        <CharString name="ecy">
          -62 -13 72 156 69 155 71 hstem
          27 84 vstem
          247 215 rmoveto
          63 -1 6 -18 vhcurveto
          -117 hlineto
          144 4 46 11 41 hhcurveto
          31 29 -11 -10 16 hvcurveto
          5 13 5 15 12 vvcurveto
          28 -36 24 -63 -67 -95 -17 -231 -227 58 -48 106 48 49 26 22 12 -3 19 -5 18 vhcurveto
          -12 -19 -32 -13 -30 hhcurveto
          -53 -30 34 122 -4 hvcurveto
          endchar
        </CharString>
        <CharString name="edieresis">
          -9 -10 78 136 65 170 71 62 117 hstem
          30 83 143 78 vstem
          207 68 rmoveto
          -61 -29 28 108 -4 hvcurveto
          50 94 3 13 66 hvcurveto
          8 36 3 49 45 vvcurveto
          107 -43 53 -84 -88 -89 -36 -250 -196 67 -38 93 75 63 24 31 16 -2 23 -5 16 vhcurveto
          -20 -34 -40 -12 -40 hhcurveto
          -9 371 rmoveto
          44 13 -26 -73 1 hvcurveto
          -19 -1 -23 -4 -18 vhcurveto
          -35 -10 -64 -2 -39 1 rrcurveto
          136 7 36 34 42 hhcurveto
          -80 133 rmoveto
          30 14 23 39 1 hvcurveto
          40 -10 15 -29 -30 -14 -22 -35 vhcurveto
          -1 -45 15 -14 24 -1 rrcurveto
          120 hmoveto
          28 15 23 39 hvcurveto
          40 1 -10 15 -29 hhcurveto
          -30 -14 -22 -35 -1 hvcurveto
          -45 14 -14 26 -1 vhcurveto
          endchar
        </CharString>
        <CharString name="edotaccent">
          -9 -10 78 136 65 170 71 hstem
          30 83 143 78 vstem
          178 570 rmoveto
          30 15 24 40 hvcurveto
          42 1 -10 16 -31 hhcurveto
          -31 -15 -24 -36 -47 15 -15 26 hvcurveto
          29 -502 rmoveto
          -61 -29 28 108 -4 hvcurveto
          50 94 3 13 66 hvcurveto
          8 36 3 49 45 vvcurveto
          107 -43 53 -84 -88 -89 -36 -250 -196 67 -38 93 75 63 24 31 16 -2 23 -5 16 vhcurveto
          -20 -34 -40 -12 -40 hhcurveto
          -9 371 rmoveto
          44 13 -26 -73 1 hvcurveto
          -19 -1 -23 -4 -18 vhcurveto
          -35 -10 -64 -2 -39 1 rrcurveto
          136 7 36 34 42 hhcurveto
          endchar
        </CharString>
        <CharString name="efcy">
          143 -174 -21 208 -21 517 -20 246 -20 hstem
          34 81 105 72 109 81 vstem
          292 735 rmoveto
          -59 -13 -2 -34 hvcurveto
          -192 vlineto
          -135 -13 -51 -81 -163 vvcurveto
          -195 55 -59 131 -5 vhcurveto
          -186 vlineto
          -2 14 9 -1 12 hhcurveto
          32 5 7 26 hvcurveto
          157 vlineto
          136 11 54 74 175 vvcurveto
          174 -52 75 -138 8 vhcurveto
          -67 vmoveto
          90 -9 19 -56 -125 vvcurveto
          -123 -24 -58 -85 -13 vhcurveto
          -72 hmoveto
          -84 11 -21 55 123 vvcurveto
          124 23 57 82 13 vhcurveto
          endchar
        </CharString>
        <CharString name="egrave">
          -9 -10 78 136 65 170 71 hstem
          30 83 143 78 vstem
          241 553 rmoveto
          19 12 45 0 hvcurveto
          53 -45 -81 65 -8 hhcurveto
          -18 -15 -37 -24 -4 hvcurveto
          16 -19 90 -64 34 -19 rrcurveto
          -34 -485 rmoveto
          -61 -29 28 108 -4 hvcurveto
          50 94 3 13 66 hvcurveto
          8 36 3 49 45 vvcurveto
          107 -43 53 -84 -88 -89 -36 -250 -196 67 -38 93 75 63 24 31 16 -2 23 -5 16 vhcurveto
          -20 -34 -40 -12 -40 hhcurveto
          -9 371 rmoveto
          44 13 -26 -73 1 hvcurveto
          -19 -1 -23 -4 -18 vhcurveto
          -35 -10 -64 -2 -39 1 rrcurveto
          136 7 36 34 42 hhcurveto
          endchar
        </CharString>
        <CharString name="eight">
          48 -8 77 561 76 hstem
          32 75 206 74 vstem
          333 323 rmoveto
          -16 16 -19 15 -19 15 rrcurveto
          54 37 54 51 87 vvcurveto
          130 -86 32 -91 -93 -78 -56 -116 -40 14 -39 28 -26 vhcurveto
          17 -19 23 -17 25 -17 rrcurveto
          -64 -38 -50 -68 -87 vvcurveto
          -105 52 -86 134 116 58 85 105 60 -22 43 -37 38 vhcurveto
          -113 307 rmoveto
          47 46 -26 -63 -55 -43 -43 -51 -32 hvcurveto
          -25 17 -22 16 -13 13 rrcurveto
          -26 21 -14 26 35 vvcurveto
          64 46 27 55 vhcurveto
          -7 -561 rmoveto
          -66 -40 46 73 66 46 49 57 30 hvcurveto
          22 -15 20 -16 16 -16 rrcurveto
          24 -22 21 -26 -55 vvcurveto
          -70 -39 -44 -61 vhcurveto
          endchar
        </CharString>
        <CharString name="elcy">
          28 21 -21 432 68 hstem
          105 76 84 82 vstem
          347 500 rmoveto
          -173 hlineto
          -66 -2 -3 -20 -1 hvcurveto
          -19 -310 -10 -106 -74 -1 rrcurveto
          -1 -7 -1 -6 -5 vvcurveto
          -33 18 -13 26 88 31 132 304 18 vhcurveto
          84 -432 hlineto
          85 -3 0 16 hvcurveto
          endchar
        </CharString>
        <CharString name="ellipsis">
          151 -6 114 hstem
          36 111 58 111 59 111 vstem
          375 51 rmoveto
          -36 14 -21 41 35 21 25 32 34 -15 23 -41 -35 -20 -27 -30 vhcurveto
          -170 hmoveto
          -36 14 -21 41 35 21 25 32 34 -15 23 -41 -35 -20 -27 -30 vhcurveto
          -169 hmoveto
          -36 14 -21 41 35 21 25 32 34 -15 23 -41 -35 -20 -27 -30 vhcurveto
          endchar
        </CharString>
        <CharString name="emacron">
          -9 -10 78 136 65 170 71 77 76 hstem
          30 83 143 78 vstem
          283 587 rmoveto
          19 12 18 24 11 -2 11 -5 12 hvcurveto
          -228 hlineto
          -20 -12 -16 -23 -1 hvcurveto
          -12 1 -11 5 -14 vhcurveto
          155 -519 rmoveto
          -61 -29 28 108 -4 hvcurveto
          50 94 3 13 66 hvcurveto
          8 36 3 49 45 vvcurveto
          107 -43 53 -84 -88 -89 -36 -250 -196 67 -38 93 75 63 24 31 16 -2 23 -5 16 vhcurveto
          -20 -34 -40 -12 -40 hhcurveto
          -9 371 rmoveto
          44 13 -26 -73 1 hvcurveto
          -19 -1 -23 -4 -18 vhcurveto
          -35 -10 -64 -2 -39 1 rrcurveto
          136 7 36 34 42 hhcurveto
          endchar
        </CharString>
        <CharString name="emcy">
          110 21 -21 489 11 hstem
          51 72 231 74 vstem
          51 hmoveto
          67 5 1 10 hvcurveto
          171 vlineto
          1 15 0 16 16 vvcurveto
          45 -1 53 -3 56 vhcurveto
          1 1 19 -52 31 -93 4 -14 rlinecurve
          42 -114 rlineto
          34 hlineto
          5 3 2 3 2 hvcurveto
          42 109 7 18 37 105 12 39 rlinecurve
          -3 -85 -2 -67 -57 vvcurveto
          -178 vlineto
          73 1 0 11 hvcurveto
          489 -76 vlineto
          -11 -1 -4 -7 -4 hvcurveto
          -66 -191 -11 -35 -12 -41 -5 -19 rlinecurve
          0 -16 51 -10 26 vhcurveto
          -78 220 rlineto
          -72 hlineto
          -15 0 -11 0 hvcurveto
          endchar
        </CharString>
        <CharString name="emdash">
          330 247 70 hstem
          6 688 vstem
          678 247 rmoveto
          16 0 20 50 hvcurveto
          -672 hlineto
          -16 0 -20 -50 hvcurveto
          endchar
        </CharString>
        <CharString name="ency">
          28 21 -21 215 70 215 -20 hstem
          51 82 132 81 vstem
          346 500 rmoveto
          -80 -1 0 -16 hvcurveto
          -199 -132 215 vlineto
          -84 2 0 -16 hvcurveto
          -484 vlineto
          83 -1 0 16 hvcurveto
          199 132 -215 vlineto
          83 -2 0 16 hvcurveto
          endchar
        </CharString>
        <CharString name="endash">
          54 247 70 hstem
          37 350 vstem
          371 247 rmoveto
          16 0 20 50 hvcurveto
          -333 hlineto
          -17 0 -20 -50 hvcurveto
          endchar
        </CharString>
        <CharString name="endescendercy">
          43 0 76 139 70 215 -20 hstem
          51 82 132 81 vstem
          397 76 rmoveto
          -51 424 hlineto
          -80 -1 0 -16 hvcurveto
          -199 -132 215 vlineto
          -84 2 0 -16 hvcurveto
          -484 vlineto
          83 -1 0 16 hvcurveto
          199 132 -215 60 vlineto
          2 -48 9 -53 12 -57 rrcurveto
          38 11 2 21 hvcurveto
          endchar
        </CharString>
        <CharString name="eogonek">
          -9 -195 59 126 78 136 65 170 71 hstem
          30 83 143 78 vstem
          207 510 rmoveto
          -88 -89 -36 -250 -193 65 -40 92 -1 hvcurveto
          9 10 1 2 8 hvcurveto
          -17 -28 -15 -37 -38 vvcurveto
          -63 35 -22 48 29 21 6 15 7 vhcurveto
          1 3 1 4 5 vvcurveto
          3 vlineto
          7 -3 12 -5 11 vhcurveto
          -6 -11 -8 -1 -10 hhcurveto
          -23 -10 12 24 44 27 48 31 27 hvcurveto
          8 7 8 9 10 vvcurveto
          16 -2 23 -5 16 vhcurveto
          -20 -34 -40 -12 -40 hhcurveto
          -59 -33 23 113 -2 hvcurveto
          42 98 2 14 70 hvcurveto
          8 36 3 49 45 vvcurveto
          107 -43 53 -84 vhcurveto
          -9 -71 rmoveto
          44 13 -26 -73 1 hvcurveto
          -19 -1 -23 -4 -18 vhcurveto
          -11 -40 -70 0 -28 hhcurveto
          139 5 39 31 41 hhcurveto
          endchar
        </CharString>
        <CharString name="equal">
          48 154 70 115 71 hstem
          34 350 vstem
          368 339 rmoveto
          16 0 21 50 hvcurveto
          -333 hlineto
          -17 0 -20 -51 hvcurveto
          334 -185 rmoveto
          16 0 20 50 hvcurveto
          -333 hlineto
          -17 0 -20 -50 hvcurveto
          endchar
        </CharString>
        <CharString name="ercy">
          12 -170 -21 181 72 378 70 hstem
          46 81 139 89 vstem
          46 -162 rmoveto
          -28 11 -7 28 13 16 2 4 13 vhcurveto
          209 vlineto
          -15 15 27 -13 37 hhcurveto
          68 81 43 269 164 -64 44 -99 -54 -51 -14 -26 -41 hvcurveto
          81 -49 rmoveto
          12 17 20 7 24 hhcurveto
          52 26 -27 -120 -209 -53 -22 -32 -20 -20 10 23 -14 hvcurveto
          endchar
        </CharString>
        <CharString name="ereversedcy">
          -57 -13 72 156 69 158 71 hstem
          201 85 vstem
          80 284 rmoveto
          -17 -1 -7 -62 hvcurveto
          139 hlineto
          -122 -4 -29 -34 -54 hhcurveto
          -28 -40 13 12 -18 hvcurveto
          -5 -16 -3 -19 -11 vvcurveto
          -26 45 -25 63 103 55 54 209 237 -84 26 -82 -53 -45 -13 -35 -11 3 -17 6 -16 vhcurveto
          10 17 28 11 36 hhcurveto
          38 48 -13 -145 4 hvcurveto
          endchar
        </CharString>
        <CharString name="escy">
          -57 -10 72 377 71 hstem
          31 83 vstem
          294 465 rmoveto
          26 -37 19 -47 -82 -97 -31 -240 -211 53 -38 96 66 46 24 27 13 -3 13 -5 18 vhcurveto
          -12 -17 -30 -11 -33 hhcurveto
          -61 -29 35 141 179 54 22 46 28 27 -10 -9 16 hvcurveto
          7 17 2 17 11 vvcurveto
          endchar
        </CharString>
        <CharString name="estimated">
          439 18 18 276 16 275 18 hstem
          70 122 426 122 vstem
          740 312 rmoveto
          7 vlineto
          167 -150 135 -185 -185 -150 -135 -167 -166 150 -135 185 107 98 47 70 60 vhcurveto
          -49 hlineto
          -60 -51 -78 -39 -86 hhcurveto
          -81 -74 34 55 -51 hvcurveto
          -4 5 -4 6 8 vvcurveto
          164 vlineto
          3 2 1 3 vhcurveto
          421 21 rmoveto
          -3 -2 -2 -3 vhcurveto
          -416 hlineto
          -3 -2 2 3 hvcurveto
          162 vlineto
          8 4 7 5 5 vhcurveto
          54 52 72 34 81 hhcurveto
          79 72 -33 -52 52 hvcurveto
          5 -5 4 -7 -8 vvcurveto
          endchar
        </CharString>
        <CharString name="eth">
          38 -10 68 379 72 198 -20 57 -20 hstem
          30 82 186 82 vstem
          336 646 rmoveto
          6 2 2 4 7 vvcurveto
          11 -7 18 -11 29 vhcurveto
          -69 -27 -14 15 -14 14 -16 13 rlinecurve
          8 -7 -12 4 -11 hhcurveto
          -22 -24 -14 -23 -12 hvcurveto
          19 -16 17 -15 16 -17 -58 -22 rcurveline
          -6 -3 -2 -4 -7 vvcurveto
          -11 7 -18 11 -29 vhcurveto
          95 37 24 -36 18 -40 12 -47 rlinecurve
          20 -22 -29 10 -37 hhcurveto
          -97 -63 -88 -164 -196 58 -71 121 144 27 138 161 147 -27 112 -52 84 hvcurveto
          -94 -574 rmoveto
          -61 -34 56 130 108 32 85 68 33 27 -15 -35 22 hvcurveto
          3 -31 1 -33 -37 vvcurveto
          -124 -8 -104 -83 vhcurveto
          endchar
        </CharString>
        <CharString name="euro">
          48 -9 78 129 67 75 67 125 74 hstem
          102 86 vstem
          278 198 rmoveto
          28 4 19 48 hvcurveto
          -122 12 hlineto
          23 1 21 1 19 vhcurveto
          121 hlineto
          28 4 18 49 hvcurveto
          -144 hlineto
          108 23 53 17 41 hhcurveto
          28 29 -13 -7 9 hvcurveto
          8 10 5 22 22 vvcurveto
          13 -25 27 -73 -72 -85 -29 -170 -28 vhcurveto
          -64 hlineto
          -28 -4 -19 -48 hvcurveto
          89 hlineto
          -2 -21 -1 -22 -23 vvcurveto
          -9 -54 vlineto
          -28 -4 -18 -49 hvcurveto
          89 hlineto
          -178 13 65 -29 91 hhcurveto
          66 49 31 21 22 -6 19 -6 11 hvcurveto
          -15 -19 -33 -11 -36 hhcurveto
          -50 -37 16 113 -11 hvcurveto
          endchar
        </CharString>
        <CharString name="exclam">
          -175 -7 115 598 -20 hstem
          45 102 vstem
          59 213 rmoveto
          61 17 3 35 2 hvcurveto
          16 455 rlineto
          -92 -18 -1 -22 hvcurveto
          -3 -633 rmoveto
          -35 14 -22 41 35 21 26 31 34 -15 24 -41 -35 -20 -27 -31 vhcurveto
          endchar
        </CharString>
        <CharString name="exclamdown">
          -175 -176 -21 591 114 hstem
          53 102 vstem
          157 451 rmoveto
          35 -13 22 -42 -35 -21 -25 -32 -34 16 -23 40 35 20 26 31 vhcurveto
          -16 -158 rmoveto
          -61 -17 -2 -35 -2 hvcurveto
          -16 -453 rlineto
          92 18 1 22 hvcurveto
          endchar
        </CharString>
        <CharString name="f">
          -116 21 -21 432 68 166 73 hstem
          82 80 vstem
          82 432 rmoveto
          -432 63 vlineto
          16 1 14 2 hvcurveto
          416 73 vlineto
          16 1 4 64 hvcurveto
          -90 67 hlineto
          87 48 12 52 23 24 -2 -10 24 vhcurveto
          6 14 3 17 13 vvcurveto
          25 -32 16 -61 -76 -91 -24 -154 vhcurveto
          -61 -49 vlineto
          -20 0 -5 -63 hvcurveto
          endchar
        </CharString>
        <CharString name="f.ss02">
          -119 21 -21 432 68 170 69 hstem
          78 81 vstem
          78 432 rmoveto
          -432 64 vlineto
          17 0 16 0 hvcurveto
          416 73 vlineto
          15 2 4 64 hvcurveto
          -90 108 hlineto
          51 19 11 31 14 20 -3 -6 13 vhcurveto
          5 14 3 18 9 vvcurveto
          23 -17 14 -56 -58 -55 -22 -101 vhcurveto
          -116 -48 vlineto
          -21 0 -5 -63 hvcurveto
          endchar
        </CharString>
        <CharString name="f_f">
          86 21 -21 432 68 166 73 hstem
          82 80 122 81 vstem
          82 500 rmoveto
          -49 hlineto
          -20 0 -5 -63 hvcurveto
          69 -432 63 hlineto
          17 0 16 0 hvcurveto
          416 122 -432 64 vlineto
          17 0 16 0 hvcurveto
          416 73 vlineto
          16 1 4 64 hvcurveto
          -90 67 hlineto
          87 48 12 52 22 25 -2 -10 24 vhcurveto
          6 14 3 16 8 vvcurveto
          32 -27 15 -66 -37 -43 -5 -27 -34 vhcurveto
          16 -26 -35 11 -39 hhcurveto
          -58 -98 -15 -150 hvcurveto
          202 -69 rmoveto
          -122 78 hlineto
          83 51 5 26 26 18 -5 -9 16 vhcurveto
          -9 -24 -6 -30 -37 vvcurveto
          endchar
        </CharString>
        <CharString name="f_f_i">
          236 21 -21 432 68 166 73 hstem
          79 80 123 80 116 81 vstem
          79 500 rmoveto
          -48 hlineto
          -21 0 -5 -63 hvcurveto
          69 -432 64 hlineto
          16 0 16 0 hvcurveto
          416 83 vlineto
          40 -432 64 hlineto
          16 0 16 0 hvcurveto
          416 53 vlineto
          16 1 4 64 hvcurveto
          -70 62 hlineto
          94 48 10 55 37 39 -9 -14 27 vhcurveto
          5 14 3 21 12 vvcurveto
          32 -41 17 -73 -44 -47 -6 -27 -35 vhcurveto
          17 -26 -35 11 -39 hhcurveto
          -58 -99 -15 -150 hvcurveto
          203 -69 rmoveto
          -48 hlineto
          -75 78 hlineto
          83 51 5 26 26 19 -5 -9 16 vhcurveto
          -10 -24 -5 -30 -37 vvcurveto
          196 -561 rmoveto
          81 0 0 16 hvcurveto
          484 vlineto
          -65 -16 0 -37 hvcurveto
          endchar
        </CharString>
        <CharString name="f_f_l">
          246 21 -21 432 68 166 73 hstem
          79 80 123 80 127 80 vstem
          569 705 rmoveto
          1 vlineto
          14 -24 -44 19 -62 hhcurveto
          -32 -41 -5 -27 -31 hvcurveto
          16 -27 -34 11 -38 hhcurveto
          -58 -99 -15 -150 hvcurveto
          -69 -48 vlineto
          -21 0 -5 -63 hvcurveto
          69 -432 64 hlineto
          16 0 16 0 hvcurveto
          416 83 vlineto
          40 -432 64 hlineto
          16 0 16 0 hvcurveto
          416 53 vlineto
          15 2 4 64 hvcurveto
          -70 72 hlineto
          87 44 7 38 20 15 -3 -4 10 vhcurveto
          -659 vlineto
          81 -1 0 16 hvcurveto
          -287 484 rmoveto
          -41 hlineto
          -82 78 hlineto
          83 51 5 26 26 18 -5 -9 16 vhcurveto
          -9 -24 -5 -30 -37 vvcurveto
          endchar
        </CharString>
        <CharString name="fi">
          32 21 -21 432 68 166 73 hstem
          79 81 115 82 vstem
          79 432 rmoveto
          -432 64 vlineto
          17 0 16 0 hvcurveto
          416 53 vlineto
          15 2 4 64 hvcurveto
          -70 62 hlineto
          94 47 10 55 37 39 -9 -14 27 vhcurveto
          6 14 3 21 12 vvcurveto
          32 -41 17 -74 -85 -95 -20 -158 vhcurveto
          -61 -48 vlineto
          -21 0 -5 -63 hvcurveto
          347 68 rmoveto
          -66 -16 0 -37 hvcurveto
          -463 vlineto
          82 0 0 16 hvcurveto
          endchar
        </CharString>
        <CharString name="firsttonechinese">
          -101 587 76 hstem
          1 267 vstem
          238 587 rmoveto
          19 11 18 24 11 -2 11 -5 12 hvcurveto
          -227 hlineto
          -21 -12 -16 -23 -12 0 -11 5 -14 hvcurveto
          endchar
        </CharString>
        <CharString name="five">
          48 -100 75 344 67 142 72 hstem
          294 86 vstem
          71 600 rmoveto
          -29 -294 rlineto
          4 18 37 9 42 hhcurveto
          93 62 -26 -115 -103 -43 -100 -110 -43 -32 11 21 -23 hvcurveto
          -7 -20 -2 -17 -29 vvcurveto
          -14 34 -27 80 161 71 117 178 168 -114 23 -78 -37 -20 -4 -1 -7 vhcurveto
          16 151 rlineto
          0 163 -4 32 38 4 12 60 vhcurveto
          endchar
        </CharString>
        <CharString name="five.001">
          48 -100 75 344 67 142 72 hstem
          294 86 vstem
          71 600 rmoveto
          -29 -294 rlineto
          4 18 37 9 42 hhcurveto
          93 62 -26 -115 -103 -43 -100 -110 -43 -32 11 21 -23 hvcurveto
          -7 -20 -2 -17 -29 vvcurveto
          -14 34 -27 80 161 71 117 178 168 -114 23 -78 -37 -20 -4 -1 -7 vhcurveto
          16 151 rlineto
          0 163 -4 32 38 4 12 60 vhcurveto
          endchar
        </CharString>
        <CharString name="fl">
          42 21 -21 432 68 172 66 hstem
          79 80 127 80 vstem
          366 704 rmoveto
          20 -33 -47 14 -50 hhcurveto
          -62 -95 -19 -158 hvcurveto
          -61 -48 vlineto
          -21 0 -5 -63 hvcurveto
          69 -432 64 hlineto
          16 0 16 0 hvcurveto
          416 64 vlineto
          16 1 4 64 hvcurveto
          -81 73 hlineto
          91 48 8 34 13 17 -2 -5 15 vhcurveto
          -665 63 vlineto
          17 0 16 0 hvcurveto
          endchar
        </CharString>
        <CharString name="florin">
          98 -196 72 554 70 165 73 hstem
          194 80 vstem
          194 500 rmoveto
          -107 hlineto
          -16 0 -20 -50 hvcurveto
          123 -459 hlineto
          -87 -48 -8 -53 -22 -24 2 11 -25 vhcurveto
          -5 -14 -3 -14 -14 vvcurveto
          -24 21 -19 71 76 92 14 159 vhcurveto
          453 130 vlineto
          17 0 20 50 hvcurveto
          -147 71 hlineto
          87 48 7 52 23 24 -2 -10 24 vhcurveto
          6 14 3 13 14 vvcurveto
          24 -21 20 -72 -76 -91 -15 -159 vhcurveto
          endchar
        </CharString>
        <CharString name="four">
          48 21 -21 131 75 hstem
          235 81 vstem
          316 595 rmoveto
          5 -7 -15 6 -21 hhcurveto
          -13 -12 -5 -9 -11 hvcurveto
          -77 -66 -132 -275 -49 vvcurveto
          -22 6 -29 20 -20 vhcurveto
          181 -131 hlineto
          81 0 0 26 hvcurveto
          105 51 vlineto
          20 7 26 28 17 -4 7 0 hvcurveto
          0 -35 -3 -39 vhcurveto
          -81 hmoveto
          -137 hlineto
          22 91 77 141 50 57 rrcurveto
          endchar
        </CharString>
        <CharString name="four.dnom">
          19 19 -21 72 71 hstem
          227 71 vstem
          298 147 rmoveto
          269 vlineto
          3 -9 -13 2 -12 hhcurveto
          -24 -23 -4 -27 -23 hvcurveto
          -55 -54 -71 -113 -24 -80 rrcurveto
          -5 -13 -2 -11 -9 vvcurveto
          -14 4 -15 10 -11 vhcurveto
          171 -72 hlineto
          -3 12 12 -1 9 hhcurveto
          28 15 9 16 hvcurveto
          51 41 vlineto
          15 10 15 24 15 -3 13 -4 10 hvcurveto
          -132 -6 rmoveto
          -113 hlineto
          18 67 56 87 43 34 rrcurveto
          endchar
        </CharString>
        <CharString name="four.numr">
          19 359 71 280 -20 hstem
          227 71 vstem
          298 436 rmoveto
          269 vlineto
          3 -9 -13 2 -12 hhcurveto
          -24 -23 -4 -27 -23 hvcurveto
          -55 -54 -71 -113 -24 -80 rrcurveto
          -5 -13 -2 -11 -9 vvcurveto
          -14 4 -15 10 -11 vhcurveto
          171 -72 hlineto
          -3 12 12 -1 9 hhcurveto
          28 15 9 16 hvcurveto
          51 41 vlineto
          15 10 15 24 15 -3 13 -4 10 hvcurveto
          -132 -6 rmoveto
          -113 hlineto
          18 67 56 87 43 34 rrcurveto
          endchar
        </CharString>
        <CharString name="foursuperior">
          27 359 71 280 -20 hstem
          230 71 vstem
          301 436 rmoveto
          269 vlineto
          3 -8 -14 2 -11 hhcurveto
          -24 -23 -4 -27 -23 hvcurveto
          -55 -54 -71 -113 -25 -80 rrcurveto
          -4 -13 -2 -11 -9 vvcurveto
          -14 4 -15 9 -11 vhcurveto
          172 -72 hlineto
          -3 12 11 -1 10 hhcurveto
          28 14 9 16 hvcurveto
          51 42 vlineto
          15 10 15 24 15 -3 13 -4 10 hvcurveto
          -133 -6 rmoveto
          -113 hlineto
          19 67 56 87 42 34 rrcurveto
          endchar
        </CharString>
        <CharString name="fraction">
          -175 11 -21 720 -20 hstem
          -94 419 vstem
          325 682 rmoveto
          19 -17 -21 9 -17 hhcurveto
          -17 -7 -9 -10 -4 hvcurveto
          -336 -672 rlineto
          -18 16 24 -11 16 hhcurveto
          14 7 8 7 3 hvcurveto
          endchar
        </CharString>
        <CharString name="g">
          24 -197 74 277 62 235 59 hstem
          39 85 152 81 vstem
          254 502 rmoveto
          6 -17 -19 2 -12 hhcurveto
          -98 -69 -50 -133 -64 16 -56 46 -29 hvcurveto
          -39 -31 -24 -33 -28 vvcurveto
          -25 23 -17 38 -11 vhcurveto
          -43 -29 -33 -44 -48 vvcurveto
          -52 25 -57 135 133 59 77 86 79 -54 25 -79 12 vhcurveto
          -7 1 -8 1 -7 1 rrcurveto
          -56 8 -41 5 16 vvcurveto
          13 14 18 13 13 vhcurveto
          -3 14 15 -1 16 hhcurveto
          116 46 69 106 50 -14 36 -24 23 hvcurveto
          -3 13 13 -2 10 hhcurveto
          17 11 10 21 18 -4 13 -4 7 hvcurveto
          -175 -286 rmoveto
          -64 -12 42 71 89 35 33 44 48 25 -29 -74 -87 -23 -45 -53 hvcurveto
          93 -261 rmoveto
          -35 -31 -43 -72 -69 -15 22 32 33 25 35 30 22 vhcurveto
          19 -2 rlineto
          87 -6 26 -13 -45 vvcurveto
          endchar
        </CharString>
        <CharString name="g.ss01">
          22 -200 76 115 72 382 67 hstem
          37 89 139 81 vstem
          346 479 rmoveto
          19 -26 -40 14 -38 hhcurveto
          -107 -98 -58 -222 -184 44 -57 86 48 35 21 19 15 hvcurveto
          -67 vlineto
          -72 -52 -16 -35 -54 -29 12 19 -31 vhcurveto
          -11 -17 -5 -16 -16 vvcurveto
          -30 47 -28 81 99 71 46 108 vhcurveto
          -79 180 rmoveto
          -50 -11 -28 -21 -33 hhcurveto
          -39 -30 38 139 164 47 41 47 21 17 -7 -9 9 hvcurveto
          endchar
        </CharString>
        <CharString name="gbreve">
          24 -197 74 277 62 235 59 47 77 76 -20 hstem
          39 85 152 81 vstem
          254 502 rmoveto
          6 -17 -19 2 -12 hhcurveto
          -98 -69 -50 -133 -64 16 -56 46 -29 hvcurveto
          -38 -31 -25 -32 -28 vvcurveto
          -1 -26 23 -17 39 -11 rrcurveto
          -43 -29 -33 -44 -48 vvcurveto
          -52 25 -57 135 133 59 77 86 79 -54 25 -79 12 vhcurveto
          -67 9 -52 5 18 vvcurveto
          13 14 18 13 13 vhcurveto
          -3 14 15 -1 16 hhcurveto
          116 46 69 106 50 -14 36 -24 23 hvcurveto
          -3 13 13 -2 10 hhcurveto
          17 11 10 21 18 -4 13 -4 7 hvcurveto
          -175 -286 rmoveto
          -64 -12 42 71 89 35 33 44 48 25 -29 -74 -87 -23 -45 -53 hvcurveto
          93 -261 rmoveto
          -35 -31 -43 -72 -69 -15 22 32 33 25 35 30 22 vhcurveto
          19 -2 rlineto
          87 -6 26 -13 -45 vvcurveto
          -97 602 rmoveto
          74 40 53 59 20 hvcurveto
          -5 27 -36 30 -15 -26 rrcurveto
          -29 -14 -18 -37 -45 hhcurveto
          -46 -26 49 30 -11 hvcurveto
          -31 -11 -12 -12 -22 vvcurveto
          -42 57 -69 68 vhcurveto
          endchar
        </CharString>
        <CharString name="gcommaaccent">
          24 -197 74 277 62 235 59 232 -20 hstem
          39 85 152 81 vstem
          254 502 rmoveto
          6 -17 -19 2 -12 hhcurveto
          -98 -69 -50 -133 -64 16 -56 46 -29 hvcurveto
          -39 -31 -24 -33 -28 vvcurveto
          -25 23 -17 38 -11 vhcurveto
          -43 -29 -33 -44 -48 vvcurveto
          -52 25 -57 135 133 59 77 86 79 -54 25 -79 12 vhcurveto
          -7 1 -8 1 -7 1 rrcurveto
          -56 8 -41 5 16 vvcurveto
          13 14 18 13 13 vhcurveto
          -3 14 15 -1 16 hhcurveto
          116 46 69 106 50 -14 36 -24 23 hvcurveto
          -3 13 13 -2 10 hhcurveto
          17 11 10 21 18 -4 13 -4 7 hvcurveto
          -175 -286 rmoveto
          -64 -12 42 71 89 35 33 44 48 25 -29 -74 -87 -23 -45 -53 hvcurveto
          93 -261 rmoveto
          -35 -31 -43 -72 -69 -15 22 32 33 25 35 30 22 vhcurveto
          19 -2 rlineto
          87 -6 26 -13 -45 vvcurveto
          -97 584 rmoveto
          29 20 22 29 21 -6 16 -17 10 hvcurveto
          2 28 4 18 22 37 rrcurveto
          16 -4 -13 6 -14 hhcurveto
          -18 -58 -75 -70 -40 19 -18 34 hvcurveto
          endchar
        </CharString>
        <CharString name="gecy">
          -85 21 -21 432 68 hstem
          51 81 vstem
          51 hmoveto
          81 0 0 18 hvcurveto
          414 121 vlineto
          21 1 7 61 hvcurveto
          -193 hlineto
          -22 -9 -2 -21 hvcurveto
          endchar
        </CharString>
        <CharString name="germandbls">
          95 -9 72 567 75 hstem
          48 83 81 88 66 90 vstem
          48 74 rmoveto
          2 -46 -11 -26 0 vvcurveto
          0 14 -11 31 40 7 15 38 vhcurveto
          460 vlineto
          89 -2 20 37 65 hhcurveto
          74 35 -35 -35 -27 -23 -17 -25 -19 hvcurveto
          -30 -23 -33 -26 -49 vvcurveto
          -51 38 -39 38 -39 vhcurveto
          39 -40 39 -40 -53 vvcurveto
          -49 -31 -25 -47 -43 -28 18 9 -9 vhcurveto
          -9 -9 -12 -17 -28 vvcurveto
          -19 40 -26 79 93 57 56 91 89 -57 54 -45 43 vhcurveto
          -30 29 -24 24 26 vvcurveto
          30 23 16 24 18 vhcurveto
          30 22 32 23 49 vvcurveto
          69 -55 75 -146 -97 -63 -46 -109 vhcurveto
          endchar
        </CharString>
        <CharString name="germandbls.ss05">
          107 -134 77 70 -21 440 68 165 70 hstem
          46 81 245 87 vstem
          428 432 rmoveto
          10 23 2 17 11 vvcurveto
          11 -2 6 0 vhcurveto
          -311 43 hlineto
          89 21 33 69 41 27 -9 -23 31 vhcurveto
          0 20 34 20 18 -49 30 -66 -114 -61 -38 -109 hvcurveto
          -516 vlineto
          -37 -7 -32 0 vhcurveto
          0 10 -11 31 35 12 15 48 vhcurveto
          377 214 vlineto
          -123 -224 35 -1 29 -5 24 -10 rlinecurve
          39 -15 27 -30 -62 vvcurveto
          -90 -51 -52 -64 -39 -22 11 17 -21 vhcurveto
          -11 -18 -8 -23 -17 vvcurveto
          -19 25 -28 83 128 67 101 124 87 -50 56 -79 21 vhcurveto
          endchar
        </CharString>
        <CharString name="gheupturncy">
          -94 21 -21 432 68 hstem
          51 81 72 71 vstem
          82 500 rmoveto
          -22 -9 -2 -21 hvcurveto
          -477 vlineto
          81 0 0 18 hvcurveto
          414 121 vlineto
          21 1 7 61 hvcurveto
          95 vlineto
          26 -9 4 -39 vhcurveto
          -11 -35 -9 -63 -3 -27 rrcurveto
          endchar
        </CharString>
        <CharString name="gjecy">
          -85 21 -21 432 68 hstem
          51 81 vstem
          116 560 rmoveto
          35 19 89 64 16 18 rrcurveto
          24 -3 -15 37 -19 hhcurveto
          -8 -80 -65 -52 -46 hvcurveto
          0 13 -45 18 vhcurveto
          -65 -560 rmoveto
          81 0 0 18 hvcurveto
          414 121 vlineto
          21 1 7 61 hvcurveto
          -193 hlineto
          -22 -9 -2 -21 hvcurveto
          endchar
        </CharString>
        <CharString name="grave">
          -101 553 163 hstem
          49 171 vstem
          86 716 rmoveto
          -19 -14 -37 -24 -4 hvcurveto
          16 -19 90 -64 34 -19 rrcurveto
          19 12 45 0 hvcurveto
          53 -45 -81 65 -8 hhcurveto
          endchar
        </CharString>
        <CharString name="greater">
          30 85 335 hstem
          43 321 vstem
          260 261 rmoveto
          -200 -97 rlineto
          -10 -5 -4 -9 -11 vvcurveto
          1 -15 10 -22 17 -17 264 129 rcurveline
          18 9 8 17 18 vvcurveto
          16 -4 17 -9 14 vhcurveto
          -244 108 rlineto
          5 -12 -9 2 -6 hhcurveto
          -16 -19 -28 -34 -2 hvcurveto
          endchar
        </CharString>
        <CharString name="greaterequal">
          39 0 70 hstem
          44 321 vstem
          260 304 rmoveto
          -200 -97 rlineto
          -9 -5 -4 -8 -12 vvcurveto
          -15 10 -21 18 -17 vhcurveto
          263 129 rlineto
          19 9 8 16 18 vvcurveto
          16 -5 18 -8 14 vhcurveto
          -245 107 rlineto
          5 -12 -9 3 -6 hhcurveto
          -16 -19 -29 -34 -1 hvcurveto
          302 -401 rmoveto
          17 0 20 50 hvcurveto
          -297 hlineto
          -16 0 -20 -50 hvcurveto
          endchar
        </CharString>
        <CharString name="guillemotleft">
          46 21 -21 500 -20 hstem
          18 365 vstem
          18 253 rmoveto
          -36 149 -217 0 30 17 47 0 37 -120 169 0 0 118 168 38 0 -17 41 -31 0 -146 -214 -33 vhcurveto
          172 -2 rmoveto
          -34 147 -193 0 29 17 45 0 35 -116 147 0 0 114 152 36 0 -17 38 -30 0 -144 -194 -32 vhcurveto
          endchar
        </CharString>
        <CharString name="guillemotright">
          44 21 -21 hstem
          33 363 vstem
          396 253 rmoveto
          33 -145 214 0 0 -48 -13 -28 -38 118 -168 0 0 -121 -170 -37 -33 48 -13 0 0 148 217 36 vhcurveto
          -172 -3 rmoveto
          34 -145 196 0 0 -44 -13 -28 -26 56 -78 33 -48 vhcurveto
          -22 16 10 -15 -1 hhcurveto
          0 -116 -145 -37 -33 43 -13 0 0 148 192 36 hvcurveto
          endchar
        </CharString>
        <CharString name="guilsinglleft">
          -123 21 -21 500 -20 hstem
          18 196 vstem
          18 250 rmoveto
          -36 149 -214 0 30 17 47 0 37 -120 166 0 0 118 171 38 0 -17 41 -31 0 -146 -216 -34 vhcurveto
          endchar
        </CharString>
        <CharString name="guilsinglright">
          -123 21 -21 hstem
          33 196 vstem
          229 250 rmoveto
          34 -146 216 0 0 -48 -13 -28 -38 118 -171 0 0 -120 -167 -37 -33 48 -13 0 0 148 214 36 vhcurveto
          endchar
        </CharString>
        <CharString name="h">
          10 21 -21 435 75 225 -20 hstem
          45 80 135 82 vstem
          45 hmoveto
          80 0 0 16 hvcurveto
          392 vlineto
          20 24 30 7 22 hhcurveto
          50 9 -35 -44 hvcurveto
          -356 vlineto
          78 4 0 16 hvcurveto
          362 vlineto
          84 -17 48 -87 -38 -44 -12 -27 -31 vhcurveto
          264 vlineto
          -66 -14 0 -37 hvcurveto
          endchar
        </CharString>
        <CharString name="hacy">
          41 21 -21 500 -20 hstem
          15 380 vstem
          258 266 rmoveto
          128 234 rlineto
          -82 -1 0 -14 -6 hvcurveto
          -31 -54 -21 -39 -23 -52 -11 -24 rlinecurve
          -10 24 -24 53 -20 37 -37 69 rcurveline
          -91 0 0 -13 6 hvcurveto
          122 -227 -142 -260 rlineto
          75 10 0 16 7 hvcurveto
          29 49 22 44 27 60 14 32 rlinecurve
          15 -32 28 -60 23 -43 37 -66 rcurveline
          98 1 -1 20 -10 hvcurveto
          endchar
        </CharString>
        <CharString name="hardsigncy">
          55 0 64 179 61 126 70 hstem
          122 77 121 90 vstem
          199 304 rmoveto
          196 -171 vlineto
          -16 1 -7 -63 hvcurveto
          109 -430 108 hlineto
          88 2 92 22 146 vvcurveto
          110 -61 24 -98 vhcurveto
          -52 -239 rmoveto
          177 vlineto
          9 14 1 17 hhcurveto
          50 31 -6 -70 -83 -33 -20 -46 hvcurveto
          endchar
        </CharString>
        <CharString name="hungarumlaut">
          -101 553 167 hstem
          0 269 vstem
          92 720 rmoveto
          -8 -3 -56 -75 -28 -55 rrcurveto
          0 25 -39 18 5 vhcurveto
          27 24 64 75 9 20 -10 21 -23 32 -18 -5 rrcurveto
          125 hmoveto
          -7 -3 -56 -75 -27 -55 rrcurveto
          0 23 -39 19 5 vhcurveto
          26 24 64 75 10 20 -10 21 -23 32 -19 -5 rrcurveto
          endchar
        </CharString>
        <CharString name="hyphen">
          -92 247 70 hstem
          37 204 vstem
          225 247 rmoveto
          16 0 20 50 hvcurveto
          -187 hlineto
          -17 0 -20 -50 hvcurveto
          endchar
        </CharString>
        <CharString name="i">
          -195 21 -21 500 -20 90 122 hstem
          47 81 vstem
          44 630 rmoveto
          -45 16 -15 25 31 15 24 42 40 -10 16 -31 -31 -15 -25 -37 vhcurveto
          84 -130 rmoveto
          -65 -16 0 -37 hvcurveto
          -463 vlineto
          81 0 0 16 hvcurveto
          endchar
        </CharString>
        <CharString name="iacute">
          -195 21 -21 500 -20 hstem
          47 81 vstem
          39 560 rmoveto
          35 19 89 64 16 18 rrcurveto
          24 -3 -15 37 -19 hhcurveto
          -8 -80 -65 -52 -46 hvcurveto
          0 13 -45 18 vhcurveto
          89 -60 rmoveto
          -65 -16 0 -37 hvcurveto
          -463 vlineto
          81 0 0 16 hvcurveto
          endchar
        </CharString>
        <CharString name="iacy">
          6 21 -21 202 66 165 67 hstem
          36 87 122 80 vstem
          213 500 rmoveto
          -114 -63 -44 -98 -83 45 -43 41 -15 hvcurveto
          -39 -20 -19 -26 -10 -45 -28 -127 rcurveline
          -2 18 16 -1 17 hhcurveto
          31 2 3 14 2 hvcurveto
          23 105 rlineto
          53 11 20 31 36 hhcurveto
          43 -185 hlineto
          -17 2 0 78 vhcurveto
          486 vlineto
          0 0 14 -15 vhcurveto
          -65 -230 rmoveto
          -1 -18 -17 -1 -18 hhcurveto
          -36 -33 19 67 58 25 21 46 18 16 -1 -1 17 hvcurveto
          endchar
        </CharString>
        <CharString name="icircumflex">
          -195 21 -21 500 -20 219 12 hstem
          47 81 vstem
          -39 585 rmoveto
          -13 11 17 -10 27 hhcurveto
          18 57 76 0 hvcurveto
          13 -24 53 -53 0 vvcurveto
          29 28 9 14 16 -97 99 0 hvcurveto
          8 -8 -9 4 -8 hhcurveto
          -6 -6 -1 -2 -5 hvcurveto
          53 -208 rmoveto
          -65 -16 0 -37 hvcurveto
          -463 vlineto
          81 0 0 16 hvcurveto
          endchar
        </CharString>
        <CharString name="icy">
          -195 21 -21 500 -20 90 122 hstem
          47 81 vstem
          44 632 rmoveto
          -47 15 -15 26 30 15 24 40 1 vhcurveto
          42 -10 16 -31 -31 -14 -24 -36 -1 vhcurveto
          84 -132 rmoveto
          -65 -16 0 -37 hvcurveto
          -463 vlineto
          81 0 0 16 hvcurveto
          endchar
        </CharString>
        <CharString name="idieresis">
          -195 21 -21 500 -20 92 117 hstem
          47 81 vstem
          31 689 rmoveto
          -30 -14 -22 -35 hvcurveto
          -1 -45 15 -14 25 -1 rrcurveto
          29 15 23 39 40 -10 15 -29 hvcurveto
          119 hmoveto
          -30 -14 -22 -35 -1 hvcurveto
          -45 15 -14 25 -1 vhcurveto
          29 14 23 39 1 hvcurveto
          40 -9 15 -30 vhcurveto
          -22 -189 rmoveto
          -65 -16 0 -37 hvcurveto
          -463 vlineto
          81 0 0 16 hvcurveto
          endchar
        </CharString>
        <CharString name="iecy">
          -9 -10 78 136 65 170 71 hstem
          30 83 143 78 vstem
          207 68 rmoveto
          -61 -29 28 108 -4 hvcurveto
          50 94 3 13 66 hvcurveto
          8 36 3 49 45 vvcurveto
          107 -43 53 -84 -88 -89 -36 -250 -196 67 -38 93 75 63 24 31 16 -2 23 -5 16 vhcurveto
          -20 -34 -40 -12 -40 hhcurveto
          -9 371 rmoveto
          44 13 -26 -73 1 hvcurveto
          -19 -1 -23 -4 -18 vhcurveto
          -35 -10 -64 -2 -39 1 rrcurveto
          136 7 36 34 42 hhcurveto
          endchar
        </CharString>
        <CharString name="iegravecy">
          -9 -10 78 136 65 170 71 hstem
          30 83 143 78 vstem
          241 553 rmoveto
          19 12 45 0 hvcurveto
          53 -45 -81 65 -8 hhcurveto
          -18 -15 -37 -24 -4 hvcurveto
          16 -19 90 -64 34 -19 rrcurveto
          -34 -485 rmoveto
          -61 -29 28 108 -4 hvcurveto
          50 94 3 13 66 hvcurveto
          8 36 3 49 45 vvcurveto
          107 -43 53 -84 -88 -89 -36 -250 -196 67 -38 93 75 63 24 31 16 -2 23 -5 16 vhcurveto
          -20 -34 -40 -12 -40 hhcurveto
          -9 371 rmoveto
          44 13 -26 -73 1 hvcurveto
          -19 -1 -23 -4 -18 vhcurveto
          -35 -10 -64 -2 -39 1 rrcurveto
          136 7 36 34 42 hhcurveto
          endchar
        </CharString>
        <CharString name="igrave">
          -195 21 -21 500 -20 hstem
          47 81 vstem
          46 716 rmoveto
          -19 -15 -37 -24 -4 hvcurveto
          16 -19 90 -64 34 -19 rrcurveto
          19 12 45 0 hvcurveto
          53 -45 -81 65 -7 hhcurveto
          82 -216 rmoveto
          -65 -16 0 -37 hvcurveto
          -463 vlineto
          81 0 0 16 hvcurveto
          endchar
        </CharString>
        <CharString name="iicy">
          42 21 -21 500 -20 hstem
          51 76 159 75 vstem
          192 289 rmoveto
          -17 -31 -29 -64 -22 -49 -4 -9 -3 -8 -4 -7 2 16 2 20 2 19 rrcurveto
          4 35 4 36 24 vvcurveto
          229 vlineto
          -67 -9 0 -15 hvcurveto
          -485 vlineto
          58 4 0 19 10 hvcurveto
          96 191 19 36 41 94 21 47 rlinecurve
          -1 -23 -3 -28 -3 -29 rrcurveto
          -4 -34 -3 -33 -23 vvcurveto
          -217 vlineto
          73 2 1 14 hvcurveto
          485 vlineto
          -59 -4 -1 -18 -9 hvcurveto
          endchar
        </CharString>
        <CharString name="iigravecy">
          42 21 -21 500 -20 hstem
          51 76 159 75 vstem
          165 716 rmoveto
          -19 -15 -37 -24 -3 hvcurveto
          16 -19 89 -64 35 -19 rrcurveto
          18 13 45 0 hvcurveto
          53 -46 -80 65 -8 hhcurveto
          27 -427 rmoveto
          -20 -37 -36 -81 -23 -50 rrcurveto
          4 45 10 67 38 vvcurveto
          229 vlineto
          -67 -9 0 -15 hvcurveto
          -485 vlineto
          58 4 0 19 10 hvcurveto
          96 191 19 36 41 94 21 47 rlinecurve
          -3 -50 -11 -79 -41 vvcurveto
          -217 vlineto
          73 2 1 14 hvcurveto
          485 vlineto
          -59 -4 -1 -18 -9 hvcurveto
          endchar
        </CharString>
        <CharString name="iishortcy">
          42 21 -21 500 -20 89 55 85 -20 hstem
          51 76 159 75 vstem
          120 713 rmoveto
          -34 -9 -17 -13 1 -21 rrcurveto
          -48 4 44 -53 81 hhcurveto
          83 31 41 63 25 hvcurveto
          -6 24 -48 25 -6 -21 rrcurveto
          -49 -14 -14 -28 -48 hhcurveto
          -52 -18 36 53 -12 hvcurveto
          72 -424 rmoveto
          -20 -37 -36 -81 -23 -50 rrcurveto
          4 45 10 67 38 vvcurveto
          229 vlineto
          -67 -9 0 -15 hvcurveto
          -485 vlineto
          58 4 0 19 10 hvcurveto
          96 191 19 36 41 94 21 47 rlinecurve
          -3 -50 -11 -79 -41 vvcurveto
          -217 vlineto
          73 2 1 14 hvcurveto
          485 vlineto
          -59 -4 -1 -18 -9 hvcurveto
          endchar
        </CharString>
        <CharString name="ij">
          -11 -196 74 143 -21 500 -20 90 122 hstem
          47 81 101 80 vstem
          44 632 rmoveto
          -47 15 -15 26 30 15 24 40 1 vhcurveto
          42 -10 16 -31 -31 -14 -24 -36 -1 vhcurveto
          180 hmoveto
          -47 15 -15 26 30 15 24 40 1 vhcurveto
          42 -10 16 -31 -31 -14 -24 -36 -1 vhcurveto
          -96 -132 rmoveto
          -65 -16 0 -37 hvcurveto
          -463 vlineto
          81 0 0 16 hvcurveto
          181 484 rmoveto
          -65 -15 0 -37 hvcurveto
          -487 vlineto
          -69 -8 -29 -52 -35 -27 8 12 -23 vhcurveto
          -9 -11 -3 -16 -14 vvcurveto
          -32 33 -21 74 107 23 72 88 vhcurveto
          endchar
        </CharString>
        <CharString name="imacron">
          -195 21 -21 500 -20 107 76 hstem
          47 81 vstem
          190 587 rmoveto
          20 11 18 24 11 -2 11 -5 12 hvcurveto
          -228 hlineto
          -20 -12 -16 -23 -12 0 -11 5 -14 hvcurveto
          169 -87 rmoveto
          -65 -16 0 -37 hvcurveto
          -463 vlineto
          81 0 0 16 hvcurveto
          endchar
        </CharString>
        <CharString name="increment">
          67 0 75 628 -20 hstem
          5 426 vstem
          5 3 rmoveto
          -2 19 21 -1 10 hhcurveto
          341 hlineto
          32 5 6 11 -2 hvcurveto
          -179 683 rlineto
          2 -10 -14 1 -14 hhcurveto
          -17 -11 -4 -10 -2 hvcurveto
          149 -614 rmoveto
          -227 hlineto
          77 320 16 67 14 78 6 48 rlinecurve
          4 -48 15 -78 16 -67 rrcurveto
          endchar
        </CharString>
        <CharString name="infinity">
          237 116 75 134 82 hstem
          41 79 367 79 vstem
          438 407 rmoveto
          -61 -38 -38 -45 -30 hvcurveto
          45 -29 -35 38 -69 hhcurveto
          -102 -33 -68 -79 -85 44 -59 87 53 41 37 43 34 hvcurveto
          -53 30 49 -30 60 hhcurveto
          12 hlineto
          69 6 46 44 98 vvcurveto
          97 -52 49 -76 vhcurveto
          -15 -217 rmoveto
          -39 -21 36 34 -18 hvcurveto
          10 15 10 14 9 11 11 13 9 11 22 3 rrcurveto
          1 5 6 1 6 hhcurveto
          3 3 -1 4 hhcurveto
          26 -6 18 -24 -36 vvcurveto
          -48 -26 -24 -38 vhcurveto
          -157 67 rmoveto
          -37 -24 -25 -29 -36 hhcurveto
          -42 -19 34 36 28 16 36 47 6 6 0 -2 7 hvcurveto
          29 -5 21 -27 13 -31 rrcurveto
          endchar
        </CharString>
        <CharString name="integral">
          98 -196 72 789 73 hstem
          194 80 vstem
          194 -29 rmoveto
          -87 -48 -8 -53 -22 -24 2 11 -25 vhcurveto
          -5 -14 -3 -14 -14 vvcurveto
          -24 21 -19 71 76 92 14 159 vhcurveto
          594 vlineto
          87 48 7 52 23 24 -2 -10 24 vhcurveto
          6 14 3 13 14 vvcurveto
          24 -21 20 -72 -76 -91 -15 -159 vhcurveto
          endchar
        </CharString>
        <CharString name="iocy">
          -9 -10 78 136 65 170 71 62 117 hstem
          30 83 143 78 vstem
          207 68 rmoveto
          -61 -29 28 108 -4 hvcurveto
          50 94 3 13 66 hvcurveto
          8 36 3 49 45 vvcurveto
          107 -43 53 -84 -88 -89 -36 -250 -196 67 -38 93 75 63 24 31 16 -2 23 -5 16 vhcurveto
          -20 -34 -40 -12 -40 hhcurveto
          -9 371 rmoveto
          44 13 -26 -73 1 hvcurveto
          -19 -1 -23 -4 -18 vhcurveto
          -35 -10 -64 -2 -39 1 rrcurveto
          136 7 36 34 42 hhcurveto
          -80 133 rmoveto
          30 14 23 39 1 hvcurveto
          40 -10 15 -29 -30 -14 -22 -35 vhcurveto
          -1 -45 15 -14 24 -1 rrcurveto
          120 hmoveto
          28 15 23 39 hvcurveto
          40 1 -10 15 -29 hhcurveto
          -30 -14 -22 -35 -1 hvcurveto
          -45 14 -14 26 -1 vhcurveto
          endchar
        </CharString>
        <CharString name="iogonek">
          -195 -195 59 636 -20 90 122 hstem
          46 83 vstem
          44 630 rmoveto
          -45 16 -15 25 31 15 24 42 40 -10 16 -31 -31 -15 -25 -37 vhcurveto
          85 -130 rmoveto
          -81 -2 0 -37 hvcurveto
          -459 vlineto
          -27 -31 -26 -36 -51 vvcurveto
          -59 36 -22 48 32 26 10 23 8 -4 15 -5 10 vhcurveto
          -5 -9 -8 -2 -11 hhcurveto
          -24 -9 12 22 40 30 38 22 20 hvcurveto
          8 7 4 5 8 vvcurveto
          endchar
        </CharString>
        <CharString name="iucy">
          168 -10 66 160 68 160 66 hstem
          51 78 64 84 147 85 vstem
          129 284 rmoveto
          216 vlineto
          -78 0 0 -16 hvcurveto
          -484 vlineto
          80 -2 0 16 hvcurveto
          200 64 vlineto
          -195 5 53 -31 93 hhcurveto
          107 58 77 185 204 -51 54 -104 -95 -59 -67 -159 -7 hvcurveto
          153 -228 rmoveto
          -44 -25 25 167 157 30 39 44 49 24 -31 -161 -156 -32 -40 -46 hvcurveto
          endchar
        </CharString>
        <CharString name="j">
          -186 -196 74 622 -20 90 122 hstem
          54 80 vstem
          49 632 rmoveto
          -47 15 -15 26 30 15 24 40 1 vhcurveto
          42 -10 16 -31 -31 -14 -24 -36 -1 vhcurveto
          85 -132 rmoveto
          -65 -15 0 -37 hvcurveto
          -487 vlineto
          -69 -8 -29 -52 -35 -27 8 12 -23 vhcurveto
          -9 -11 -3 -16 -14 vvcurveto
          -32 33 -21 74 107 23 72 88 vhcurveto
          endchar
        </CharString>
        <CharString name="jecy">
          -186 -196 74 622 -20 90 122 hstem
          54 80 vstem
          49 632 rmoveto
          -47 15 -15 26 30 15 24 40 1 vhcurveto
          42 -10 16 -31 -31 -14 -24 -36 -1 vhcurveto
          85 -132 rmoveto
          -65 -15 0 -37 hvcurveto
          -487 vlineto
          -69 -8 -29 -52 -35 -27 8 12 -23 vhcurveto
          -9 -11 -3 -16 -14 vvcurveto
          -32 33 -21 74 107 23 72 88 vhcurveto
          endchar
        </CharString>
        <CharString name="k">
          6 21 -21 437 73 225 -20 hstem
          46 81 138 90 vstem
          46 hmoveto
          83 -2 0 16 hvcurveto
          191 vlineto
          0 27 15 18 4 vhcurveto
          1 4 4 0 4 hhcurveto
          33 32 -32 -72 11 hvcurveto
          3 -18 2 -20 -22 vvcurveto
          -20 -1 -20 -3 -23 vhcurveto
          89 0 0 16 2 hvcurveto
          2 18 1 17 16 vvcurveto
          12 0 11 -1 10 vhcurveto
          -9 92 -43 56 -48 21 rrcurveto
          25 19 59 52 84 vvcurveto
          46 -19 40 -66 -43 -49 -18 -28 -34 vhcurveto
          271 vlineto
          -65 -16 0 -37 hvcurveto
          81 -309 rmoveto
          33 27 30 15 28 hhcurveto
          25 12 -14 -26 -64 -52 -40 -70 -28 hvcurveto
          endchar
        </CharString>
        <CharString name="kacy">
          -5 21 -21 232 71 198 -20 hstem
          51 79 vstem
          217 354 rmoveto
          -36 -10 -21 -15 -27 hhcurveto
          -29 197 hlineto
          -79 0 0 -14 hvcurveto
          -486 vlineto
          79 0 0 14 hvcurveto
          218 25 vlineto
          45 20 -25 -68 10 hvcurveto
          26 -138 rlineto
          -2 18 16 -1 16 hhcurveto
          28 5 4 13 -1 hvcurveto
          -26 134 -9 61 -27 45 -38 19 rlinecurve
          21 11 19 22 12 34 47 141 rcurveline
          1 3 0 3 2 vvcurveto
          9 -8 2 -23 -13 -17 -1 -4 -19 vhcurveto
          endchar
        </CharString>
        <CharString name="kadescendercy">
          4 -2 78 156 77 192 -20 hstem
          51 82 123 122 vstem
          378 76 rmoveto
          -36 hlineto
          -10 100 -31 77 -57 26 56 26 21 88 23 87 rrcurveto
          17 4 -7 4 -29 hhcurveto
          -14 -17 -2 -4 -19 hvcurveto
          -159 -27 -31 -27 -41 hhcurveto
          -30 191 hlineto
          -82 0 0 -14 hvcurveto
          -486 vlineto
          82 0 0 14 hvcurveto
          218 27 vlineto
          50 40 -19 -212 6 hvcurveto
          50 -3 3 -47 8 -52 13 -57 rlinecurve
          37 11 2 21 hvcurveto
          endchar
        </CharString>
        <CharString name="kcommaaccent">
          6 21 -21 437 73 225 -20 hstem
          46 81 138 87 vstem
          46 hmoveto
          83 -2 0 16 hvcurveto
          191 vlineto
          0 27 15 18 4 vhcurveto
          37 8 38 -30 13 -81 6 -33 1 -41 -6 -49 rrcurveto
          89 0 0 16 2 hvcurveto
          4 30 0 29 -2 25 -9 92 -43 56 -48 21 rrcurveto
          25 19 59 52 84 vvcurveto
          46 -19 40 -66 -43 -49 -18 -28 -34 vhcurveto
          271 vlineto
          -65 -16 0 -37 hvcurveto
          81 -309 rmoveto
          33 27 30 15 28 hhcurveto
          25 12 -14 -26 -64 -52 -40 -70 -28 hvcurveto
          10 -363 rmoveto
          -22 7 -16 17 -11 vhcurveto
          -2 -28 -4 -19 -23 -38 rrcurveto
          -17 5 12 -6 15 hhcurveto
          18 60 77 73 41 -19 18 -35 -30 -21 -23 -29 hvcurveto
          endchar
        </CharString>
        <CharString name="kjecy">
          -5 21 -21 232 71 198 -20 hstem
          51 79 vstem
          141 560 rmoveto
          34 19 90 64 16 18 rrcurveto
          24 -4 -14 37 -19 hhcurveto
          -8 -81 -65 -52 -45 hvcurveto
          0 13 -45 18 vhcurveto
          76 -206 rmoveto
          -36 -10 -21 -15 -27 hhcurveto
          -29 197 hlineto
          -79 0 0 -14 hvcurveto
          -486 vlineto
          79 0 0 14 hvcurveto
          218 25 vlineto
          45 20 -25 -68 10 hvcurveto
          26 -138 rlineto
          -2 18 16 -1 16 hhcurveto
          28 5 4 13 -1 hvcurveto
          -26 134 -9 61 -27 45 -38 19 rlinecurve
          21 11 19 22 12 34 47 141 rcurveline
          16 5 -6 3 -29 hhcurveto
          -13 -17 -1 -4 -19 hvcurveto
          endchar
        </CharString>
        <CharString name="l">
          -197 21 -21 735 -20 hstem
          46 81 vstem
          127 735 rmoveto
          -65 -16 0 -37 hvcurveto
          -698 vlineto
          80 1 0 16 hvcurveto
          endchar
        </CharString>
        <CharString name="lacute">
          -197 21 -21 735 -20 hstem
          46 81 vstem
          39 795 rmoveto
          34 19 90 64 16 18 rrcurveto
          24 -4 -15 37 -18 hhcurveto
          -8 -81 -65 -52 -45 hvcurveto
          0 12 -45 19 vhcurveto
          88 -60 rmoveto
          -65 -16 0 -37 hvcurveto
          -698 vlineto
          80 1 0 16 hvcurveto
          endchar
        </CharString>
        <CharString name="lcaron">
          -197 21 -21 735 -20 hstem
          46 81 vstem
          127 735 rmoveto
          -65 -16 0 -37 hvcurveto
          -698 vlineto
          80 1 0 16 hvcurveto
          endchar
        </CharString>
        <CharString name="lcommaaccent">
          -197 21 -21 735 -20 hstem
          46 81 vstem
          127 735 rmoveto
          -65 -16 0 -37 hvcurveto
          -698 vlineto
          80 1 0 16 hvcurveto
          -91 -114 rmoveto
          -22 6 -16 17 -11 vhcurveto
          -2 -28 -4 -19 -22 -38 rrcurveto
          -17 4 13 -6 14 hhcurveto
          19 60 77 73 41 -20 18 -35 -29 -21 -23 -29 hvcurveto
          endchar
        </CharString>
        <CharString name="ldot">
          -130 21 -21 212 114 409 -20 hstem
          46 81 vstem
          127 735 rmoveto
          -65 -16 0 -37 hvcurveto
          -698 vlineto
          80 1 0 16 hvcurveto
          23 253 rmoveto
          -36 14 -21 41 35 21 25 32 34 -15 23 -41 -34 -21 -27 -30 vhcurveto
          endchar
        </CharString>
        <CharString name="less">
          30 96 334 hstem
          39 321 vstem
          144 255 rmoveto
          199 98 rlineto
          10 4 4 8 12 vvcurveto
          16 -10 21 -18 16 vhcurveto
          -264 -128 rlineto
          -18 -9 -8 -17 -18 vvcurveto
          -16 5 -17 8 -14 vhcurveto
          245 -108 rlineto
          -4 12 9 -3 6 hhcurveto
          16 19 28 35 1 hvcurveto
          endchar
        </CharString>
        <CharString name="lessequal">
          42 0 70 hstem
          44 323 vstem
          149 290 rmoveto
          199 98 rlineto
          10 4 4 9 11 vvcurveto
          16 -10 21 -18 16 vhcurveto
          -264 -128 rlineto
          -18 -9 -8 -16 -19 vvcurveto
          -16 5 -17 8 -14 vhcurveto
          245 -108 rlineto
          -4 12 9 -3 6 hhcurveto
          16 19 28 35 1 hvcurveto
          -14 -194 rmoveto
          16 0 20 50 hvcurveto
          -302 hlineto
          -16 0 -20 -50 hvcurveto
          endchar
        </CharString>
        <CharString name="literSign">
          -197 21 -21 735 -20 hstem
          46 81 vstem
          127 735 rmoveto
          -65 -16 0 -37 hvcurveto
          -698 vlineto
          80 1 0 16 hvcurveto
          endchar
        </CharString>
        <CharString name="ljecy">
          189 0 64 179 61 128 68 hstem
          100 76 84 82 121 89 vstem
          342 304 rmoveto
          196 -173 vlineto
          -66 -2 -3 -20 -1 hvcurveto
          -19 -310 -10 -106 -74 -1 rrcurveto
          -2 -7 0 -6 -5 vvcurveto
          -33 18 -13 26 88 31 132 304 18 vhcurveto
          84 -432 101 hlineto
          95 96 19 151 110 -61 24 -97 hvcurveto
          -52 -239 rmoveto
          177 vlineto
          1 11 14 0 15 hhcurveto
          50 31 -6 -70 -83 -34 -20 -46 hvcurveto
          endchar
        </CharString>
        <CharString name="logicalnot">
          30 232 76 hstem
          282 76 vstem
          60 308 rmoveto
          -18 -8 -17 -21 -13 2 -12 4 -13 hvcurveto
          242 -101 hlineto
          -18 18 -8 21 12 14 2 4 11 vhcurveto
          197 vlineto
          endchar
        </CharString>
        <CharString name="longs">
          -196 13 -21 676 70 hstem
          46 81 vstem
          46 72 rmoveto
          -37 -7 -32 0 vhcurveto
          0 10 -11 31 35 12 6 32 vhcurveto
          527 vlineto
          77 25 34 65 41 27 -10 -23 31 vhcurveto
          10 13 10 22 16 vvcurveto
          27 -49 25 -68 -112 -61 -41 -109 vhcurveto
          endchar
        </CharString>
        <CharString name="lozenge">
          86 15 -21 711 -20 hstem
          30 398 vstem
          229 -6 rmoveto
          199 355 -199 356 -199 -356 rlineto
          199 198 rmoveto
          111 -198 -111 -195 -112 195 rlineto
          endchar
        </CharString>
</ttFont>
